<svg width="76" height="77" viewBox="0 0 76 77" fill="none" xmlns="http://www.w3.org/2000/svg">
<rect x="-0.5" y="0.5" width="75" height="75" rx="7.5" transform="matrix(-1 0 0 1 75 0.541016)" fill="url(#paint0_linear_3598_63615)"/>
<g clip-path="url(#clip0_3598_63615)">
<g clip-path="url(#clip1_3598_63615)">
<path d="M41.4478 14.314C38.3828 13.8019 35.248 13.896 32.2223 14.5911C29.1966 15.2861 26.3394 16.5685 23.814 18.365C21.2885 20.1614 19.1443 22.4367 17.5039 25.0608C15.8634 27.6849 14.7589 30.6065 14.2533 33.6585C13.4727 39.2363 14.5847 44.9183 17.4128 49.8034C18.0969 51.1128 17.9007 51.755 17.2921 52.0951C15.8024 52.8939 11.8673 51.9953 11.7548 54.1215C11.6979 55.0527 12.9128 56.1329 15.4054 57.1602C18.9341 58.6328 25.0491 60.0198 33.6883 60.7892C43.6195 61.6773 52.009 58.079 56.8272 51.4155C59.0268 48.3054 60.4421 44.7125 60.9539 40.9396C61.4657 37.1667 61.0589 33.3245 59.7679 29.7369C58.4768 26.1493 56.3393 22.9216 53.5356 20.3259C50.7319 17.7303 47.3443 15.8427 43.6583 14.8225C42.9172 14.6239 42.1762 14.4253 41.3827 14.3325" fill="url(#paint1_linear_3598_63615)"/>
<path d="M57.5929 34.4326C58.1185 38.3672 57.4655 42.3693 55.7165 45.9328C53.9675 49.4962 51.2009 52.4609 47.7668 54.452C44.3327 56.443 40.3853 57.371 36.4238 57.1184C32.4623 56.8658 28.6647 55.4441 25.5112 53.0331C22.3577 50.6221 19.9901 47.3301 18.7078 43.5734C17.4254 39.8166 17.2859 35.764 18.3069 31.928C19.328 28.092 21.4637 24.645 24.4439 22.0229C27.4241 19.4007 31.115 17.7213 35.0498 17.197C40.3246 16.4941 45.6627 17.9149 49.8901 21.1471C54.1176 24.3792 56.8882 29.158 57.5929 34.4326Z" fill="#FECE54"/>
<path d="M39.6708 24.2018L32.1651 34.9264L32.0964 34.1588L31.0173 21.8831C29.5369 22.1199 28.1037 22.5907 26.7712 23.2778L28.1935 39.5495C28.9714 39.9896 29.8035 40.326 30.6687 40.5504C31.5303 40.7874 32.4191 40.9121 33.3127 40.9212L42.6644 27.5997C41.8568 26.3127 40.8458 25.1652 39.6708 24.2018Z" fill="url(#paint2_linear_3598_63615)"/>
<path d="M41.5578 45.4729C40.5609 45.2117 39.6007 44.8268 38.6994 44.3271C38.1264 44.7675 37.4701 45.087 36.77 45.2663C36.0666 45.4866 35.3278 45.5714 34.5927 45.5164L34.5378 49.659C36.2284 49.8869 37.9486 49.6141 39.4857 48.8745C40.9846 48.1933 42.2989 47.1634 43.3188 45.8709C42.7233 45.779 42.1349 45.646 41.5578 45.4729Z" fill="url(#paint3_linear_3598_63615)"/>
<path d="M30.1576 42.4182C29.1607 42.157 28.2005 41.7721 27.2992 41.2724C26.7262 41.7128 26.0699 42.0323 25.3698 42.2116C24.666 42.4302 23.9275 42.5151 23.1925 42.4618L23.1376 46.6044C24.8252 46.833 26.5428 46.5592 28.0757 45.8172C29.5772 45.137 30.8948 44.1082 31.9186 42.8162C31.3232 42.7239 30.7348 42.591 30.1576 42.4182Z" fill="url(#paint4_linear_3598_63615)"/>
<path d="M51.0809 27.2592L43.5652 37.9811L43.4966 37.2135L42.9189 30.5484L39.0204 36.1196L39.5838 42.6015C41.1518 43.472 42.9099 43.9431 44.7031 43.9732L47.8334 39.5362L54.0548 30.6517C53.2515 29.3689 52.2474 28.2235 51.0809 27.2592Z" fill="url(#paint5_linear_3598_63615)"/>
</g>
</g>
<rect x="-0.5" y="0.5" width="75" height="75" rx="7.5" transform="matrix(-1 0 0 1 75 0.541016)" stroke="url(#paint6_diamond_3598_63615)"/>
<defs>
<linearGradient id="paint0_linear_3598_63615" x1="76" y1="60.1667" x2="-2.11949" y2="55.0159" gradientUnits="userSpaceOnUse">
<stop stop-color="#FFBC0D"/>
<stop offset="1" stop-color="#FFA800"/>
</linearGradient>
<linearGradient id="paint1_linear_3598_63615" x1="56.5813" y1="57.9939" x2="10.4234" y2="42.3859" gradientUnits="userSpaceOnUse">
<stop stop-color="#E08804"/>
<stop offset="1" stop-color="#FFA800"/>
</linearGradient>
<linearGradient id="paint2_linear_3598_63615" x1="49.3931" y1="48.0494" x2="21.8954" y2="38.5208" gradientUnits="userSpaceOnUse">
<stop stop-color="#E08804"/>
<stop offset="1" stop-color="#FFA800"/>
</linearGradient>
<linearGradient id="paint3_linear_3598_63615" x1="49.3931" y1="48.0494" x2="21.8954" y2="38.5208" gradientUnits="userSpaceOnUse">
<stop stop-color="#E08804"/>
<stop offset="1" stop-color="#FFA800"/>
</linearGradient>
<linearGradient id="paint4_linear_3598_63615" x1="49.3931" y1="48.0494" x2="21.8954" y2="38.5208" gradientUnits="userSpaceOnUse">
<stop stop-color="#E08804"/>
<stop offset="1" stop-color="#FFA800"/>
</linearGradient>
<linearGradient id="paint5_linear_3598_63615" x1="49.3931" y1="48.0494" x2="21.8954" y2="38.5208" gradientUnits="userSpaceOnUse">
<stop stop-color="#E08804"/>
<stop offset="1" stop-color="#FFA800"/>
</linearGradient>
<radialGradient id="paint6_diamond_3598_63615" cx="0" cy="0" r="1" gradientUnits="userSpaceOnUse" gradientTransform="translate(73.2292 -1.97915) rotate(142.903) scale(99.7508 778.896)">
<stop stop-color="#FFF1DB"/>
<stop offset="1" stop-color="#DE5E36"/>
</radialGradient>
<clipPath id="clip0_3598_63615">
<rect width="60.2733" height="60.2733" fill="white" transform="translate(16.6436 1.46338) rotate(15)"/>
</clipPath>
<clipPath id="clip1_3598_63615">
<rect width="47.2958" height="48.4494" fill="white" transform="translate(20.8242 8.7041) rotate(15)"/>
</clipPath>
</defs>
</svg>
