<svg width="360" height="278" viewBox="0 0 360 278" fill="none" xmlns="http://www.w3.org/2000/svg">
<g filter="url(#filter0_d_3598_64275)">
<g filter="url(#filter1_d_3598_64275)">
<rect x="30.5088" y="50.666" width="298.979" height="176.669" rx="5.43598" fill="white"/>
</g>
<g filter="url(#filter2_ddii_3598_64275)">
<path d="M30.5088 56.102C30.5088 53.0998 32.9426 50.666 35.9448 50.666L324.052 50.666C327.054 50.666 329.488 53.0998 329.488 56.102V88.7179L30.5088 88.7179L30.5088 56.102Z" fill="url(#paint0_linear_3598_64275)"/>
</g>
<path d="M128.057 76.7437V71.7637L123.357 62.7437H126.257L129.357 69.2037L132.437 62.7437H135.297L130.617 71.7637V76.7437H128.057ZM142.599 76.9837C141.199 76.9837 139.972 76.677 138.919 76.0637C137.879 75.4503 137.059 74.6037 136.459 73.5237C135.872 72.4303 135.579 71.1703 135.579 69.7437C135.579 68.317 135.872 67.0637 136.459 65.9837C137.059 64.8903 137.879 64.037 138.919 63.4237C139.972 62.8103 141.199 62.5037 142.599 62.5037C143.985 62.5037 145.205 62.8103 146.259 63.4237C147.312 64.037 148.132 64.8903 148.719 65.9837C149.305 67.0637 149.599 68.317 149.599 69.7437C149.599 71.1703 149.305 72.4303 148.719 73.5237C148.132 74.6037 147.312 75.4503 146.259 76.0637C145.205 76.677 143.985 76.9837 142.599 76.9837ZM142.599 74.6837C143.932 74.6837 144.992 74.2437 145.779 73.3637C146.579 72.4837 146.979 71.277 146.979 69.7437C146.979 68.2103 146.579 67.0037 145.779 66.1237C144.992 65.2437 143.932 64.8037 142.599 64.8037C141.265 64.8037 140.199 65.2437 139.399 66.1237C138.599 67.0037 138.199 68.2103 138.199 69.7437C138.199 71.277 138.599 72.4837 139.399 73.3637C140.199 74.2437 141.265 74.6837 142.599 74.6837ZM157.259 76.9837C156.232 76.9837 155.306 76.7837 154.479 76.3837C153.652 75.9703 152.992 75.3503 152.499 74.5237C152.019 73.697 151.779 72.6503 151.779 71.3837V62.7437H154.339V71.4037C154.339 72.497 154.599 73.3103 155.119 73.8437C155.652 74.377 156.386 74.6437 157.319 74.6437C158.239 74.6437 158.966 74.377 159.499 73.8437C160.032 73.3103 160.299 72.497 160.299 71.4037V62.7437H162.859V71.3837C162.859 72.6503 162.606 73.697 162.099 74.5237C161.592 75.3503 160.912 75.9703 160.059 76.3837C159.219 76.7837 158.286 76.9837 157.259 76.9837ZM173.078 76.7437L169.378 62.7437H172.118L174.638 73.8837L177.598 62.7437H180.418L183.298 73.8837L185.818 62.7437L188.578 62.7437L184.778 76.7437H181.738L178.958 66.3637L176.098 76.7437H173.078ZM196.388 76.9837C194.988 76.9837 193.761 76.677 192.708 76.0637C191.668 75.4503 190.848 74.6037 190.248 73.5237C189.661 72.4303 189.368 71.1703 189.368 69.7437C189.368 68.317 189.661 67.0637 190.248 65.9837C190.848 64.8903 191.668 64.037 192.708 63.4237C193.761 62.8103 194.988 62.5037 196.388 62.5037C197.774 62.5037 198.994 62.8103 200.048 63.4237C201.101 64.037 201.921 64.8903 202.508 65.9837C203.094 67.0637 203.388 68.317 203.388 69.7437C203.388 71.1703 203.094 72.4303 202.508 73.5237C201.921 74.6037 201.101 75.4503 200.048 76.0637C198.994 76.677 197.774 76.9837 196.388 76.9837ZM196.388 74.6837C197.721 74.6837 198.781 74.2437 199.568 73.3637C200.368 72.4837 200.768 71.277 200.768 69.7437C200.768 68.2103 200.368 67.0037 199.568 66.1237C198.781 65.2437 197.721 64.8037 196.388 64.8037C195.054 64.8037 193.988 65.2437 193.188 66.1237C192.388 67.0037 191.988 68.2103 191.988 69.7437C191.988 71.277 192.388 72.4837 193.188 73.3637C193.988 74.2437 195.054 74.6837 196.388 74.6837ZM205.648 76.7437V62.7437H208.208L214.788 72.6037V62.7437H217.348V76.7437H214.788L208.208 66.9037V76.7437H205.648ZM220.542 72.3237L220.262 62.7437H223.002L222.702 72.3237H220.542ZM221.682 76.8837C221.202 76.8837 220.809 76.737 220.502 76.4437C220.209 76.1503 220.062 75.797 220.062 75.3837C220.062 74.957 220.209 74.597 220.502 74.3037C220.809 74.0103 221.202 73.8637 221.682 73.8637C222.135 73.8637 222.509 74.0103 222.802 74.3037C223.109 74.597 223.262 74.957 223.262 75.3837C223.262 75.797 223.109 76.1503 222.802 76.4437C222.509 76.737 222.135 76.8837 221.682 76.8837ZM226.46 72.3237L226.18 62.7437H228.92L228.62 72.3237H226.46ZM227.6 76.8837C227.12 76.8837 226.727 76.737 226.42 76.4437C226.127 76.1503 225.98 75.797 225.98 75.3837C225.98 74.957 226.127 74.597 226.42 74.3037C226.727 74.0103 227.12 73.8637 227.6 73.8637C228.053 73.8637 228.427 74.0103 228.72 74.3037C229.027 74.597 229.18 74.957 229.18 75.3837C229.18 75.797 229.027 76.1503 228.72 76.4437C228.427 76.737 228.053 76.8837 227.6 76.8837ZM232.378 72.3237L232.098 62.7437H234.838L234.538 72.3237H232.378ZM233.518 76.8837C233.038 76.8837 232.645 76.737 232.338 76.4437C232.045 76.1503 231.898 75.797 231.898 75.3837C231.898 74.957 232.045 74.597 232.338 74.3037C232.645 74.0103 233.038 73.8637 233.518 73.8637C233.971 73.8637 234.345 74.0103 234.638 74.3037C234.945 74.597 235.098 74.957 235.098 75.3837C235.098 75.797 234.945 76.1503 234.638 76.4437C234.345 76.737 233.971 76.8837 233.518 76.8837Z" fill="white"/>
<g filter="url(#filter3_dd_3598_64275)">
<g clip-path="url(#clip0_3598_64275)">
<mask id="path-5-inside-1_3598_64275" fill="white">
<path fill-rule="evenodd" clip-rule="evenodd" d="M52.1027 143.721C51.0601 137.808 55.0084 132.169 60.9216 131.127L114.456 121.687C120.369 120.645 126.008 124.593 127.05 130.506L130.826 151.92C131.869 157.833 127.92 163.472 122.007 164.514L68.4732 173.954C62.56 174.997 56.9212 171.048 55.8785 165.135L55.6169 163.651C55.2075 161.329 57.0318 159.143 58.3841 157.212V157.212C59.2111 156.031 59.535 154.57 59.2846 153.15C59.0343 151.73 58.2302 150.468 57.0492 149.641V149.641C55.1179 148.289 52.6558 146.858 52.2464 144.536L52.1027 143.721ZM128.306 137.627C128.101 136.466 126.952 135.66 125.958 136.293V136.293C125.356 136.677 124.835 137.175 124.426 137.76C124.017 138.345 123.726 139.004 123.572 139.701C123.417 140.398 123.402 141.119 123.525 141.822C123.649 142.525 123.911 143.197 124.294 143.799C124.678 144.401 125.176 144.921 125.761 145.331C126.346 145.74 127.005 146.031 127.702 146.185V146.185C128.853 146.44 129.657 145.29 129.452 144.129L128.879 140.878L128.306 137.627Z"/>
</mask>
<path fill-rule="evenodd" clip-rule="evenodd" d="M52.1027 143.721C51.0601 137.808 55.0084 132.169 60.9216 131.127L114.456 121.687C120.369 120.645 126.008 124.593 127.05 130.506L130.826 151.92C131.869 157.833 127.92 163.472 122.007 164.514L68.4732 173.954C62.56 174.997 56.9212 171.048 55.8785 165.135L55.6169 163.651C55.2075 161.329 57.0318 159.143 58.3841 157.212V157.212C59.2111 156.031 59.535 154.57 59.2846 153.15C59.0343 151.73 58.2302 150.468 57.0492 149.641V149.641C55.1179 148.289 52.6558 146.858 52.2464 144.536L52.1027 143.721ZM128.306 137.627C128.101 136.466 126.952 135.66 125.958 136.293V136.293C125.356 136.677 124.835 137.175 124.426 137.76C124.017 138.345 123.726 139.004 123.572 139.701C123.417 140.398 123.402 141.119 123.525 141.822C123.649 142.525 123.911 143.197 124.294 143.799C124.678 144.401 125.176 144.921 125.761 145.331C126.346 145.74 127.005 146.031 127.702 146.185V146.185C128.853 146.44 129.657 145.29 129.452 144.129L128.879 140.878L128.306 137.627Z" fill="white"/>
<path d="M60.9216 131.127L61.0396 131.796L60.9216 131.127ZM114.456 121.687L114.338 121.018L114.456 121.687ZM122.007 164.514L122.125 165.184L122.007 164.514ZM68.4732 173.954L68.3552 173.285L68.4732 173.954ZM124.426 137.76L124.983 138.15L124.983 138.15L124.426 137.76ZM123.572 139.701L124.235 139.848L123.572 139.701ZM124.294 143.799L123.721 144.164L124.294 143.799ZM125.761 145.331L125.371 145.887L125.371 145.887L125.761 145.331ZM128.879 140.878L129.548 140.76L128.879 140.878ZM128.306 137.627L128.975 137.509L128.306 137.627ZM60.8036 130.458C54.5209 131.565 50.3257 137.557 51.4336 143.839L52.7719 143.603C51.7944 138.06 55.496 132.773 61.0396 131.796L60.8036 130.458ZM114.338 121.018L60.8036 130.458L61.0396 131.796L114.574 122.356L114.338 121.018ZM127.719 130.388C126.612 124.105 120.62 119.91 114.338 121.018L114.574 122.356C120.117 121.379 125.404 125.081 126.381 130.624L127.719 130.388ZM131.495 151.802L127.719 130.388L126.381 130.624L130.157 152.038L131.495 151.802ZM122.125 165.184C128.408 164.076 132.603 158.085 131.495 151.802L130.157 152.038C131.134 157.581 127.433 162.868 121.889 163.845L122.125 165.184ZM68.5912 174.623L122.125 165.184L121.889 163.845L68.3552 173.285L68.5912 174.623ZM55.2094 165.253C56.3172 171.536 62.3084 175.731 68.5912 174.623L68.3552 173.285C62.8116 174.262 57.5252 170.561 56.5477 165.017L55.2094 165.253ZM54.9477 163.769L55.2094 165.253L56.5477 165.017L56.2861 163.533L54.9477 163.769ZM58.9407 157.602C59.871 156.273 60.2355 154.629 59.9538 153.032L58.6155 153.268C58.8345 154.51 58.5511 155.789 57.8275 156.822L58.9407 157.602ZM59.9538 153.032C59.6722 151.435 58.7675 150.015 57.4389 149.084L56.6594 150.198C57.6928 150.921 58.3964 152.026 58.6155 153.268L59.9538 153.032ZM51.4336 143.839L51.5773 144.654L52.9156 144.418L52.7719 143.603L51.4336 143.839ZM124.983 138.15C125.341 137.638 125.796 137.202 126.323 136.866L125.593 135.72C124.916 136.152 124.33 136.712 123.869 137.37L124.983 138.15ZM124.235 139.848C124.37 139.239 124.624 138.661 124.983 138.15L123.869 137.37C123.409 138.028 123.082 138.77 122.908 139.554L124.235 139.848ZM124.195 141.704C124.086 141.089 124.1 140.458 124.235 139.848L122.908 139.554C122.735 140.338 122.717 141.149 122.856 141.94L124.195 141.704ZM124.867 143.434C124.532 142.907 124.303 142.319 124.195 141.704L122.856 141.94C122.996 142.731 123.29 143.486 123.721 144.164L124.867 143.434ZM126.151 144.774C125.639 144.416 125.203 143.96 124.867 143.434L123.721 144.164C124.153 144.841 124.713 145.427 125.371 145.887L126.151 144.774ZM127.849 145.522C127.24 145.386 126.662 145.132 126.151 144.774L125.371 145.887C126.029 146.348 126.771 146.675 127.555 146.848L127.849 145.522ZM128.21 140.996L128.783 144.247L130.121 144.011L129.548 140.76L128.21 140.996ZM127.636 137.745L128.21 140.996L129.548 140.76L128.975 137.509L127.636 137.745ZM127.555 146.848C128.412 147.038 129.155 146.692 129.617 146.111C130.065 145.549 130.255 144.772 130.121 144.011L128.783 144.247C128.854 144.648 128.745 145.026 128.554 145.265C128.378 145.486 128.143 145.587 127.849 145.522L127.555 146.848ZM126.323 136.866C126.577 136.705 126.832 136.719 127.073 136.867C127.334 137.026 127.566 137.344 127.636 137.745L128.975 137.509C128.841 136.748 128.396 136.083 127.783 135.708C127.15 135.32 126.333 135.249 125.593 135.72L126.323 136.866ZM57.4389 149.084C56.4362 148.382 55.3988 147.727 54.5315 146.947C53.6745 146.176 53.0825 145.365 52.9156 144.418L51.5773 144.654C51.8198 146.03 52.6635 147.095 53.6227 147.957C54.5716 148.811 55.7308 149.547 56.6594 150.198L57.4389 149.084ZM56.2861 163.533C56.1192 162.587 56.398 161.622 56.9397 160.604C57.4878 159.575 58.2386 158.604 58.9407 157.602L57.8275 156.822C57.1773 157.751 56.3398 158.839 55.7401 159.966C55.1338 161.105 54.7052 162.394 54.9477 163.769L56.2861 163.533Z" fill="#E0E0E0" mask="url(#path-5-inside-1_3598_64275)"/>
<path fill-rule="evenodd" clip-rule="evenodd" d="M60.9216 131.127C55.0084 132.169 51.0601 137.808 52.1027 143.721L53.1005 149.38C54.4801 149.17 55.8895 149.499 57.0353 150.302C58.2163 151.128 59.0204 152.391 59.2707 153.81C59.5211 155.23 59.1972 156.691 58.3702 157.872C57.568 159.018 56.356 159.809 54.9879 160.084L55.82 164.803C56.8626 170.716 62.5015 174.665 68.4147 173.622L71.0914 173.15L63.5983 130.655L60.9216 131.127Z" fill="#E52924"/>
<path d="M77.9006 156.871L76.0703 146.491L74.0047 147.377L73.6809 145.541L76.5997 143.577L78.0799 143.316L80.3926 156.432L77.9006 156.871ZM86.3958 150.814L86.0423 148.809L89.5648 148.188L88.9932 144.947L91.0356 144.586L91.6071 147.828L95.1109 147.21L95.4644 149.215L91.9606 149.833L92.5322 153.074L90.4899 153.434L89.9183 150.193L86.3958 150.814ZM102.726 152.494L102.419 150.751C103.102 149.948 103.761 149.156 104.396 148.374C105.043 147.59 105.604 146.828 106.079 146.088C106.566 145.345 106.932 144.643 107.176 143.981C107.43 143.306 107.507 142.68 107.405 142.106C107.311 141.569 107.077 141.12 106.705 140.761C106.345 140.399 105.827 140.278 105.153 140.397C104.466 140.518 103.987 140.834 103.717 141.346C103.446 141.857 103.367 142.431 103.479 143.068L101.156 143.478C101.011 142.512 101.083 141.675 101.37 140.967C101.655 140.247 102.101 139.673 102.708 139.244C103.313 138.802 104.028 138.509 104.852 138.364C106.189 138.128 107.29 138.314 108.157 138.921C109.035 139.513 109.576 140.39 109.781 141.552C109.908 142.276 109.864 143.012 109.648 143.758C109.444 144.502 109.13 145.24 108.705 145.972C108.281 146.704 107.805 147.406 107.28 148.078C106.752 148.738 106.237 149.357 105.733 149.935L111.411 148.934L111.758 150.901L102.726 152.494Z" fill="#222222"/>
</g>
</g>
<path d="M150.557 139.821V132.849L143.977 120.221H148.037L152.377 129.265L156.689 120.221H160.693L154.141 132.849V139.821H150.557ZM167.081 140.157C165.737 140.157 164.523 139.849 163.441 139.233C162.377 138.617 161.527 137.767 160.893 136.685C160.277 135.583 159.969 134.314 159.969 132.877C159.969 131.439 160.286 130.179 160.921 129.097C161.555 127.995 162.405 127.137 163.469 126.521C164.551 125.905 165.765 125.597 167.109 125.597C168.434 125.597 169.629 125.905 170.693 126.521C171.775 127.137 172.625 127.995 173.241 129.097C173.875 130.179 174.193 131.439 174.193 132.877C174.193 134.314 173.875 135.583 173.241 136.685C172.625 137.767 171.775 138.617 170.693 139.233C169.61 139.849 168.406 140.157 167.081 140.157ZM167.081 137.049C168.014 137.049 168.826 136.703 169.517 136.013C170.207 135.303 170.553 134.258 170.553 132.877C170.553 131.495 170.207 130.459 169.517 129.769C168.826 129.059 168.023 128.705 167.109 128.705C166.157 128.705 165.335 129.059 164.645 129.769C163.973 130.459 163.637 131.495 163.637 132.877C163.637 134.258 163.973 135.303 164.645 136.013C165.335 136.703 166.147 137.049 167.081 137.049ZM182.605 140.157C180.869 140.157 179.525 139.615 178.573 138.533C177.64 137.45 177.173 135.863 177.173 133.773V125.933H180.729V133.437C180.729 134.631 180.972 135.546 181.457 136.181C181.942 136.815 182.708 137.133 183.753 137.133C184.742 137.133 185.554 136.778 186.189 136.069C186.842 135.359 187.169 134.37 187.169 133.101V125.933H190.753V139.821H187.589L187.309 137.469C186.88 138.29 186.254 138.943 185.433 139.429C184.63 139.914 183.688 140.157 182.605 140.157ZM201.104 139.821V119.661H204.688V128.061C205.155 127.295 205.78 126.698 206.564 126.269C207.367 125.821 208.282 125.597 209.308 125.597C211.026 125.597 212.351 126.138 213.284 127.221C214.236 128.303 214.712 129.89 214.712 131.981V139.821H211.156V132.317C211.156 131.122 210.914 130.207 210.428 129.573C209.962 128.938 209.215 128.621 208.188 128.621C207.18 128.621 206.34 128.975 205.668 129.685C205.015 130.394 204.688 131.383 204.688 132.653V139.821H201.104ZM222.927 140.157C221.733 140.157 220.753 139.97 219.987 139.597C219.222 139.205 218.653 138.691 218.279 138.057C217.906 137.422 217.719 136.722 217.719 135.957C217.719 134.669 218.223 133.623 219.231 132.821C220.239 132.018 221.751 131.617 223.767 131.617H227.295V131.281C227.295 130.329 227.025 129.629 226.483 129.181C225.942 128.733 225.27 128.509 224.467 128.509C223.739 128.509 223.105 128.686 222.563 129.041C222.022 129.377 221.686 129.881 221.555 130.553H218.055C218.149 129.545 218.485 128.667 219.063 127.921C219.661 127.174 220.426 126.605 221.359 126.213C222.293 125.802 223.338 125.597 224.495 125.597C226.474 125.597 228.033 126.091 229.171 127.081C230.31 128.07 230.879 129.47 230.879 131.281V139.821H227.827L227.491 137.581C227.081 138.327 226.502 138.943 225.755 139.429C225.027 139.914 224.085 140.157 222.927 140.157ZM223.739 137.357C224.766 137.357 225.559 137.021 226.119 136.349C226.698 135.677 227.062 134.846 227.211 133.857H224.159C223.207 133.857 222.526 134.034 222.115 134.389C221.705 134.725 221.499 135.145 221.499 135.649C221.499 136.19 221.705 136.61 222.115 136.909C222.526 137.207 223.067 137.357 223.739 137.357ZM237.641 139.821L232.545 125.933H236.297L239.825 136.433L243.353 125.933H247.105L241.981 139.821H237.641ZM255.43 140.157C254.03 140.157 252.789 139.858 251.706 139.261C250.624 138.663 249.774 137.823 249.158 136.741C248.542 135.658 248.234 134.407 248.234 132.989C248.234 131.551 248.533 130.273 249.13 129.153C249.746 128.033 250.586 127.165 251.65 126.549C252.733 125.914 254.002 125.597 255.458 125.597C256.821 125.597 258.025 125.895 259.07 126.493C260.116 127.09 260.928 127.911 261.506 128.957C262.104 129.983 262.402 131.131 262.402 132.401C262.402 132.606 262.393 132.821 262.374 133.045C262.374 133.269 262.365 133.502 262.346 133.745H251.79C251.865 134.827 252.238 135.677 252.91 136.293C253.601 136.909 254.432 137.217 255.402 137.217C256.13 137.217 256.737 137.058 257.222 136.741C257.726 136.405 258.1 135.975 258.342 135.453H261.982C261.721 136.33 261.282 137.133 260.666 137.861C260.069 138.57 259.322 139.13 258.426 139.541C257.549 139.951 256.55 140.157 255.43 140.157ZM255.458 128.509C254.581 128.509 253.806 128.761 253.134 129.265C252.462 129.75 252.033 130.497 251.846 131.505H258.762C258.706 130.59 258.37 129.862 257.754 129.321C257.138 128.779 256.373 128.509 255.458 128.509ZM148.121 175.821L144.061 161.933H147.617L150.025 171.929L152.825 161.933H156.801L159.601 171.929L162.037 161.933H165.593L161.505 175.821H157.781L154.813 165.433L151.845 175.821H148.121ZM174.026 176.157C172.682 176.157 171.469 175.849 170.386 175.233C169.322 174.617 168.473 173.767 167.838 172.685C167.222 171.583 166.914 170.314 166.914 168.877C166.914 167.439 167.231 166.179 167.866 165.097C168.501 163.995 169.35 163.137 170.414 162.521C171.497 161.905 172.71 161.597 174.054 161.597C175.379 161.597 176.574 161.905 177.638 162.521C178.721 163.137 179.57 163.995 180.186 165.097C180.821 166.179 181.138 167.439 181.138 168.877C181.138 170.314 180.821 171.583 180.186 172.685C179.57 173.767 178.721 174.617 177.638 175.233C176.555 175.849 175.351 176.157 174.026 176.157ZM174.026 173.049C174.959 173.049 175.771 172.703 176.462 172.013C177.153 171.303 177.498 170.258 177.498 168.877C177.498 167.495 177.153 166.459 176.462 165.769C175.771 165.059 174.969 164.705 174.054 164.705C173.102 164.705 172.281 165.059 171.59 165.769C170.918 166.459 170.582 167.495 170.582 168.877C170.582 170.258 170.918 171.303 171.59 172.013C172.281 172.703 173.093 173.049 174.026 173.049ZM184.342 175.821V161.933H187.506L187.786 164.285C188.216 163.463 188.832 162.81 189.634 162.325C190.456 161.839 191.417 161.597 192.518 161.597C194.236 161.597 195.57 162.138 196.522 163.221C197.474 164.303 197.95 165.89 197.95 167.981V175.821H194.366V168.317C194.366 167.122 194.124 166.207 193.638 165.573C193.153 164.938 192.397 164.621 191.37 164.621C190.362 164.621 189.532 164.975 188.878 165.685C188.244 166.394 187.926 167.383 187.926 168.653V175.821H184.342ZM212.837 176.157C211.643 176.157 210.663 175.97 209.897 175.597C209.132 175.205 208.563 174.691 208.189 174.057C207.816 173.422 207.629 172.722 207.629 171.957C207.629 170.669 208.133 169.623 209.141 168.821C210.149 168.018 211.661 167.617 213.677 167.617H217.205V167.281C217.205 166.329 216.935 165.629 216.393 165.181C215.852 164.733 215.18 164.509 214.377 164.509C213.649 164.509 213.015 164.686 212.473 165.041C211.932 165.377 211.596 165.881 211.465 166.553H207.965C208.059 165.545 208.395 164.667 208.973 163.921C209.571 163.174 210.336 162.605 211.269 162.213C212.203 161.802 213.248 161.597 214.405 161.597C216.384 161.597 217.943 162.091 219.081 163.081C220.22 164.07 220.789 165.47 220.789 167.281V175.821H217.737L217.401 173.581C216.991 174.327 216.412 174.943 215.665 175.429C214.937 175.914 213.995 176.157 212.837 176.157ZM213.649 173.357C214.676 173.357 215.469 173.021 216.029 172.349C216.608 171.677 216.972 170.846 217.121 169.857H214.069C213.117 169.857 212.436 170.034 212.025 170.389C211.615 170.725 211.409 171.145 211.409 171.649C211.409 172.19 211.615 172.61 212.025 172.909C212.436 173.207 212.977 173.357 213.649 173.357ZM230.882 181.981V161.933H234.074L234.466 163.921C234.914 163.305 235.502 162.763 236.23 162.297C236.976 161.83 237.938 161.597 239.114 161.597C240.42 161.597 241.587 161.914 242.614 162.549C243.64 163.183 244.452 164.051 245.05 165.153C245.647 166.254 245.946 167.505 245.946 168.905C245.946 170.305 245.647 171.555 245.05 172.657C244.452 173.739 243.64 174.598 242.614 175.233C241.587 175.849 240.42 176.157 239.114 176.157C238.068 176.157 237.154 175.961 236.37 175.569C235.586 175.177 234.951 174.626 234.466 173.917V181.981H230.882ZM238.358 173.021C239.496 173.021 240.439 172.638 241.186 171.873C241.932 171.107 242.306 170.118 242.306 168.905C242.306 167.691 241.932 166.693 241.186 165.909C240.439 165.125 239.496 164.733 238.358 164.733C237.2 164.733 236.248 165.125 235.502 165.909C234.774 166.674 234.41 167.663 234.41 168.877C234.41 170.09 234.774 171.089 235.502 171.873C236.248 172.638 237.2 173.021 238.358 173.021ZM249.147 175.821V161.933H252.339L252.675 164.537C253.179 163.641 253.86 162.931 254.719 162.409C255.596 161.867 256.623 161.597 257.799 161.597V165.377H256.791C256.007 165.377 255.307 165.498 254.691 165.741C254.075 165.983 253.59 166.403 253.235 167.001C252.899 167.598 252.731 168.429 252.731 169.493V175.821H249.147ZM262.181 159.777C261.527 159.777 260.986 159.581 260.557 159.189C260.146 158.797 259.941 158.302 259.941 157.705C259.941 157.107 260.146 156.622 260.557 156.249C260.986 155.857 261.527 155.661 262.181 155.661C262.834 155.661 263.366 155.857 263.777 156.249C264.206 156.622 264.421 157.107 264.421 157.705C264.421 158.302 264.206 158.797 263.777 159.189C263.366 159.581 262.834 159.777 262.181 159.777ZM260.389 175.821V161.933H263.973V175.821H260.389ZM266.818 175.821V172.937L273.902 164.901H266.902V161.933H277.99V164.817L270.794 172.853H278.13V175.821H266.818ZM287.86 176.157C286.46 176.157 285.219 175.858 284.136 175.261C283.053 174.663 282.204 173.823 281.588 172.741C280.972 171.658 280.664 170.407 280.664 168.989C280.664 167.551 280.963 166.273 281.56 165.153C282.176 164.033 283.016 163.165 284.08 162.549C285.163 161.914 286.432 161.597 287.888 161.597C289.251 161.597 290.455 161.895 291.5 162.493C292.545 163.09 293.357 163.911 293.936 164.957C294.533 165.983 294.832 167.131 294.832 168.401C294.832 168.606 294.823 168.821 294.804 169.045C294.804 169.269 294.795 169.502 294.776 169.745H284.22C284.295 170.827 284.668 171.677 285.34 172.293C286.031 172.909 286.861 173.217 287.832 173.217C288.56 173.217 289.167 173.058 289.652 172.741C290.156 172.405 290.529 171.975 290.772 171.453H294.412C294.151 172.33 293.712 173.133 293.096 173.861C292.499 174.57 291.752 175.13 290.856 175.541C289.979 175.951 288.98 176.157 287.86 176.157ZM287.888 164.509C287.011 164.509 286.236 164.761 285.564 165.265C284.892 165.75 284.463 166.497 284.276 167.505H291.192C291.136 166.59 290.8 165.862 290.184 165.321C289.568 164.779 288.803 164.509 287.888 164.509ZM298.602 169.633L298.21 156.221H302.046L301.626 169.633H298.602ZM300.198 176.017C299.526 176.017 298.976 175.811 298.546 175.401C298.136 174.99 297.93 174.495 297.93 173.917C297.93 173.319 298.136 172.815 298.546 172.405C298.976 171.994 299.526 171.789 300.198 171.789C300.833 171.789 301.356 171.994 301.766 172.405C302.196 172.815 302.41 173.319 302.41 173.917C302.41 174.495 302.196 174.99 301.766 175.401C301.356 175.811 300.833 176.017 300.198 176.017Z" fill="#222222"/>
</g>
<defs>
<filter id="filter0_d_3598_64275" x="-19.6812" y="0.476017" width="399.359" height="277.049" filterUnits="userSpaceOnUse" color-interpolation-filters="sRGB">
<feFlood flood-opacity="0" result="BackgroundImageFix"/>
<feColorMatrix in="SourceAlpha" type="matrix" values="0 0 0 0 0 0 0 0 0 0 0 0 0 0 0 0 0 0 127 0" result="hardAlpha"/>
<feOffset/>
<feGaussianBlur stdDeviation="25.095"/>
<feComposite in2="hardAlpha" operator="out"/>
<feColorMatrix type="matrix" values="0 0 0 0 1 0 0 0 0 0 0 0 0 0 0 0 0 0 0.65 0"/>
<feBlend mode="normal" in2="BackgroundImageFix" result="effect1_dropShadow_3598_64275"/>
<feBlend mode="normal" in="SourceGraphic" in2="effect1_dropShadow_3598_64275" result="shape"/>
</filter>
<filter id="filter1_d_3598_64275" x="27.7908" y="47.948" width="304.415" height="182.105" filterUnits="userSpaceOnUse" color-interpolation-filters="sRGB">
<feFlood flood-opacity="0" result="BackgroundImageFix"/>
<feColorMatrix in="SourceAlpha" type="matrix" values="0 0 0 0 0 0 0 0 0 0 0 0 0 0 0 0 0 0 127 0" result="hardAlpha"/>
<feOffset/>
<feGaussianBlur stdDeviation="1.359"/>
<feColorMatrix type="matrix" values="0 0 0 0 1 0 0 0 0 0.780392 0 0 0 0 0 0 0 0 0.3 0"/>
<feBlend mode="normal" in2="BackgroundImageFix" result="effect1_dropShadow_3598_64275"/>
<feBlend mode="normal" in="SourceGraphic" in2="effect1_dropShadow_3598_64275" result="shape"/>
</filter>
<filter id="filter2_ddii_3598_64275" x="18.2778" y="39.794" width="323.441" height="62.5137" filterUnits="userSpaceOnUse" color-interpolation-filters="sRGB">
<feFlood flood-opacity="0" result="BackgroundImageFix"/>
<feColorMatrix in="SourceAlpha" type="matrix" values="0 0 0 0 0 0 0 0 0 0 0 0 0 0 0 0 0 0 127 0" result="hardAlpha"/>
<feOffset dy="1.359"/>
<feGaussianBlur stdDeviation="6.11548"/>
<feColorMatrix type="matrix" values="0 0 0 0 0 0 0 0 0 0 0 0 0 0 0 0 0 0 0.06 0"/>
<feBlend mode="normal" in2="BackgroundImageFix" result="effect1_dropShadow_3598_64275"/>
<feColorMatrix in="SourceAlpha" type="matrix" values="0 0 0 0 0 0 0 0 0 0 0 0 0 0 0 0 0 0 127 0" result="hardAlpha"/>
<feOffset/>
<feGaussianBlur stdDeviation="0.679498"/>
<feColorMatrix type="matrix" values="0 0 0 0 0 0 0 0 0 0 0 0 0 0 0 0 0 0 0.08 0"/>
<feBlend mode="normal" in2="effect1_dropShadow_3598_64275" result="effect2_dropShadow_3598_64275"/>
<feBlend mode="normal" in="SourceGraphic" in2="effect2_dropShadow_3598_64275" result="shape"/>
<feColorMatrix in="SourceAlpha" type="matrix" values="0 0 0 0 0 0 0 0 0 0 0 0 0 0 0 0 0 0 127 0" result="hardAlpha"/>
<feOffset dy="0.679498"/>
<feComposite in2="hardAlpha" operator="arithmetic" k2="-1" k3="1"/>
<feColorMatrix type="matrix" values="0 0 0 0 1 0 0 0 0 0.853846 0 0 0 0 0.525 0 0 0 0.4 0"/>
<feBlend mode="normal" in2="shape" result="effect3_innerShadow_3598_64275"/>
<feColorMatrix in="SourceAlpha" type="matrix" values="0 0 0 0 0 0 0 0 0 0 0 0 0 0 0 0 0 0 127 0" result="hardAlpha"/>
<feOffset dy="-0.679498"/>
<feComposite in2="hardAlpha" operator="arithmetic" k2="-1" k3="1"/>
<feColorMatrix type="matrix" values="0 0 0 0 0.854167 0 0 0 0 0.167735 0 0 0 0 0.149479 0 0 0 1 0"/>
<feBlend mode="normal" in2="effect3_innerShadow_3598_64275" result="effect4_innerShadow_3598_64275"/>
</filter>
<filter id="filter3_dd_3598_64275" x="37.9829" y="108.927" width="106.961" height="80.5044" filterUnits="userSpaceOnUse" color-interpolation-filters="sRGB">
<feFlood flood-opacity="0" result="BackgroundImageFix"/>
<feColorMatrix in="SourceAlpha" type="matrix" values="0 0 0 0 0 0 0 0 0 0 0 0 0 0 0 0 0 0 127 0" result="hardAlpha"/>
<feOffset dy="1.359"/>
<feGaussianBlur stdDeviation="6.11548"/>
<feColorMatrix type="matrix" values="0 0 0 0 0 0 0 0 0 0 0 0 0 0 0 0 0 0 0.06 0"/>
<feBlend mode="normal" in2="BackgroundImageFix" result="effect1_dropShadow_3598_64275"/>
<feColorMatrix in="SourceAlpha" type="matrix" values="0 0 0 0 0 0 0 0 0 0 0 0 0 0 0 0 0 0 127 0" result="hardAlpha"/>
<feOffset/>
<feGaussianBlur stdDeviation="0.679498"/>
<feColorMatrix type="matrix" values="0 0 0 0 0 0 0 0 0 0 0 0 0 0 0 0 0 0 0.08 0"/>
<feBlend mode="normal" in2="effect1_dropShadow_3598_64275" result="effect2_dropShadow_3598_64275"/>
<feBlend mode="normal" in="SourceGraphic" in2="effect2_dropShadow_3598_64275" result="shape"/>
</filter>
<linearGradient id="paint0_linear_3598_64275" x1="13.6229" y1="57.0501" x2="52.7265" y2="179.085" gradientUnits="userSpaceOnUse">
<stop offset="0.0833333" stop-color="#EA6B35"/>
<stop offset="0.526042" stop-color="#E73A23"/>
<stop offset="1" stop-color="#D5211C"/>
</linearGradient>
<clipPath id="clip0_3598_64275">
<rect x="50.2139" y="133.015" width="76.1038" height="43.4879" rx="10.872" transform="rotate(-10 50.2139 133.015)" fill="white"/>
</clipPath>
</defs>
</svg>
