<svg width="86" height="86" viewBox="0 0 86 86" fill="none" xmlns="http://www.w3.org/2000/svg">
<g filter="url(#filter0_d_7303_112319)">
<g filter="url(#filter1_d_7303_112319)">
<circle cx="43.9049" cy="40.5496" r="27.5" transform="rotate(13 43.9049 40.5496)" fill="url(#paint0_radial_7303_112319)"/>
</g>
<path d="M70.0249 46.5799C70.3933 46.6649 70.7618 46.4353 70.8377 46.0649C71.5156 42.7545 71.578 39.3455 71.0197 36.0089C70.4236 32.4471 69.1319 29.0375 67.2182 25.9749C65.3044 22.9123 62.8062 20.2566 59.8662 18.1595C56.9261 16.0624 53.6018 14.5649 50.083 13.7525C46.5642 12.9401 42.9198 12.8288 39.358 13.4248C35.7962 14.0209 32.3866 15.3127 29.324 17.2264C26.2614 19.1401 23.6058 21.6383 21.5086 24.5784C19.5441 27.3325 18.1058 30.4239 17.2639 33.6964C17.1697 34.0626 17.4003 34.4305 17.7687 34.5156C19.5838 35.1734 20.6465 35.3137 22.6415 35.172C23.01 35.2571 23.3765 35.027 23.4734 34.6615C24.1267 32.1983 25.1774 30.3301 26.6595 28.2524C28.2741 25.9888 30.3188 24.0653 32.6768 22.5919C35.0348 21.1184 37.6599 20.1239 40.4023 19.665C43.1446 19.206 45.9505 19.2918 48.6597 19.9172C51.369 20.5427 53.9285 21.6957 56.1921 23.3103C58.4558 24.925 60.3792 26.9697 61.8527 29.3277C63.3261 31.6857 64.3207 34.3108 64.7796 37.0531C65.2008 39.5702 65.4375 41.7356 64.9448 44.2359C64.8717 44.6069 65.1003 44.9744 65.4687 45.0594C67.3473 45.9659 68.3478 46.3129 70.0249 46.5799Z" fill="#FFED82" fill-opacity="0.3"/>
<ellipse cx="43.793" cy="40.641" rx="21.2241" ry="21.2241" transform="rotate(13 43.793 40.641)" fill="url(#paint1_linear_7303_112319)"/>
<ellipse cx="43.8869" cy="40.6631" rx="20.083" ry="20.083" transform="rotate(13 43.8869 40.6631)" fill="#D68639"/>
<g filter="url(#filter2_i_7303_112319)">
<ellipse cx="44.024" cy="40.6933" rx="19.3983" ry="19.3983" transform="rotate(13 44.024 40.6933)" fill="url(#paint2_radial_7303_112319)"/>
</g>
<g filter="url(#filter3_dddi_7303_112319)">
<path d="M45.4475 28.3622L39.0669 38.7965L38.9971 38.0799L37.8975 26.6191C36.6143 26.9151 35.3751 27.4282 34.2263 28.1392L35.6768 43.3312C36.3585 43.7052 37.086 43.9793 37.8408 44.1465C38.5926 44.3259 39.3665 44.3984 40.1432 44.3624L48.0936 31.3999C47.3748 30.233 46.4812 29.2071 45.4475 28.3622Z" fill="url(#paint3_radial_7303_112319)"/>
<path d="M47.3677 48.2204C46.498 48.0251 45.6585 47.712 44.8688 47.2883C44.3767 47.7299 43.8106 48.0624 43.2047 48.2655C42.5963 48.5072 41.9554 48.6238 41.316 48.6088L41.323 52.4974C42.7949 52.6267 44.2861 52.285 45.612 51.5145C46.9055 50.8007 48.0339 49.7691 48.9031 48.5058C48.3845 48.4493 47.8714 48.3539 47.3677 48.2204Z" fill="url(#paint4_radial_7303_112319)"/>
<path d="M37.4213 45.9241C36.5517 45.7288 35.7122 45.4157 34.9224 44.992C34.4304 45.4336 33.8642 45.7661 33.2583 45.9692C32.6497 46.2094 32.0091 46.3259 31.3697 46.3125L31.3766 50.2011C32.8461 50.3313 34.3349 49.9888 35.6571 49.2162C36.9529 48.5033 38.0841 47.4725 38.9568 46.2095C38.4382 46.1526 37.9252 46.0573 37.4213 45.9241Z" fill="url(#paint5_radial_7303_112319)"/>
<path d="M55.4024 30.6604L49.0132 41.0928L48.9434 40.3762L48.3536 34.1532L45.0395 39.5736L45.6145 45.6255C46.9885 46.3637 48.5224 46.7179 50.0809 46.6567L52.7425 42.3385L58.0313 33.6942C57.3164 32.5311 56.4288 31.5068 55.4024 30.6604Z" fill="url(#paint6_radial_7303_112319)"/>
</g>
<mask id="mask0_7303_112319" style="mask-type:alpha" maskUnits="userSpaceOnUse" x="31" y="26" width="28" height="27">
<path d="M45.4475 28.3622L39.0669 38.7965L38.9971 38.0799L37.8975 26.6191C36.6143 26.9151 35.3751 27.4282 34.2263 28.1392L35.6768 43.3312C36.3585 43.7052 37.086 43.9793 37.8408 44.1465C38.5926 44.3259 39.3665 44.3984 40.1432 44.3624L48.0936 31.3999C47.3748 30.233 46.4812 29.2071 45.4475 28.3622Z" fill="#E52924"/>
<path d="M47.3677 48.2204C46.498 48.0251 45.6585 47.712 44.8688 47.2883C44.3767 47.7299 43.8106 48.0624 43.2047 48.2655C42.5963 48.5072 41.9554 48.6237 41.316 48.6088L41.323 52.4974C42.7949 52.6267 44.2861 52.285 45.612 51.5145C46.9055 50.8007 48.0339 49.7691 48.9031 48.5058C48.3845 48.4493 47.8714 48.3539 47.3677 48.2204Z" fill="#E52924"/>
<path d="M37.4213 45.9241C36.5517 45.7288 35.7122 45.4157 34.9224 44.992C34.4304 45.4336 33.8642 45.7661 33.2583 45.9692C32.6497 46.2094 32.0091 46.3259 31.3697 46.3125L31.3766 50.2011C32.8461 50.3313 34.3349 49.9888 35.6571 49.2162C36.9529 48.5033 38.0841 47.4725 38.9568 46.2095C38.4382 46.1526 37.9252 46.0573 37.4213 45.9241Z" fill="#E52924"/>
<path d="M55.4024 30.6604L49.0132 41.0928L48.9434 40.3762L48.3536 34.1532L45.0395 39.5736L45.6145 45.6255C46.9885 46.3637 48.5224 46.7179 50.0809 46.6567L52.7425 42.3385L58.0313 33.6942C57.3164 32.5311 56.4288 31.5068 55.4024 30.6604Z" fill="#E52924"/>
</mask>
<g mask="url(#mask0_7303_112319)">
<ellipse cx="47.0812" cy="24.6956" rx="29.2286" ry="16.0875" transform="rotate(13 47.0812 24.6956)" fill="url(#paint7_angular_7303_112319)"/>
</g>
</g>
<g filter="url(#filter4_d_7303_112319)">
<path d="M69.0389 23.8924L68.7497 27.4131L72.0458 28.6839L68.5251 28.3947L67.2543 31.6908L67.5435 28.1701L64.2474 26.8993L67.7681 27.1885L69.0389 23.8924Z" fill="white"/>
</g>
<g filter="url(#filter5_d_7303_112319)">
<path d="M59.6512 7.98623L59.0005 15.9079L66.4168 18.7671L58.4951 18.1164L55.636 25.5327L56.2866 17.611L48.8703 14.7519L56.792 15.4025L59.6512 7.98623Z" fill="white"/>
</g>
<g filter="url(#filter6_d_7303_112319)">
<path d="M18.7039 42.9456L18.4147 46.4664L21.7109 47.7371L18.1901 47.4479L16.9194 50.744L17.2086 47.2233L13.9124 45.9526L17.4332 46.2417L18.7039 42.9456Z" fill="white"/>
</g>
<defs>
<filter id="filter0_d_7303_112319" x="-5.07642" y="-5.43164" width="95.9627" height="95.9626" filterUnits="userSpaceOnUse" color-interpolation-filters="sRGB">
<feFlood flood-opacity="0" result="BackgroundImageFix"/>
<feColorMatrix in="SourceAlpha" type="matrix" values="0 0 0 0 0 0 0 0 0 0 0 0 0 0 0 0 0 0 127 0" result="hardAlpha"/>
<feOffset dx="-1" dy="2"/>
<feGaussianBlur stdDeviation="7.5"/>
<feComposite in2="hardAlpha" operator="out"/>
<feColorMatrix type="matrix" values="0 0 0 0 1 0 0 0 0 0.333333 0 0 0 0 0.333333 0 0 0 0.65 0"/>
<feBlend mode="normal" in2="BackgroundImageFix" result="effect1_dropShadow_7303_112319"/>
<feBlend mode="normal" in="SourceGraphic" in2="effect1_dropShadow_7303_112319" result="shape"/>
</filter>
<filter id="filter1_d_7303_112319" x="16.208" y="13.0435" width="55.3939" height="55.9663" filterUnits="userSpaceOnUse" color-interpolation-filters="sRGB">
<feFlood flood-opacity="0" result="BackgroundImageFix"/>
<feColorMatrix in="SourceAlpha" type="matrix" values="0 0 0 0 0 0 0 0 0 0 0 0 0 0 0 0 0 0 127 0" result="hardAlpha"/>
<feOffset dy="0.763294"/>
<feGaussianBlur stdDeviation="0.0954118"/>
<feComposite in2="hardAlpha" operator="out"/>
<feColorMatrix type="matrix" values="0 0 0 0 0.679167 0 0 0 0 0.526354 0 0 0 0 0.526354 0 0 0 0.25 0"/>
<feBlend mode="normal" in2="BackgroundImageFix" result="effect1_dropShadow_7303_112319"/>
<feBlend mode="normal" in="SourceGraphic" in2="effect1_dropShadow_7303_112319" result="shape"/>
</filter>
<filter id="filter2_i_7303_112319" x="24.6213" y="21.2906" width="38.8053" height="38.8053" filterUnits="userSpaceOnUse" color-interpolation-filters="sRGB">
<feFlood flood-opacity="0" result="BackgroundImageFix"/>
<feBlend mode="normal" in="SourceGraphic" in2="BackgroundImageFix" result="shape"/>
<feColorMatrix in="SourceAlpha" type="matrix" values="0 0 0 0 0 0 0 0 0 0 0 0 0 0 0 0 0 0 127 0" result="hardAlpha"/>
<feOffset dy="-1.14494"/>
<feComposite in2="hardAlpha" operator="arithmetic" k2="-1" k3="1"/>
<feColorMatrix type="matrix" values="0 0 0 0 0.980392 0 0 0 0 0.760784 0 0 0 0 0.313726 0 0 0 0.5 0"/>
<feBlend mode="normal" in2="shape" result="effect1_innerShadow_7303_112319"/>
</filter>
<filter id="filter3_dddi_7303_112319" x="22.9338" y="26.2771" width="43.5333" height="43.1185" filterUnits="userSpaceOnUse" color-interpolation-filters="sRGB">
<feFlood flood-opacity="0" result="BackgroundImageFix"/>
<feColorMatrix in="SourceAlpha" type="matrix" values="0 0 0 0 0 0 0 0 0 0 0 0 0 0 0 0 0 0 127 0" result="hardAlpha"/>
<feOffset dy="0.341993"/>
<feGaussianBlur stdDeviation="0.0427491"/>
<feComposite in2="hardAlpha" operator="out"/>
<feColorMatrix type="matrix" values="0 0 0 0 0.5375 0 0 0 0 0.183125 0 0 0 0 0.174688 0 0 0 0.6 0"/>
<feBlend mode="normal" in2="BackgroundImageFix" result="effect1_dropShadow_7303_112319"/>
<feColorMatrix in="SourceAlpha" type="matrix" values="0 0 0 0 0 0 0 0 0 0 0 0 0 0 0 0 0 0 127 0" result="hardAlpha"/>
<feOffset dy="-0.170996"/>
<feGaussianBlur stdDeviation="0.0854981"/>
<feComposite in2="hardAlpha" operator="out"/>
<feColorMatrix type="matrix" values="0 0 0 0 0.7875 0 0 0 0 0.018314 0 0 0 0 0 0 0 0 0.5 0"/>
<feBlend mode="normal" in2="effect1_dropShadow_7303_112319" result="effect2_dropShadow_7303_112319"/>
<feColorMatrix in="SourceAlpha" type="matrix" values="0 0 0 0 0 0 0 0 0 0 0 0 0 0 0 0 0 0 127 0" result="hardAlpha"/>
<feOffset dy="8.43581"/>
<feGaussianBlur stdDeviation="4.21791"/>
<feComposite in2="hardAlpha" operator="out"/>
<feColorMatrix type="matrix" values="0 0 0 0 0 0 0 0 0 0 0 0 0 0 0 0 0 0 0.25 0"/>
<feBlend mode="normal" in2="effect2_dropShadow_7303_112319" result="effect3_dropShadow_7303_112319"/>
<feBlend mode="normal" in="SourceGraphic" in2="effect3_dropShadow_7303_112319" result="shape"/>
<feColorMatrix in="SourceAlpha" type="matrix" values="0 0 0 0 0 0 0 0 0 0 0 0 0 0 0 0 0 0 127 0" result="hardAlpha"/>
<feOffset dy="0.25543"/>
<feGaussianBlur stdDeviation="0.0851434"/>
<feComposite in2="hardAlpha" operator="arithmetic" k2="-1" k3="1"/>
<feColorMatrix type="matrix" values="0 0 0 0 1 0 0 0 0 0.754667 0 0 0 0 0.616667 0 0 0 1 0"/>
<feBlend mode="normal" in2="shape" result="effect4_innerShadow_7303_112319"/>
</filter>
<filter id="filter4_d_7303_112319" x="61.2839" y="21.6697" width="13.7254" height="13.7254" filterUnits="userSpaceOnUse" color-interpolation-filters="sRGB">
<feFlood flood-opacity="0" result="BackgroundImageFix"/>
<feColorMatrix in="SourceAlpha" type="matrix" values="0 0 0 0 0 0 0 0 0 0 0 0 0 0 0 0 0 0 127 0" result="hardAlpha"/>
<feOffset dy="0.740866"/>
<feGaussianBlur stdDeviation="1.48173"/>
<feComposite in2="hardAlpha" operator="out"/>
<feColorMatrix type="matrix" values="0 0 0 0 1 0 0 0 0 1 0 0 0 0 1 0 0 0 0.6 0"/>
<feBlend mode="normal" in2="BackgroundImageFix" result="effect1_dropShadow_7303_112319"/>
<feBlend mode="normal" in="SourceGraphic" in2="effect1_dropShadow_7303_112319" result="shape"/>
</filter>
<filter id="filter5_d_7303_112319" x="45.9069" y="5.76361" width="23.4734" height="23.4734" filterUnits="userSpaceOnUse" color-interpolation-filters="sRGB">
<feFlood flood-opacity="0" result="BackgroundImageFix"/>
<feColorMatrix in="SourceAlpha" type="matrix" values="0 0 0 0 0 0 0 0 0 0 0 0 0 0 0 0 0 0 127 0" result="hardAlpha"/>
<feOffset dy="0.740866"/>
<feGaussianBlur stdDeviation="1.48173"/>
<feComposite in2="hardAlpha" operator="out"/>
<feColorMatrix type="matrix" values="0 0 0 0 1 0 0 0 0 1 0 0 0 0 1 0 0 0 0.6 0"/>
<feBlend mode="normal" in2="BackgroundImageFix" result="effect1_dropShadow_7303_112319"/>
<feBlend mode="normal" in="SourceGraphic" in2="effect1_dropShadow_7303_112319" result="shape"/>
</filter>
<filter id="filter6_d_7303_112319" x="10.949" y="40.723" width="13.7254" height="13.7254" filterUnits="userSpaceOnUse" color-interpolation-filters="sRGB">
<feFlood flood-opacity="0" result="BackgroundImageFix"/>
<feColorMatrix in="SourceAlpha" type="matrix" values="0 0 0 0 0 0 0 0 0 0 0 0 0 0 0 0 0 0 127 0" result="hardAlpha"/>
<feOffset dy="0.740866"/>
<feGaussianBlur stdDeviation="1.48173"/>
<feComposite in2="hardAlpha" operator="out"/>
<feColorMatrix type="matrix" values="0 0 0 0 1 0 0 0 0 1 0 0 0 0 1 0 0 0 0.6 0"/>
<feBlend mode="normal" in2="BackgroundImageFix" result="effect1_dropShadow_7303_112319"/>
<feBlend mode="normal" in="SourceGraphic" in2="effect1_dropShadow_7303_112319" result="shape"/>
</filter>
<radialGradient id="paint0_radial_7303_112319" cx="0" cy="0" r="1" gradientUnits="userSpaceOnUse" gradientTransform="translate(44.9319 13.0496) rotate(89.8811) scale(55.0001)">
<stop stop-color="#FFED82"/>
<stop offset="0.321442" stop-color="#F7C25B"/>
<stop offset="0.53125" stop-color="#F6C05B"/>
<stop offset="0.630208" stop-color="#F2B551"/>
<stop offset="0.708164" stop-color="#F0B14B"/>
<stop offset="1" stop-color="#D4823E"/>
</radialGradient>
<linearGradient id="paint1_linear_7303_112319" x1="43.793" y1="19.4169" x2="43.793" y2="61.8651" gradientUnits="userSpaceOnUse">
<stop stop-color="#DF9B45"/>
<stop offset="1" stop-color="#FBC450"/>
</linearGradient>
<radialGradient id="paint2_radial_7303_112319" cx="0" cy="0" r="1" gradientUnits="userSpaceOnUse" gradientTransform="translate(44.024 21.295) rotate(90) scale(38.7967 38.7967)">
<stop stop-color="#FFDC8B"/>
<stop offset="0.487207" stop-color="#FFDA83"/>
<stop offset="1" stop-color="#E29A3A"/>
</radialGradient>
<radialGradient id="paint3_radial_7303_112319" cx="0" cy="0" r="1" gradientUnits="userSpaceOnUse" gradientTransform="translate(48.4783 21.327) rotate(103) scale(36.2152 16.504)">
<stop stop-color="#FF0000"/>
<stop offset="1" stop-color="#FF0F00"/>
</radialGradient>
<radialGradient id="paint4_radial_7303_112319" cx="0" cy="0" r="1" gradientUnits="userSpaceOnUse" gradientTransform="translate(48.4783 21.327) rotate(103) scale(36.2152 16.504)">
<stop stop-color="#FF0000"/>
<stop offset="1" stop-color="#FF0F00"/>
</radialGradient>
<radialGradient id="paint5_radial_7303_112319" cx="0" cy="0" r="1" gradientUnits="userSpaceOnUse" gradientTransform="translate(48.4783 21.327) rotate(103) scale(36.2152 16.504)">
<stop stop-color="#FF0000"/>
<stop offset="1" stop-color="#FF0F00"/>
</radialGradient>
<radialGradient id="paint6_radial_7303_112319" cx="0" cy="0" r="1" gradientUnits="userSpaceOnUse" gradientTransform="translate(48.4783 21.327) rotate(103) scale(36.2152 16.504)">
<stop stop-color="#FF0000"/>
<stop offset="1" stop-color="#FF0F00"/>
</radialGradient>
<radialGradient id="paint7_angular_7303_112319" cx="0" cy="0" r="1" gradientUnits="userSpaceOnUse" gradientTransform="translate(46.8546 14.1692) rotate(90) scale(27.4083 41.9263)">
<stop offset="0.457896" stop-color="#FFF2A8"/>
<stop offset="1" stop-color="#FFF2A4" stop-opacity="0.16"/>
</radialGradient>
</defs>
</svg>
