<svg width="196" height="374" viewBox="0 0 196 374" fill="none" xmlns="http://www.w3.org/2000/svg">
<g filter="url(#filter0_dd_3598_65996)">
<path fill-rule="evenodd" clip-rule="evenodd" d="M171.705 26.9829C175.007 27.2717 177.448 30.1819 177.16 33.483L149.618 348.281C149.33 351.582 146.419 354.024 143.118 353.735L91.3162 349.203C91.7013 344.801 88.4454 340.921 84.0439 340.536C79.6424 340.151 75.7622 343.407 75.3771 347.808L23.575 343.276C20.2739 342.987 17.832 340.077 18.1208 336.776L45.662 21.9785C45.9508 18.6774 48.861 16.2354 52.1621 16.5242L103.964 21.0563C103.579 25.4578 106.835 29.3381 111.236 29.7231C115.638 30.1082 119.518 26.8523 119.903 22.4508L171.705 26.9829Z" fill="white"/>
</g>
<path d="M105.213 293.63L107.807 293.857C108.688 295.134 109.564 296.372 110.433 297.572C111.301 298.791 112.17 299.879 113.042 300.836C113.913 301.812 114.771 302.599 115.618 303.198C116.482 303.817 117.342 304.164 118.197 304.239C118.997 304.308 119.723 304.147 120.376 303.755C121.027 303.381 121.396 302.691 121.484 301.687C121.574 300.665 121.307 299.864 120.683 299.284C120.059 298.705 119.273 298.374 118.324 298.291L118.627 294.832C120.055 294.995 121.218 295.415 122.114 296.093C123.029 296.773 123.676 297.626 124.055 298.652C124.452 299.68 124.597 300.807 124.489 302.035C124.315 304.024 123.632 305.52 122.439 306.521C121.262 307.542 119.81 307.977 118.08 307.826C117.002 307.732 115.973 307.389 114.994 306.797C114.014 306.224 113.084 305.496 112.206 304.614C111.327 303.731 110.511 302.788 109.755 301.785C109.018 300.784 108.335 299.815 107.705 298.88L106.965 307.331L104.036 307.075L105.213 293.63ZM110.42 309.927L113.405 310.188L112.946 315.432L117.771 315.854L117.505 318.895L112.68 318.472L112.224 323.689L109.239 323.427L109.695 318.211L104.87 317.789L105.136 314.749L109.961 315.171L110.42 309.927ZM102.166 328.449L117.619 329.801L117.147 326.527L119.88 326.767L121.56 331.664L121.367 333.867L101.842 332.159L102.166 328.449Z" fill="#222222"/>
<path opacity="0.15" fill-rule="evenodd" clip-rule="evenodd" d="M177.16 33.483C177.448 30.1819 175.007 27.2717 171.705 26.9829L119.903 22.4508C119.518 26.8523 115.638 30.1082 111.237 29.7231C106.835 29.3381 103.579 25.4578 103.964 21.0563L52.1621 16.5242C48.861 16.2354 45.9508 18.6774 45.662 21.9785L42.3501 59.8339L173.848 71.3384L177.16 33.483Z" fill="url(#paint0_linear_3598_65996)"/>
<rect x="73.8066" y="205.128" width="126" height="36" rx="8" transform="rotate(95 73.8066 205.128)" fill="url(#paint1_linear_3598_65996)"/>
<path d="M48.3766 231.904L58.4994 236.674L58.3477 238.408L47.553 241.318L47.6994 239.644L50.3331 238.971L50.707 234.698L48.2302 233.578L48.3766 231.904ZM51.923 235.256L51.6275 238.633L56.542 237.361L51.923 235.256ZM46.9772 245.833C47.0409 245.106 47.2623 244.468 47.6416 243.919C48.02 243.38 48.5125 242.971 49.1191 242.693C49.7347 242.426 50.4261 242.326 51.1932 242.393C51.9602 242.46 52.6187 242.678 53.1686 243.047C53.7276 243.428 54.1466 243.916 54.4257 244.513C54.7039 245.119 54.8112 245.786 54.7476 246.513C54.6674 247.43 54.3612 248.176 53.829 248.752C53.2959 249.337 52.6131 249.684 51.7805 249.792L51.9256 248.133C52.3428 248.07 52.6807 247.878 52.9395 247.56C53.1982 247.241 53.3477 246.852 53.3878 246.394C53.4218 246.006 53.3535 245.638 53.183 245.292C53.0225 244.947 52.7617 244.658 52.4006 244.426C52.0494 244.194 51.5999 244.054 51.052 244.007C50.5041 243.959 50.0321 244.018 49.6361 244.184C49.2501 244.351 48.9431 244.59 48.7151 244.901C48.4871 245.213 48.3561 245.563 48.3221 245.951C48.282 246.409 48.3617 246.818 48.5612 247.177C48.7607 247.535 49.0653 247.783 49.475 247.919L49.3299 249.578C48.5477 249.339 47.94 248.884 47.5068 248.214C47.0736 247.543 46.8971 246.75 46.9772 245.833ZM46.4399 254.041C46.5035 253.313 46.7284 252.751 47.1145 252.353C47.5106 251.956 48.162 251.797 49.0685 251.877L52.7295 252.197L52.8406 250.927L54.1706 251.043L54.0594 252.313L55.9253 252.672L55.8037 254.062L53.9209 253.897L53.7378 255.989L52.4079 255.873L52.5909 253.781L48.9299 253.461C48.5215 253.425 48.2302 253.485 48.056 253.64C47.8908 253.806 47.7895 254.104 47.7521 254.532L47.6775 255.384L46.3327 255.266L46.4399 254.041ZM54.9211 258.642C54.9473 258.343 55.0587 258.102 55.2555 257.918C55.4613 257.746 55.7037 257.671 55.9826 257.696C56.2616 257.72 56.4824 257.835 56.6452 258.04C56.817 258.256 56.8899 258.513 56.8637 258.812C56.8376 259.111 56.7216 259.346 56.5158 259.519C56.319 259.703 56.0812 259.782 55.8022 259.758C55.5233 259.733 55.2979 259.613 55.1261 259.398C54.9633 259.193 54.895 258.941 54.9211 258.642ZM46.1741 257.079L53.5858 257.727L53.4472 259.311L46.0355 258.663L46.1741 257.079ZM45.6709 262.831L53.3257 260.7L53.1806 262.358L47.0978 263.904L52.8198 266.482L52.676 268.126L45.5062 264.713L45.6709 262.831ZM44.7885 270.851C44.8434 270.223 44.9933 269.715 45.2383 269.324C45.4832 268.934 45.7837 268.654 46.1399 268.485C46.506 268.316 46.8932 268.25 47.3017 268.285C48.0189 268.348 48.5624 268.677 48.932 269.271C49.3016 269.866 49.441 270.681 49.3504 271.717L49.1804 273.659L49.3149 273.671C49.8927 273.722 50.34 273.6 50.6568 273.307C50.9727 273.023 51.1524 272.632 51.196 272.134C51.2344 271.696 51.1583 271.303 50.9679 270.955C50.7866 270.618 50.4898 270.396 50.0775 270.29L50.2161 268.706C50.7497 268.803 51.1923 269.022 51.5438 269.364C51.9044 269.717 52.1634 270.141 52.3208 270.637C52.4873 271.143 52.5453 271.685 52.4948 272.263C52.4041 273.299 52.06 274.077 51.4624 274.597C50.8748 275.118 50.1128 275.337 49.1763 275.255L44.6187 274.856L44.739 273.482L46.0209 273.458C45.6308 273.213 45.3137 272.879 45.0696 272.457C44.8256 272.034 44.7318 271.499 44.7885 270.851ZM46.0461 271.277C46.0087 271.706 46.0769 272.073 46.2509 272.379C46.4339 272.696 46.6878 272.95 47.0126 273.139C47.3365 273.338 47.7009 273.475 48.1058 273.55L48.2601 271.787C48.315 271.16 48.2447 270.702 48.049 270.413C47.8525 270.135 47.5899 269.982 47.2612 269.953C46.9225 269.923 46.6426 270.024 46.4216 270.256C46.2096 270.498 46.0845 270.839 46.0461 271.277ZM44.198 279.665C44.2616 278.938 44.4865 278.376 44.8727 277.978C45.2688 277.581 45.9201 277.422 46.8266 277.501L50.4876 277.822L50.5988 276.551L51.9287 276.668L51.8176 277.938L53.6834 278.297L53.5618 279.687L51.679 279.522L51.496 281.614L50.166 281.498L50.3491 279.406L46.6881 279.085C46.2796 279.05 45.9883 279.109 45.8141 279.265C45.649 279.431 45.5477 279.728 45.5102 280.157L45.4357 281.008L44.0908 280.891L44.198 279.665ZM43.4754 285.86C43.539 285.133 43.755 284.499 44.1235 283.959C44.501 283.43 44.9927 283.032 45.5983 282.763C46.204 282.495 46.8904 282.395 47.6575 282.462C48.4345 282.53 49.1034 282.744 49.6641 283.104C50.224 283.474 50.6439 283.953 50.9238 284.539C51.2029 285.136 51.3097 285.808 51.2444 286.555C51.1808 287.282 50.961 287.9 50.5852 288.409C50.2194 288.92 49.7544 289.3 49.1903 289.552C48.6262 289.804 48.0204 289.902 47.3729 289.845C47.2733 289.836 47.1641 289.822 47.0455 289.801C46.9359 289.792 46.8118 289.776 46.6732 289.754L47.1778 283.986C46.4562 283.973 45.8878 284.159 45.4727 284.544C45.0666 284.94 44.8391 285.417 44.7903 285.975C44.7511 286.423 44.8181 286.806 44.9912 287.122C45.1733 287.449 45.4322 287.703 45.7678 287.883L45.6292 289.467C44.9493 289.206 44.4014 288.757 43.9855 288.118C43.5687 287.489 43.3987 286.737 43.4754 285.86ZM49.9457 286.426C49.9918 285.898 49.8734 285.416 49.5904 284.98C49.3173 284.544 48.8709 284.254 48.2511 284.11L47.885 288.294C48.4655 288.314 48.9416 288.15 49.3134 287.801C49.6852 287.452 49.896 286.994 49.9457 286.426ZM42.7197 294.497C42.7825 293.78 43.0072 293.162 43.3938 292.644C43.7805 292.125 44.2812 291.737 44.896 291.48C45.5107 291.223 46.1917 291.127 46.9388 291.192C47.686 291.257 48.3349 291.47 48.8857 291.829C49.4465 292.189 49.8672 292.658 50.148 293.234C50.4379 293.822 50.5515 294.474 50.4888 295.192C50.4373 295.779 50.2779 296.282 50.0104 296.701C49.7421 297.129 49.3878 297.449 48.9476 297.662L53.4305 298.054L53.2919 299.638L42.533 298.697L42.6572 297.277L43.8222 297.213C43.4944 296.944 43.2144 296.588 42.982 296.146C42.7496 295.704 42.6622 295.154 42.7197 294.497ZM44.0697 294.901C44.0104 295.578 44.1961 296.152 44.6269 296.621C45.0567 297.1 45.6402 297.372 46.3774 297.437C47.1246 297.502 47.7464 297.336 48.243 296.938C48.7487 296.55 49.0312 296.018 49.0905 295.34C49.1497 294.663 48.9644 294.085 48.5346 293.605C48.1147 293.127 47.5312 292.855 46.784 292.79C46.2959 292.747 45.8538 292.809 45.4578 292.975C45.0618 293.141 44.739 293.389 44.4894 293.718C44.2488 294.058 44.1089 294.453 44.0697 294.901Z" fill="white"/>
<path d="M151.935 92.3246L160.304 93.0568L160.033 96.1529C159.974 96.8224 159.814 97.3665 159.553 97.7853C159.291 98.2041 158.956 98.504 158.546 98.685C158.137 98.866 157.689 98.9353 157.203 98.8927C156.741 98.8523 156.324 98.7114 155.951 98.47C155.587 98.2293 155.304 97.8794 155.103 97.4201C154.911 96.9616 154.844 96.3896 154.904 95.7042L155.041 94.1382L151.802 93.8548L151.935 92.3246ZM156.284 94.247L156.156 95.7174C156.109 96.2513 156.191 96.644 156.402 96.8953C156.62 97.1553 156.933 97.3031 157.339 97.3387C157.753 97.3749 158.087 97.2836 158.339 97.0648C158.598 96.8546 158.751 96.4825 158.798 95.9485L158.926 94.4781L156.284 94.247ZM151.303 99.5501L157.233 100.069L157.113 101.432L155.989 101.478C156.353 101.726 156.63 102.044 156.821 102.43C157.02 102.825 157.097 103.273 157.053 103.775L155.439 103.634L155.477 103.204C155.506 102.869 155.48 102.566 155.4 102.294C155.319 102.022 155.158 101.799 154.916 101.625C154.674 101.459 154.325 101.356 153.871 101.317L151.169 101.08L151.303 99.5501ZM157.666 105.714C157.691 105.435 157.795 105.211 157.978 105.043C158.161 104.882 158.38 104.813 158.635 104.835C158.89 104.857 159.089 104.963 159.233 105.152C159.385 105.35 159.448 105.589 159.424 105.868C159.399 106.147 159.296 106.366 159.113 106.527C158.938 106.696 158.722 106.77 158.467 106.748C158.212 106.725 158.009 106.615 157.858 106.417C157.706 106.227 157.642 105.993 157.666 105.714ZM150.883 104.35L156.813 104.868L156.679 106.398L150.75 105.88L150.883 104.35ZM150.61 107.477L156.539 107.996L156.421 109.346L155.609 109.408C155.879 109.624 156.084 109.895 156.224 110.221C156.372 110.555 156.427 110.929 156.391 111.343C156.311 112.26 155.899 112.878 155.156 113.199C155.464 113.443 155.698 113.752 155.858 114.128C156.017 114.511 156.078 114.918 156.04 115.348C155.973 116.121 155.69 116.695 155.191 117.069C154.693 117.443 153.997 117.591 153.105 117.512L149.757 117.22L149.891 115.689L153.095 115.97C153.605 116.014 154.004 115.949 154.293 115.773C154.58 115.606 154.742 115.319 154.778 114.912C154.814 114.498 154.692 114.15 154.411 113.868C154.13 113.595 153.718 113.434 153.176 113.387L150.116 113.119L150.25 111.589L153.454 111.869C153.964 111.914 154.363 111.849 154.651 111.673C154.94 111.498 155.102 111.203 155.138 110.788C155.174 110.382 155.052 110.038 154.771 109.756C154.49 109.483 154.078 109.322 153.536 109.275L150.476 109.007L150.61 107.477ZM149.235 121.541C149.287 120.943 149.461 120.424 149.756 119.984C150.052 119.544 150.442 119.213 150.928 118.991C151.413 118.768 151.958 118.683 152.564 118.736C153.178 118.79 153.712 118.965 154.168 119.262C154.623 119.567 154.963 119.958 155.186 120.435C155.416 120.921 155.504 121.475 155.45 122.097C155.399 122.678 155.227 123.181 154.933 123.605C154.639 124.029 154.258 124.345 153.79 124.553C153.329 124.77 152.828 124.855 152.286 124.807C152.198 124.799 152.107 124.787 152.012 124.771C151.916 124.763 151.817 124.75 151.714 124.733L152.108 120.226C151.643 120.218 151.267 120.345 150.979 120.609C150.69 120.881 150.527 121.224 150.491 121.639C150.464 121.949 150.509 122.214 150.626 122.433C150.751 122.661 150.92 122.837 151.134 122.96L150.998 124.514C150.634 124.369 150.307 124.152 150.02 123.862C149.739 123.581 149.528 123.241 149.386 122.843C149.243 122.453 149.193 122.019 149.235 121.541ZM154.207 121.988C154.24 121.613 154.161 121.273 153.971 120.967C153.789 120.662 153.486 120.451 153.063 120.334L152.804 123.287C153.197 123.297 153.52 123.181 153.774 122.938C154.028 122.695 154.173 122.378 154.207 121.988ZM148.753 128.701L157.121 129.433L156.827 132.793C156.751 133.661 156.49 134.305 156.044 134.724C155.605 135.151 155.071 135.337 154.441 135.282C153.915 135.236 153.505 135.056 153.212 134.741C152.925 134.435 152.744 134.074 152.668 133.657C152.53 134.127 152.257 134.501 151.847 134.778C151.445 135.056 150.993 135.173 150.491 135.129C149.83 135.071 149.305 134.785 148.916 134.269C148.528 133.753 148.372 133.057 148.449 132.18L148.753 128.701ZM153.473 130.656L153.332 132.258C153.295 132.688 153.365 133.028 153.544 133.276C153.723 133.525 153.996 133.665 154.363 133.697C154.714 133.728 154.999 133.636 155.218 133.423C155.445 133.218 155.578 132.888 155.618 132.434L155.756 130.856L153.473 130.656ZM149.862 130.34L149.713 132.05C149.673 132.504 149.746 132.864 149.932 133.129C150.124 133.403 150.412 133.556 150.795 133.59C151.185 133.624 151.503 133.519 151.75 133.276C151.996 133.032 152.138 132.688 152.177 132.241L152.325 130.556L149.862 130.34ZM148.093 136.243L156.461 136.975L156.167 140.334C156.091 141.203 155.83 141.846 155.384 142.265C154.945 142.693 154.411 142.879 153.781 142.824C153.255 142.778 152.845 142.597 152.552 142.282C152.265 141.976 152.084 141.615 152.008 141.199C151.871 141.669 151.597 142.042 151.187 142.32C150.786 142.598 150.334 142.715 149.832 142.671C149.17 142.613 148.645 142.326 148.257 141.81C147.868 141.294 147.712 140.598 147.789 139.722L148.093 136.243ZM152.813 138.198L152.673 139.799C152.635 140.23 152.706 140.569 152.885 140.818C153.064 141.066 153.336 141.207 153.703 141.239C154.054 141.269 154.339 141.178 154.558 140.964C154.785 140.759 154.918 140.43 154.958 139.975L155.096 138.397L152.813 138.198ZM149.203 137.882L149.053 139.591C149.013 140.045 149.086 140.405 149.272 140.67C149.465 140.944 149.752 141.098 150.135 141.131C150.525 141.166 150.844 141.061 151.09 140.817C151.336 140.574 151.479 140.229 151.518 139.783L151.665 138.097L149.203 137.882ZM146.947 147.693C147.02 146.856 147.268 146.139 147.689 145.541C148.11 144.952 148.659 144.506 149.336 144.204C150.02 143.91 150.789 143.801 151.641 143.875C152.494 143.95 153.228 144.191 153.843 144.598C154.465 145.014 154.932 145.549 155.244 146.202C155.556 146.864 155.675 147.613 155.602 148.45C155.529 149.279 155.282 149.992 154.86 150.59C154.439 151.187 153.886 151.633 153.202 151.926C152.525 152.22 151.761 152.33 150.908 152.255C150.111 152.186 149.412 151.968 148.809 151.602C148.215 151.237 147.758 150.763 147.44 150.181L145.19 151.936L145.357 150.035L146.978 148.852C146.922 148.478 146.912 148.091 146.947 147.693ZM148.322 147.813C148.252 148.61 148.459 149.267 148.944 149.783C149.428 150.307 150.129 150.609 151.045 150.689C151.962 150.77 152.704 150.594 153.272 150.161C153.839 149.737 154.157 149.127 154.227 148.33C154.297 147.533 154.09 146.872 153.605 146.348C153.121 145.824 152.421 145.522 151.504 145.441C150.588 145.361 149.846 145.537 149.278 145.969C148.71 146.402 148.391 147.016 148.322 147.813ZM146.189 158.002L153.326 158.627L153.54 156.188L154.771 156.296L154.209 162.715L152.978 162.608L153.192 160.157L146.056 159.533L146.189 158.002ZM145.742 163.117L154.11 163.849L153.976 165.379L146.804 164.751L146.479 168.457L145.284 168.353L145.742 163.117ZM145.166 169.701L153.534 170.433L153.4 171.963L146.227 171.336L145.903 175.042L144.708 174.937L145.166 169.701ZM144.452 176.899C144.476 176.621 144.584 176.397 144.775 176.229C144.966 176.069 145.185 176 145.432 176.022C145.687 176.044 145.895 176.15 146.055 176.341C146.214 176.54 146.281 176.778 146.257 177.057C146.233 177.336 146.125 177.556 145.934 177.716C145.743 177.884 145.52 177.957 145.265 177.934C145.018 177.913 144.814 177.803 144.655 177.604C144.495 177.413 144.427 177.178 144.452 176.899ZM143.614 185.782C143.688 184.938 143.931 184.228 144.343 183.654C144.762 183.08 145.309 182.658 145.983 182.388C146.665 182.118 147.433 182.021 148.286 182.096C149.138 182.17 149.877 182.399 150.502 182.783C151.127 183.167 151.596 183.678 151.91 184.316C152.223 184.954 152.343 185.695 152.269 186.54C152.182 187.544 151.859 188.343 151.301 188.936C150.75 189.539 150.018 189.88 149.103 189.961L149.251 188.275C149.714 188.211 150.088 188.019 150.373 187.699C150.665 187.387 150.836 186.952 150.885 186.394C150.952 185.621 150.742 184.993 150.255 184.508C149.767 184.024 149.065 183.742 148.149 183.662C147.232 183.581 146.492 183.737 145.927 184.13C145.371 184.523 145.059 185.106 144.991 185.879C144.942 186.437 145.023 186.893 145.233 187.249C145.45 187.613 145.769 187.866 146.19 188.007L146.043 189.693C145.196 189.458 144.558 188.997 144.128 188.309C143.698 187.629 143.527 186.787 143.614 185.782ZM142.929 193.616C142.979 193.042 143.156 192.536 143.46 192.097C143.762 191.665 144.157 191.335 144.643 191.104C145.136 190.882 145.689 190.798 146.303 190.852C146.917 190.905 147.443 191.088 147.881 191.399C148.328 191.711 148.662 192.106 148.886 192.583C149.108 193.069 149.194 193.598 149.144 194.172C149.095 194.738 148.919 195.236 148.616 195.668C148.312 196.107 147.914 196.437 147.421 196.659C146.935 196.89 146.385 196.978 145.772 196.925C145.158 196.871 144.628 196.688 144.181 196.376C143.742 196.072 143.411 195.678 143.189 195.193C142.966 194.708 142.88 194.182 142.929 193.616ZM144.256 193.732C144.221 194.131 144.338 194.49 144.607 194.811C144.884 195.132 145.318 195.319 145.908 195.37C146.497 195.422 146.952 195.313 147.273 195.044C147.602 194.776 147.783 194.446 147.817 194.056C147.853 193.649 147.732 193.286 147.455 192.964C147.185 192.652 146.756 192.469 146.166 192.418C145.576 192.366 145.117 192.471 144.789 192.731C144.469 193 144.291 193.334 144.256 193.732ZM142.295 200.866C142.345 200.292 142.522 199.786 142.825 199.346C143.128 198.915 143.522 198.584 144.008 198.354C144.501 198.132 145.055 198.048 145.669 198.101C146.282 198.155 146.808 198.338 147.247 198.649C147.693 198.961 148.028 199.356 148.251 199.833C148.474 200.318 148.56 200.848 148.51 201.422C148.461 201.988 148.284 202.486 147.982 202.917C147.678 203.357 147.28 203.687 146.787 203.909C146.301 204.139 145.751 204.228 145.137 204.174C144.524 204.121 143.994 203.938 143.547 203.626C143.108 203.322 142.777 202.928 142.554 202.443C142.332 201.957 142.245 201.432 142.295 200.866ZM143.622 200.982C143.587 201.38 143.704 201.74 143.973 202.061C144.25 202.382 144.683 202.569 145.273 202.62C145.863 202.672 146.318 202.563 146.639 202.294C146.968 202.026 147.149 201.696 147.183 201.306C147.219 200.899 147.098 200.535 146.821 200.214C146.551 199.901 146.121 199.719 145.532 199.667C144.942 199.616 144.483 199.72 144.155 199.981C143.834 200.25 143.657 200.583 143.622 200.982Z" fill="#737373"/>
<path d="M130.981 90.8838L142.836 91.921L142.679 93.7161L133.234 98.8796L142.159 99.6604L142.002 101.456L130.147 100.418L130.304 98.6233L139.749 93.4598L130.824 92.679L130.981 90.8838ZM129.49 105.584C129.552 104.873 129.722 104.296 130 103.854C130.277 103.412 130.618 103.095 131.022 102.902C131.437 102.711 131.875 102.636 132.338 102.676C133.151 102.747 133.767 103.12 134.186 103.794C134.605 104.467 134.763 105.391 134.66 106.566L134.468 108.767L134.62 108.78C135.275 108.838 135.782 108.7 136.141 108.367C136.499 108.046 136.703 107.603 136.752 107.039C136.795 106.542 136.709 106.096 136.493 105.702C136.288 105.32 135.952 105.069 135.484 104.948L135.641 103.153C136.246 103.263 136.748 103.511 137.146 103.899C137.555 104.299 137.848 104.78 138.027 105.341C138.215 105.915 138.281 106.53 138.224 107.184C138.121 108.359 137.731 109.24 137.054 109.83C136.388 110.42 135.524 110.668 134.463 110.576L129.298 110.124L129.434 108.566L130.887 108.539C130.445 108.262 130.085 107.883 129.809 107.404C129.532 106.925 129.426 106.318 129.49 105.584ZM130.915 106.067C130.873 106.553 130.95 106.969 131.147 107.316C131.355 107.676 131.643 107.963 132.011 108.177C132.378 108.402 132.791 108.558 133.25 108.643L133.425 106.645C133.487 105.934 133.407 105.415 133.185 105.088C132.963 104.773 132.665 104.599 132.292 104.567C131.909 104.533 131.591 104.647 131.341 104.91C131.101 105.185 130.959 105.57 130.915 106.067ZM129.115 112.217L137.515 112.952L137.375 114.544L136.176 114.592C136.582 114.901 136.889 115.286 137.099 115.748C137.308 116.221 137.387 116.752 137.335 117.339C137.219 118.671 136.613 119.551 135.517 119.978C135.976 120.326 136.325 120.766 136.562 121.298C136.799 121.843 136.891 122.414 136.839 123.012C136.747 124.062 136.359 124.859 135.674 125.402C134.99 125.945 134.021 126.161 132.768 126.052L127.941 125.63L128.098 123.834L132.738 124.24C134.364 124.383 135.231 123.833 135.34 122.591C135.395 121.959 135.204 121.419 134.765 120.971C134.326 120.534 133.665 120.277 132.785 120.2L128.449 119.821L128.606 118.026L133.247 118.432C134.872 118.574 135.74 118.018 135.85 116.765C135.904 116.144 135.712 115.61 135.273 115.162C134.834 114.725 134.174 114.468 133.293 114.391L128.958 114.012L129.115 112.217ZM127.21 131.641C127.283 130.817 127.527 130.099 127.945 129.487C128.373 128.887 128.93 128.435 129.616 128.131C130.303 127.827 131.081 127.713 131.95 127.789C132.831 127.866 133.589 128.109 134.224 128.517C134.859 128.937 135.335 129.479 135.652 130.144C135.968 130.82 136.089 131.582 136.015 132.428C135.943 133.253 135.694 133.953 135.268 134.53C134.854 135.108 134.327 135.54 133.687 135.825C133.048 136.111 132.361 136.221 131.628 136.157C131.515 136.147 131.391 136.131 131.257 136.108C131.132 136.097 130.992 136.079 130.835 136.054L131.407 129.517C130.589 129.502 129.945 129.713 129.474 130.15C129.014 130.599 128.756 131.139 128.701 131.771C128.656 132.279 128.732 132.713 128.928 133.071C129.135 133.442 129.428 133.729 129.809 133.933L129.651 135.728C128.881 135.433 128.26 134.924 127.789 134.2C127.316 133.488 127.123 132.635 127.21 131.641ZM134.543 132.283C134.596 131.684 134.462 131.138 134.141 130.643C133.831 130.15 133.325 129.821 132.623 129.657L132.208 134.399C132.866 134.422 133.405 134.236 133.827 133.841C134.248 133.446 134.487 132.926 134.543 132.283ZM125.972 145.798C126.042 144.996 126.286 144.289 126.703 143.678C127.131 143.078 127.689 142.62 128.376 142.305C129.075 141.991 129.865 141.872 130.745 141.949C131.626 142.026 132.378 142.28 133 142.71C133.632 143.152 134.101 143.71 134.406 144.386C134.722 145.062 134.846 145.795 134.777 146.585C134.707 147.387 134.458 148.087 134.03 148.687C133.612 149.299 133.054 149.762 132.355 150.076C131.667 150.403 130.882 150.528 130.002 150.451C129.121 150.374 128.364 150.114 127.732 149.672C127.11 149.242 126.64 148.689 126.324 148.013C126.019 147.338 125.902 146.599 125.972 145.798ZM127.513 145.933C127.475 146.362 127.548 146.766 127.731 147.146C127.913 147.538 128.203 147.865 128.601 148.127C129.01 148.39 129.531 148.55 130.163 148.605C130.795 148.66 131.33 148.593 131.768 148.404C132.216 148.227 132.563 147.962 132.81 147.608C133.056 147.265 133.198 146.879 133.236 146.45C133.273 146.021 133.201 145.611 133.019 145.22C132.836 144.84 132.54 144.518 132.131 144.255C131.733 143.992 131.218 143.834 130.585 143.778C129.953 143.723 129.413 143.789 128.964 143.978C128.526 144.167 128.185 144.433 127.938 144.775C127.692 145.118 127.55 145.504 127.513 145.933ZM125.595 152.448L132.487 153.051L132.593 151.849L134.1 151.981L133.995 153.183L135.214 153.29C136.129 153.37 136.764 153.653 137.119 154.139C137.485 154.637 137.632 155.304 137.559 156.14L137.482 157.02L135.957 156.887L136.011 156.277C136.045 155.882 135.985 155.593 135.831 155.408C135.687 155.225 135.424 155.117 135.04 155.083L133.838 154.978L133.669 156.909L132.162 156.777L132.33 154.846L125.438 154.243L125.595 152.448ZM124.195 166.108C124.267 165.284 124.518 164.561 124.948 163.939C125.377 163.328 125.935 162.865 126.622 162.549C127.32 162.246 128.104 162.133 128.973 162.209C129.842 162.285 130.589 162.532 131.212 162.951C131.845 163.382 132.32 163.935 132.637 164.611C132.952 165.299 133.073 166.054 133.001 166.879C132.91 167.917 132.563 168.763 131.96 169.416C131.356 170.079 130.582 170.472 129.639 170.595L129.803 168.715C130.276 168.642 130.659 168.426 130.952 168.065C131.245 167.703 131.415 167.263 131.46 166.744C131.499 166.304 131.421 165.887 131.228 165.495C131.046 165.104 130.751 164.776 130.341 164.513C129.943 164.25 129.434 164.092 128.813 164.038C128.192 163.983 127.657 164.05 127.208 164.239C126.771 164.428 126.423 164.699 126.164 165.052C125.906 165.405 125.758 165.801 125.719 166.242C125.674 166.761 125.764 167.224 125.99 167.63C126.216 168.037 126.561 168.318 127.026 168.472L126.861 170.352C125.975 170.081 125.286 169.565 124.795 168.806C124.304 168.046 124.104 167.147 124.195 166.108ZM123.333 175.964C123.403 175.162 123.647 174.456 124.064 173.844C124.492 173.244 125.05 172.786 125.737 172.471C126.436 172.157 127.226 172.038 128.106 172.115C128.987 172.192 129.738 172.446 130.361 172.876C130.993 173.318 131.462 173.876 131.767 174.552C132.083 175.228 132.207 175.961 132.138 176.751C132.067 177.553 131.818 178.254 131.391 178.853C130.973 179.465 130.415 179.928 129.716 180.243C129.028 180.569 128.243 180.694 127.362 180.617C126.482 180.54 125.725 180.28 125.093 179.838C124.47 179.408 124.001 178.855 123.685 178.179C123.38 177.504 123.263 176.765 123.333 175.964ZM124.874 176.099C124.836 176.528 124.909 176.932 125.092 177.312C125.274 177.704 125.564 178.031 125.962 178.293C126.371 178.556 126.892 178.716 127.524 178.771C128.156 178.826 128.691 178.759 129.129 178.57C129.576 178.393 129.924 178.128 130.171 177.774C130.417 177.431 130.559 177.045 130.596 176.616C130.634 176.187 130.562 175.777 130.38 175.386C130.197 175.006 129.901 174.684 129.492 174.421C129.094 174.158 128.578 174 127.946 173.944C127.314 173.889 126.773 173.955 126.325 174.144C125.887 174.333 125.545 174.599 125.299 174.941C125.053 175.284 124.911 175.67 124.874 176.099ZM122.518 185.272C122.607 184.256 122.993 183.482 123.677 182.95C124.36 182.43 125.328 182.224 126.581 182.334L131.407 182.756L131.25 184.551L126.61 184.145C124.984 184.003 124.113 184.598 123.997 185.93C123.938 186.597 124.127 187.165 124.564 187.635C125.001 188.106 125.659 188.38 126.54 188.457L130.875 188.836L130.718 190.631L122.319 189.896L122.458 188.304L123.943 188.298C123.446 187.993 123.068 187.573 122.807 187.038C122.557 186.516 122.461 185.927 122.518 185.272ZM118.393 191.854L130.519 192.915L130.378 194.524L129.058 194.596C129.429 194.901 129.746 195.305 130.01 195.805C130.273 196.306 130.372 196.929 130.307 197.674C130.236 198.487 129.981 199.187 129.543 199.775C129.105 200.362 128.537 200.802 127.841 201.094C127.143 201.397 126.371 201.511 125.524 201.437C124.677 201.363 123.936 201.116 123.302 200.696C122.678 200.289 122.201 199.758 121.871 199.104C121.553 198.45 121.43 197.711 121.502 196.887C121.559 196.232 121.74 195.662 122.044 195.177C122.347 194.703 122.749 194.34 123.249 194.088L118.236 193.649L118.393 191.854ZM123.087 196.719C123.02 197.486 123.224 198.141 123.7 198.683C124.187 199.227 124.854 199.535 125.701 199.609C126.254 199.658 126.755 199.588 127.204 199.4C127.653 199.211 128.013 198.93 128.285 198.556C128.567 198.182 128.732 197.736 128.777 197.216C128.844 196.449 128.634 195.793 128.147 195.25C127.659 194.718 126.997 194.416 126.162 194.342C125.315 194.268 124.605 194.451 124.032 194.89C123.469 195.341 123.154 195.951 123.087 196.719ZM120.624 206.924C120.694 206.122 120.938 205.415 121.356 204.803C121.783 204.204 122.341 203.746 123.029 203.431C123.727 203.117 124.517 202.998 125.398 203.075C126.278 203.152 127.03 203.406 127.652 203.836C128.284 204.278 128.753 204.836 129.058 205.511C129.374 206.188 129.498 206.921 129.429 207.711C129.359 208.513 129.11 209.213 128.682 209.813C128.264 210.425 127.706 210.888 127.007 211.202C126.319 211.529 125.534 211.654 124.654 211.577C123.773 211.5 123.017 211.24 122.384 210.798C121.762 210.368 121.293 209.815 120.976 209.139C120.671 208.464 120.554 207.725 120.624 206.924ZM122.165 207.059C122.128 207.488 122.2 207.892 122.383 208.272C122.565 208.664 122.855 208.99 123.253 209.253C123.662 209.516 124.183 209.675 124.815 209.731C125.448 209.786 125.982 209.719 126.42 209.53C126.868 209.353 127.215 209.087 127.462 208.734C127.708 208.391 127.85 208.005 127.888 207.576C127.925 207.147 127.853 206.737 127.671 206.346C127.488 205.966 127.192 205.644 126.783 205.381C126.385 205.118 125.87 204.959 125.238 204.904C124.605 204.849 124.065 204.915 123.616 205.104C123.179 205.293 122.837 205.559 122.591 205.901C122.345 206.244 122.203 206.63 122.165 207.059ZM120.284 213.151L128.684 213.885L128.545 215.477L127.059 215.484C127.556 215.789 127.929 216.203 128.18 216.725C128.44 217.26 128.541 217.855 128.484 218.51C128.395 219.526 128.009 220.294 127.327 220.815C126.643 221.346 125.675 221.557 124.422 221.448L119.595 221.025L119.751 219.247L124.391 219.653C126.017 219.795 126.888 219.2 127.004 217.868C127.063 217.202 126.874 216.628 126.438 216.146C126.002 215.676 125.343 215.402 124.462 215.325L120.127 214.946L120.284 213.151Z" fill="#222222"/>
<rect x="117.14" y="88.4614" width="82" height="24" rx="8" transform="rotate(95 117.14 88.4614)" fill="#F5F5F8"/>
<path d="M97.6004 105.271L106.983 106.091L106.696 104.104L108.355 104.249L109.375 107.222L109.258 108.56L97.4033 107.523L97.6004 105.271ZM97.2274 109.534L98.8024 109.671C99.3375 110.446 99.869 111.198 100.397 111.927C100.924 112.667 101.452 113.328 101.981 113.909C102.51 114.501 103.031 114.979 103.545 115.342C104.07 115.718 104.592 115.929 105.111 115.974C105.597 116.017 106.037 115.919 106.434 115.68C106.829 115.453 107.053 115.035 107.107 114.425C107.161 113.804 106.999 113.318 106.62 112.966C106.241 112.615 105.764 112.414 105.188 112.363L105.372 110.263C106.239 110.362 106.945 110.617 107.489 111.029C108.045 111.441 108.437 111.959 108.667 112.582C108.908 113.206 108.996 113.891 108.931 114.636C108.826 115.844 108.41 116.752 107.686 117.36C106.972 117.98 106.09 118.244 105.04 118.152C104.385 118.095 103.761 117.887 103.166 117.528C102.571 117.18 102.007 116.738 101.473 116.202C100.94 115.666 100.444 115.094 99.9854 114.485C99.538 113.877 99.123 113.289 98.7404 112.721L98.2914 117.852L96.5132 117.696L97.2274 109.534ZM95.7345 124.256C95.8303 123.161 96.1664 122.246 96.7426 121.512C97.3301 120.778 98.0998 120.237 99.0519 119.888C100.014 119.551 101.105 119.436 102.324 119.543C103.532 119.649 104.581 119.951 105.47 120.449C106.359 120.959 107.023 121.626 107.463 122.45C107.914 123.274 108.092 124.234 107.996 125.329C107.9 126.424 107.558 127.339 106.971 128.072C106.394 128.807 105.625 129.342 104.663 129.679C103.7 130.027 102.614 130.148 101.406 130.043C100.186 129.936 99.1327 129.628 98.2444 129.118C97.3664 128.62 96.7019 127.959 96.2507 127.134C95.8108 126.311 95.6387 125.352 95.7345 124.256ZM97.6821 124.427C97.6041 125.319 97.9129 126.08 98.6087 126.709C99.3045 127.339 100.302 127.711 101.6 127.824C102.898 127.938 103.945 127.745 104.739 127.246C105.534 126.746 105.97 126.051 106.048 125.159C106.127 124.256 105.819 123.489 105.123 122.859C104.426 122.241 103.429 121.875 102.13 121.761C100.832 121.648 99.786 121.835 98.9924 122.323C98.1979 122.822 97.7611 123.524 97.6821 124.427Z" fill="#222222"/>
<g filter="url(#filter1_d_3598_65996)">
<path d="M99.4332 153.164C94.4816 152.731 90.8187 148.366 91.2519 143.414C91.6851 138.462 96.0504 134.799 101.002 135.233C105.954 135.666 109.617 140.031 109.183 144.983C108.75 149.934 104.385 153.597 99.4332 153.164Z" fill="url(#paint2_radial_3598_65996)"/>
<path d="M99.4332 153.164C94.4816 152.731 90.8187 148.366 91.2519 143.414C91.6851 138.462 96.0504 134.799 101.002 135.233C105.954 135.666 109.617 140.031 109.183 144.983C108.75 149.934 104.385 153.597 99.4332 153.164Z" fill="url(#paint3_radial_3598_65996)"/>
<path d="M99.4332 153.164C94.4816 152.731 90.8187 148.366 91.2519 143.414C91.6851 138.462 96.0504 134.799 101.002 135.233C105.954 135.666 109.617 140.031 109.183 144.983C108.75 149.934 104.385 153.597 99.4332 153.164Z" fill="url(#paint4_radial_3598_65996)"/>
</g>
<g filter="url(#filter2_d_3598_65996)">
<path fill-rule="evenodd" clip-rule="evenodd" d="M91.4511 143.431C91.0275 148.273 94.609 152.541 99.4506 152.965C104.292 153.389 108.561 149.807 108.984 144.965C109.408 140.124 105.826 135.856 100.985 135.432C96.143 135.008 91.8747 138.59 91.4511 143.431ZM91.2519 143.414C90.8187 148.366 94.4816 152.731 99.4332 153.164C104.385 153.597 108.75 149.934 109.183 144.983C109.617 140.031 105.954 135.666 101.002 135.233C96.0504 134.799 91.6851 138.462 91.2519 143.414Z" fill="#858A89"/>
</g>
<path opacity="0.25" d="M99.453 152.941C99.4422 153.064 99.5334 153.173 99.6569 153.181C100.761 153.25 101.868 153.115 102.924 152.782C104.051 152.427 105.098 151.853 106.003 151.093C106.908 150.333 107.655 149.403 108.201 148.354C108.747 147.306 109.081 146.16 109.184 144.983C109.287 143.806 109.157 142.62 108.801 141.492C108.446 140.365 107.872 139.319 107.112 138.414C106.353 137.508 105.422 136.761 104.374 136.216C103.392 135.704 102.324 135.379 101.225 135.255C101.102 135.241 100.994 135.333 100.983 135.456C100.852 136.074 100.855 136.425 100.992 137.065C100.981 137.189 101.072 137.297 101.195 137.312C102.023 137.411 102.677 137.667 103.417 138.052C104.225 138.472 104.941 139.047 105.526 139.745C106.111 140.442 106.553 141.247 106.827 142.115C107.1 142.983 107.2 143.896 107.121 144.803C107.042 145.709 106.784 146.591 106.364 147.398C105.944 148.205 105.369 148.922 104.672 149.507C103.975 150.092 103.169 150.534 102.302 150.807C101.505 151.058 100.814 151.234 99.9812 151.188C99.8577 151.181 99.749 151.272 99.7382 151.395C99.53 152.045 99.4631 152.386 99.453 152.941Z" fill="white"/>
<circle cx="100.184" cy="144.158" r="6.94606" transform="rotate(95 100.184 144.158)" fill="url(#paint5_linear_3598_65996)"/>
<circle cx="100.183" cy="144.158" r="6.57262" transform="rotate(95 100.183 144.158)" fill="#89A7A3"/>
<g filter="url(#filter3_i_3598_65996)">
<circle cx="100.184" cy="144.158" r="6.34855" transform="rotate(95 100.184 144.158)" fill="url(#paint6_radial_3598_65996)"/>
</g>
<g filter="url(#filter4_ddi_3598_65996)">
<path d="M104.289 144.215C104.527 144.359 104.496 144.714 104.236 144.815L102.124 145.637C102.021 145.678 101.944 145.766 101.919 145.874L101.398 148.08C101.334 148.351 100.987 148.431 100.811 148.216L99.3761 146.461C99.306 146.375 99.1984 146.329 99.0881 146.338L96.8289 146.525C96.5512 146.548 96.3678 146.243 96.5184 146.009L97.7442 144.102C97.804 144.009 97.8142 143.892 97.7715 143.79L96.8954 141.699C96.7878 141.442 97.0215 141.173 97.2909 141.244L99.4834 141.821C99.5903 141.849 99.7043 141.823 99.7881 141.75L101.506 140.271C101.717 140.089 102.045 140.228 102.061 140.507L102.19 142.77C102.196 142.88 102.257 142.981 102.351 143.038L104.289 144.215Z" fill="url(#paint7_radial_3598_65996)"/>
</g>
<path fill-rule="evenodd" clip-rule="evenodd" d="M104.366 144.086C104.711 144.295 104.666 144.809 104.29 144.955L102.178 145.777C102.121 145.799 102.078 145.848 102.064 145.908L101.544 148.114C101.451 148.506 100.949 148.622 100.694 148.31L99.2595 146.555C99.2208 146.508 99.1611 146.483 99.1001 146.488L96.8408 146.675C96.4393 146.708 96.174 146.266 96.3918 145.927L97.6176 144.02C97.6507 143.969 97.6564 143.904 97.6327 143.848L96.7567 141.757C96.601 141.385 96.939 140.996 97.3286 141.099L99.5211 141.675C99.5803 141.691 99.6434 141.676 99.6899 141.636L101.408 140.157C101.713 139.894 102.187 140.096 102.21 140.498L102.339 142.761C102.343 142.822 102.376 142.878 102.429 142.91L104.366 144.086ZM104.182 144.675C104.325 144.619 104.342 144.423 104.211 144.343L102.273 143.166C102.136 143.083 102.049 142.938 102.04 142.778L101.911 140.515C101.902 140.361 101.72 140.284 101.603 140.385L99.8856 141.864C99.7644 141.968 99.5995 142.006 99.4448 141.966L97.2524 141.389C97.1032 141.35 96.9738 141.499 97.0334 141.641L97.9094 143.732C97.9712 143.879 97.9565 144.048 97.87 144.183L96.6442 146.09C96.5608 146.219 96.6624 146.388 96.8161 146.376L99.0753 146.189C99.2348 146.175 99.3905 146.242 99.4918 146.365L100.927 148.12C101.024 148.24 101.216 148.196 101.252 148.045L101.772 145.839C101.809 145.683 101.92 145.556 102.069 145.497L104.182 144.675Z" fill="#858A89"/>
<mask id="mask0_3598_65996" style="mask-type:alpha" maskUnits="userSpaceOnUse" x="95" y="139" width="11" height="11">
<path d="M104.289 144.215C104.527 144.359 104.496 144.714 104.236 144.815L102.124 145.637C102.021 145.678 101.944 145.766 101.919 145.874L101.398 148.08C101.334 148.351 100.987 148.431 100.811 148.216L99.3761 146.461C99.306 146.375 99.1984 146.329 99.0881 146.338L96.8289 146.525C96.5513 146.548 96.3678 146.243 96.5184 146.009L97.7442 144.102C97.804 144.009 97.8142 143.892 97.7715 143.79L96.8954 141.699C96.7878 141.442 97.0215 141.173 97.2909 141.244L99.4834 141.821C99.5903 141.849 99.7043 141.823 99.7881 141.75L101.506 140.271C101.717 140.089 102.045 140.228 102.061 140.507L102.19 142.77C102.196 142.88 102.257 142.981 102.351 143.038L104.289 144.215Z" fill="url(#paint8_radial_3598_65996)" stroke="black" stroke-width="1.5"/>
</mask>
<g mask="url(#mask0_3598_65996)">
<ellipse opacity="0.25" cx="102.561" cy="144.404" rx="4.51867" ry="2.83818" transform="rotate(95 102.561 144.404)" fill="white"/>
</g>
<path d="M71.2312 85.4103L80.2966 86.2034L79.806 91.811L78.9124 91.7328L79.3079 87.2131L76.1479 86.9366L75.7865 91.0678L74.9059 90.9908L75.2673 86.8596L72.0297 86.5763L71.6342 91.096L70.7406 91.0179L71.2312 85.4103ZM70.654 92.008L73.6709 94.5164L77.0775 92.5699L76.9744 93.7484L74.162 95.3163L76.6583 97.3616L76.5563 98.5272L73.5394 96.0187L70.1328 97.9652L70.2348 96.7997L73.0483 95.2189L70.5509 93.1865L70.654 92.008ZM67.184 98.8562L76.4565 99.6674L76.3704 100.652L75.2994 100.662C75.5921 100.897 75.847 101.215 76.0642 101.617C76.2805 102.027 76.3627 102.53 76.3106 103.126C76.2547 103.765 76.0592 104.309 75.7241 104.758C75.389 105.207 74.9554 105.539 74.4234 105.753C73.8906 105.976 73.3004 106.06 72.6529 106.003C72.0054 105.946 71.4386 105.762 70.9526 105.45C70.4745 105.147 70.1099 104.741 69.8586 104.232C69.6153 103.732 69.5215 103.163 69.5774 102.524C69.6235 101.997 69.7726 101.536 70.0247 101.14C70.276 100.754 70.6054 100.469 71.0128 100.287L67.0888 99.944L67.184 98.8562ZM70.533 102.49C70.4952 102.922 70.5613 103.31 70.7312 103.656C70.9097 104.002 71.1719 104.286 71.5179 104.507C71.8639 104.729 72.2787 104.861 72.7621 104.903C73.2456 104.946 73.677 104.888 74.0562 104.73C74.4355 104.571 74.7387 104.337 74.966 104.026C75.2019 103.716 75.3387 103.345 75.3765 102.914C75.4143 102.482 75.3439 102.093 75.1654 101.747C74.9955 101.401 74.7376 101.118 74.3916 100.896C74.0456 100.674 73.6309 100.542 73.1474 100.5C72.6639 100.458 72.2325 100.516 71.8533 100.674C71.4741 100.832 71.1665 101.066 70.9306 101.376C70.7033 101.687 70.5708 102.058 70.533 102.49ZM77.1119 108.585C77.1307 108.369 77.2157 108.193 77.3667 108.059C77.5255 107.933 77.7129 107.88 77.9287 107.899C78.1359 107.917 78.3025 108.001 78.4286 108.152C78.5539 108.311 78.6071 108.498 78.5882 108.714C78.5701 108.921 78.4855 109.092 78.3346 109.227C78.1836 109.361 78.0045 109.42 77.7973 109.401C77.5814 109.383 77.4065 109.293 77.2726 109.134C77.1473 108.975 77.0937 108.792 77.1119 108.585ZM69.3114 107.354L75.7349 107.916L75.6397 109.004L69.2162 108.442L69.3114 107.354ZM69.0505 110.336L75.474 110.898L75.3879 111.882L74.1497 111.865C74.5553 112.101 74.8656 112.432 75.0805 112.86C75.2954 113.288 75.3767 113.8 75.3246 114.395L74.185 114.296L74.211 113.998C74.2443 113.618 74.2058 113.262 74.0956 112.931C73.994 112.6 73.7918 112.325 73.489 112.108C73.1862 111.89 72.7542 111.756 72.193 111.707L68.9554 111.424L69.0505 110.336ZM68.2519 117.675C68.3055 117.062 68.4912 116.53 68.8091 116.079C69.1355 115.629 69.5612 115.288 70.0861 115.056C70.6103 114.832 71.2134 114.75 71.8955 114.809C72.5689 114.868 73.1443 115.054 73.6216 115.365C74.1076 115.677 74.4679 116.083 74.7027 116.582C74.9453 117.09 75.039 117.66 74.9839 118.29C74.9295 118.911 74.7402 119.434 74.416 119.858C74.0997 120.292 73.7022 120.609 73.2235 120.811C72.7447 121.013 72.242 121.091 71.7154 121.044C71.6204 121.036 71.5258 121.024 71.4316 121.007C71.3366 120.998 71.2287 120.989 71.1078 120.978L71.5554 115.863C71.061 115.846 70.6411 115.922 70.2956 116.092C69.958 116.271 69.694 116.505 69.5035 116.792C69.3123 117.089 69.2016 117.41 69.1714 117.755C69.1321 118.204 69.2028 118.589 69.3836 118.909C69.5644 119.229 69.8257 119.474 70.1676 119.643L70.0736 120.718C69.4929 120.493 69.0256 120.117 68.6715 119.591C68.3253 119.073 68.1854 118.435 68.2519 117.675ZM74.0667 118.183C74.112 117.665 73.9927 117.19 73.7087 116.756C73.4327 116.332 72.9951 116.063 72.396 115.949L72.0425 119.99C72.6232 120.015 73.0939 119.856 73.4544 119.513C73.815 119.171 74.0191 118.727 74.0667 118.183ZM67.6442 124.621C67.7114 123.852 67.9616 123.23 68.3947 122.755C68.8277 122.28 69.3805 122.028 70.0528 122L69.9554 123.113C69.6126 123.153 69.3036 123.304 69.0283 123.567C68.7608 123.84 68.6056 124.222 68.5626 124.714C68.5225 125.172 68.588 125.517 68.7591 125.749C68.9388 125.982 69.1624 126.111 69.4301 126.134C69.8186 126.168 70.0901 126.048 70.2445 125.775C70.3982 125.51 70.5491 125.127 70.6973 124.627C70.7966 124.287 70.9261 123.951 71.0858 123.617C71.2455 123.283 71.4521 123.009 71.7056 122.797C71.9678 122.585 72.2931 122.496 72.6816 122.53C73.2428 122.579 73.6822 122.826 74 123.271C74.3256 123.726 74.457 124.312 74.3943 125.028C74.3347 125.711 74.1133 126.252 73.7302 126.654C73.3549 127.065 72.8491 127.277 72.2128 127.291L72.3069 126.216C72.6387 126.202 72.9059 126.081 73.1084 125.856C73.3187 125.639 73.4412 125.332 73.476 124.935C73.51 124.547 73.4544 124.237 73.3092 124.007C73.1633 123.785 72.9565 123.663 72.6889 123.64C72.4299 123.617 72.2153 123.733 72.0451 123.988C71.8742 124.251 71.7165 124.611 71.5721 125.069C71.451 125.458 71.3102 125.824 71.1498 126.167C70.9972 126.519 70.7859 126.796 70.5158 126.999C70.2537 127.211 69.8895 127.296 69.4233 127.256C68.8441 127.214 68.3842 126.952 68.0436 126.469C67.7109 125.997 67.5777 125.38 67.6442 124.621Z" fill="#737373"/>
<path d="M51.9885 87.358L60.1603 88.0729L60.3971 85.3663L61.2907 85.4445L60.7219 91.9456L59.8283 91.8674L60.0651 89.1608L51.8933 88.4458L51.9885 87.358ZM51.2363 94.1658C51.2892 93.5614 51.4749 93.0296 51.7935 92.5703C52.112 92.111 52.5342 91.7608 53.0598 91.5197C53.5934 91.2879 54.2012 91.2019 54.8833 91.2616C55.5653 91.3213 56.1443 91.5155 56.6201 91.8442C57.1046 92.1737 57.4638 92.5922 57.6978 93.0999C57.931 93.6162 58.0212 94.1765 57.9683 94.7809C57.9154 95.3852 57.7297 95.9171 57.4111 96.3764C57.0925 96.8357 56.6665 97.1812 56.1329 97.4129C55.6072 97.654 55.0034 97.7447 54.3213 97.6851C53.6392 97.6254 53.056 97.4308 52.5715 97.1013C52.0957 96.7726 51.7412 96.3501 51.5079 95.8338C51.274 95.3262 51.1834 94.7702 51.2363 94.1658ZM52.1687 94.2474C52.1362 94.6186 52.1967 94.9719 52.35 95.3072C52.5034 95.6425 52.7527 95.9253 53.0979 96.1556C53.4432 96.3859 53.8834 96.5245 54.4187 96.5713C54.954 96.6181 55.4117 96.5581 55.7917 96.3913C56.1709 96.2331 56.4651 96.0022 56.6744 95.6986C56.8836 95.395 57.0041 95.0619 57.0359 94.6993C57.0683 94.328 57.0079 93.9748 56.8545 93.6395C56.7012 93.3041 56.4519 93.0213 56.1066 92.791C55.7614 92.5607 55.3211 92.4222 54.7858 92.3753C54.2505 92.3285 53.7929 92.3885 53.4129 92.5554C53.0329 92.7222 52.7387 92.9531 52.5302 93.2481C52.3209 93.5517 52.2004 93.8848 52.1687 94.2474ZM50.5669 101.817C50.6228 101.178 50.8187 100.63 51.1545 100.172C51.4896 99.7227 51.9235 99.3866 52.4563 99.1635C52.9884 98.9491 53.5782 98.8702 54.2257 98.9268C54.8732 98.9835 55.4357 99.1675 55.913 99.479C56.399 99.7912 56.7636 100.197 57.007 100.697C57.259 101.197 57.3567 101.772 57.3 102.419C57.254 102.946 57.1053 103.402 56.8539 103.789C56.6026 104.176 56.2728 104.465 55.8647 104.655L59.8405 105.003L59.7453 106.091L50.4209 105.275L50.507 104.291L51.578 104.28C51.2854 104.046 51.0308 103.724 50.8144 103.313C50.598 102.903 50.5155 102.404 50.5669 101.817ZM51.5021 102.016C51.4643 102.448 51.5304 102.836 51.7002 103.182C51.878 103.537 52.1402 103.821 52.487 104.034C52.833 104.255 53.2477 104.387 53.7312 104.43C54.2147 104.472 54.6461 104.414 55.0253 104.256C55.4038 104.106 55.707 103.872 55.9351 103.552C56.171 103.242 56.3078 102.872 56.3456 102.44C56.3826 102.017 56.3122 101.628 56.1345 101.273C55.9646 100.928 55.7067 100.644 55.3607 100.422C55.0139 100.209 54.5988 100.082 54.1153 100.039C53.6318 99.9971 53.2008 100.051 52.8224 100.2C52.4431 100.359 52.1356 100.593 51.8997 100.903C51.6716 101.222 51.5391 101.593 51.5021 102.016ZM49.9234 109.172C49.9702 108.637 50.0998 108.2 50.3121 107.862C50.5244 107.524 50.7891 107.282 51.1064 107.135C51.4237 106.989 51.7593 106.931 52.1133 106.962C52.7695 107.02 53.2527 107.314 53.5628 107.846C53.873 108.378 53.9903 109.075 53.9148 109.939L53.763 111.674L53.8407 111.681C54.4018 111.73 54.8377 111.62 55.1483 111.352C55.4676 111.084 55.6487 110.704 55.6918 110.212C55.7288 109.789 55.6529 109.412 55.4643 109.082C55.2835 108.762 54.9936 108.545 54.5947 108.432L54.6921 107.318C55.1545 107.402 55.5338 107.592 55.8298 107.888C56.1251 108.192 56.337 108.554 56.4655 108.974C56.6027 109.395 56.6513 109.834 56.6112 110.292C56.5327 111.19 56.232 111.842 55.7093 112.249C55.1944 112.665 54.5398 112.838 53.7455 112.769L49.7956 112.423L49.8805 111.452L51.0388 111.488C50.6921 111.275 50.4047 110.98 50.1766 110.603C49.9565 110.236 49.8721 109.759 49.9234 109.172ZM50.8282 109.421C50.7919 109.835 50.8689 110.199 51.059 110.511C51.2484 110.832 51.509 111.085 51.8408 111.271C52.1725 111.457 52.5283 111.566 52.9082 111.599L52.9212 111.6L53.0651 109.956C53.121 109.317 53.0484 108.854 52.8473 108.566C52.6541 108.289 52.3935 108.135 52.0654 108.107C51.7287 108.077 51.4462 108.174 51.2178 108.398C50.9973 108.631 50.8675 108.972 50.8282 109.421ZM46.7591 114.315L50.0905 116.212L50.1233 115.836L56.1484 113.793L56.0453 114.971L50.8605 116.658L55.6623 119.349L55.5637 120.475L46.6594 115.455L46.7591 114.315Z" fill="#222222"/>
<path d="M98.0319 46.637L98.703 38.9663L103.371 39.3747L103.305 40.1308L99.5573 39.803L99.3214 42.4987L102.51 42.7777L102.445 43.5228L99.2563 43.2438L98.9523 46.7176L98.0319 46.637ZM102.622 47.0386L106.12 39.6153L107.096 39.7006L109.241 47.6177L108.266 47.5324L107.737 45.4985L104.471 45.2128L103.586 47.123L102.622 47.0386ZM104.81 44.4916L107.528 44.7294L106.501 40.819L104.81 44.4916ZM112.813 48.0627C112.251 48.0135 111.77 47.8684 111.372 47.6274C110.973 47.3865 110.677 47.0734 110.482 46.6883C110.288 46.3033 110.212 45.8696 110.254 45.3875L111.218 45.4718C111.192 45.7714 111.237 46.055 111.353 46.3229C111.47 46.5834 111.654 46.8019 111.903 46.9783C112.161 47.1481 112.487 47.2502 112.881 47.2847C113.4 47.3301 113.813 47.241 114.119 47.0176C114.426 46.7941 114.596 46.4961 114.628 46.1235C114.655 45.8167 114.611 45.5662 114.495 45.3721C114.38 45.1706 114.215 45.0016 113.999 44.8649C113.79 44.7288 113.543 44.6042 113.258 44.4909C112.981 44.3783 112.69 44.2535 112.386 44.1164C111.812 43.8601 111.396 43.5697 111.137 43.2453C110.879 42.9135 110.771 42.5029 110.814 42.0135C110.842 41.6037 110.969 41.2504 111.194 40.9535C111.419 40.6493 111.718 40.4252 112.092 40.2812C112.473 40.1306 112.912 40.0769 113.409 40.1204C113.898 40.1632 114.314 40.2916 114.656 40.5056C115.005 40.7202 115.264 40.9968 115.434 41.3355C115.61 41.6748 115.684 42.0494 115.656 42.4591L114.691 42.3748C114.71 42.1629 114.673 41.9499 114.581 41.7358C114.49 41.5143 114.337 41.3279 114.122 41.1766C113.915 41.026 113.643 40.9359 113.307 40.9065C112.891 40.8628 112.539 40.9387 112.249 41.1342C111.967 41.3303 111.809 41.622 111.775 42.0092C111.746 42.3379 111.815 42.598 111.983 42.7893C112.157 42.9812 112.408 43.1503 112.733 43.2966C113.06 43.4356 113.436 43.5973 113.861 43.7818C114.215 43.9452 114.531 44.1274 114.807 44.3283C115.084 44.5292 115.291 44.7755 115.427 45.0672C115.571 45.3595 115.624 45.7211 115.586 46.1522C115.554 46.5174 115.429 46.8561 115.21 47.1682C114.992 47.4731 114.681 47.7108 114.276 47.8815C113.878 48.0528 113.39 48.1132 112.813 48.0627ZM116.716 48.2717L117.387 40.601L118.308 40.6815L118.012 44.0676L121.989 44.4156L122.286 41.0295L123.206 41.1101L122.535 48.7808L121.615 48.7002L121.923 45.1717L117.946 44.8237L117.637 48.3522L116.716 48.2717ZM124.154 48.9224L124.825 41.2517L125.745 41.3322L125.074 49.0029L124.154 48.9224ZM130.174 49.5816C129.421 49.5158 128.775 49.2935 128.234 48.9149C127.7 48.5297 127.299 48.0235 127.03 47.3963C126.769 46.7698 126.672 46.0657 126.74 45.284C126.809 44.5023 127.026 43.8293 127.392 43.2651C127.766 42.6941 128.249 42.2653 128.84 41.9784C129.44 41.6922 130.116 41.5821 130.868 41.6479C131.628 41.7144 132.274 41.9402 132.807 42.3255C133.348 42.7114 133.749 43.2176 134.011 43.8441C134.273 44.4634 134.37 45.1638 134.301 45.9455C134.233 46.7272 134.016 47.4038 133.649 47.9754C133.283 48.5469 132.8 48.9758 132.2 49.262C131.609 49.5415 130.934 49.6481 130.174 49.5816ZM130.245 48.7707C130.807 48.8199 131.311 48.7388 131.757 48.5275C132.21 48.3095 132.574 47.977 132.849 47.5299C133.131 47.0762 133.302 46.5205 133.359 45.863C133.417 45.2056 133.345 44.6325 133.145 44.1438C132.952 43.6558 132.651 43.2688 132.242 42.9827C131.841 42.6899 131.359 42.519 130.796 42.4697C130.234 42.4205 129.726 42.5049 129.272 42.7229C128.827 42.9342 128.463 43.2631 128.181 43.7096C127.906 44.1566 127.74 44.7089 127.683 45.3664C127.625 46.0239 127.693 46.6003 127.885 47.0956C128.085 47.5843 128.386 47.975 128.787 48.2677C129.196 48.5538 129.682 48.7215 130.245 48.7707ZM135.294 49.897L135.965 42.2263L136.885 42.3068L140.435 48.812L140.973 42.6644L141.893 42.745L141.222 50.4157L140.302 50.3351L136.752 43.83L136.214 49.9775L135.294 49.897Z" fill="#222222"/>
<g clip-path="url(#clip0_3598_65996)">
<path fill-rule="evenodd" clip-rule="evenodd" d="M85.0675 47.7329C88.4908 48.0324 91.5088 45.5001 91.8083 42.0767C92.1078 38.6533 89.5754 35.6354 86.1521 35.3358C82.7287 35.0363 79.7107 37.5687 79.4112 40.9921C79.1117 44.4155 81.6441 47.4334 85.0675 47.7329ZM84.99 48.6184C88.9024 48.9607 92.3515 46.0666 92.6938 42.1542C93.0361 38.2418 90.142 34.7926 86.2296 34.4503C82.3171 34.108 78.868 37.0022 78.5257 40.9146C78.1834 44.827 81.0776 48.2762 84.99 48.6184Z" fill="#222222"/>
<path fill-rule="evenodd" clip-rule="evenodd" d="M88.7812 42.2828C89.0198 42.3746 89.137 42.6336 89.043 42.8614C88.7555 43.5581 88.2444 44.1481 87.5829 44.5468C86.9213 44.9455 86.1434 45.1325 85.3605 45.0809C84.5776 45.0293 83.83 44.7418 83.2248 44.2596C82.6196 43.7774 82.1879 43.1252 81.9915 42.3966C81.9273 42.1584 82.0765 41.917 82.3247 41.8573C82.573 41.7977 82.8263 41.9424 82.8905 42.1806C83.0377 42.727 83.3615 43.2161 83.8154 43.5778C84.2693 43.9394 84.8301 44.1551 85.4172 44.1938C86.0044 44.2325 86.5878 44.0923 87.084 43.7932C87.5801 43.4942 87.9635 43.0517 88.1791 42.5291C88.2731 42.3014 88.5427 42.1911 88.7812 42.2828Z" fill="#222222"/>
<path d="M83.853 40.0423C83.8744 39.7977 84.0988 39.6176 84.3543 39.64C84.6099 39.6623 84.7996 39.8787 84.7783 40.1232L84.7008 41.0087C84.6794 41.2532 84.4549 41.4334 84.1994 41.411C83.9439 41.3886 83.7541 41.1723 83.7755 40.9278L83.853 40.0423Z" fill="#222222"/>
<path d="M86.6288 40.2851C86.6502 40.0406 86.8747 39.8605 87.1302 39.8828C87.3857 39.9052 87.5755 40.1215 87.5541 40.3661L87.4767 41.2516C87.4553 41.4961 87.2308 41.6762 86.9753 41.6539C86.7198 41.6315 86.53 41.4152 86.5514 41.1706L86.6288 40.2851Z" fill="#222222"/>
</g>
<defs>
<filter id="filter0_dd_3598_65996" x="0.0976562" y="0.500977" width="195.085" height="373.257" filterUnits="userSpaceOnUse" color-interpolation-filters="sRGB">
<feFlood flood-opacity="0" result="BackgroundImageFix"/>
<feColorMatrix in="SourceAlpha" type="matrix" values="0 0 0 0 0 0 0 0 0 0 0 0 0 0 0 0 0 0 127 0" result="hardAlpha"/>
<feOffset dy="2"/>
<feGaussianBlur stdDeviation="9"/>
<feColorMatrix type="matrix" values="0 0 0 0 0 0 0 0 0 0 0 0 0 0 0 0 0 0 0.06 0"/>
<feBlend mode="normal" in2="BackgroundImageFix" result="effect1_dropShadow_3598_65996"/>
<feColorMatrix in="SourceAlpha" type="matrix" values="0 0 0 0 0 0 0 0 0 0 0 0 0 0 0 0 0 0 127 0" result="hardAlpha"/>
<feOffset/>
<feGaussianBlur stdDeviation="1"/>
<feColorMatrix type="matrix" values="0 0 0 0 0 0 0 0 0 0 0 0 0 0 0 0 0 0 0.08 0"/>
<feBlend mode="normal" in2="effect1_dropShadow_3598_65996" result="effect2_dropShadow_3598_65996"/>
<feBlend mode="normal" in="SourceGraphic" in2="effect2_dropShadow_3598_65996" result="shape"/>
</filter>
<filter id="filter1_d_3598_65996" x="91.1154" y="135.198" width="18.2038" height="18.6029" filterUnits="userSpaceOnUse" color-interpolation-filters="sRGB">
<feFlood flood-opacity="0" result="BackgroundImageFix"/>
<feColorMatrix in="SourceAlpha" type="matrix" values="0 0 0 0 0 0 0 0 0 0 0 0 0 0 0 0 0 0 127 0" result="hardAlpha"/>
<feOffset dy="0.5"/>
<feGaussianBlur stdDeviation="0.0507146"/>
<feComposite in2="hardAlpha" operator="out"/>
<feColorMatrix type="matrix" values="0 0 0 0 0.679167 0 0 0 0 0.526354 0 0 0 0 0.526354 0 0 0 0.25 0"/>
<feBlend mode="normal" in2="BackgroundImageFix" result="effect1_dropShadow_3598_65996"/>
<feBlend mode="normal" in="SourceGraphic" in2="effect1_dropShadow_3598_65996" result="shape"/>
</filter>
<filter id="filter2_d_3598_65996" x="91.1154" y="135.198" width="18.2038" height="18.6029" filterUnits="userSpaceOnUse" color-interpolation-filters="sRGB">
<feFlood flood-opacity="0" result="BackgroundImageFix"/>
<feColorMatrix in="SourceAlpha" type="matrix" values="0 0 0 0 0 0 0 0 0 0 0 0 0 0 0 0 0 0 127 0" result="hardAlpha"/>
<feOffset dy="0.5"/>
<feGaussianBlur stdDeviation="0.0507146"/>
<feComposite in2="hardAlpha" operator="out"/>
<feColorMatrix type="matrix" values="0 0 0 0 0.679167 0 0 0 0 0.526354 0 0 0 0 0.526354 0 0 0 0.25 0"/>
<feBlend mode="normal" in2="BackgroundImageFix" result="effect1_dropShadow_3598_65996"/>
<feBlend mode="normal" in="SourceGraphic" in2="effect1_dropShadow_3598_65996" result="shape"/>
</filter>
<filter id="filter3_i_3598_65996" x="93.835" y="137.809" width="12.6982" height="12.6978" filterUnits="userSpaceOnUse" color-interpolation-filters="sRGB">
<feFlood flood-opacity="0" result="BackgroundImageFix"/>
<feBlend mode="normal" in="SourceGraphic" in2="BackgroundImageFix" result="shape"/>
<feColorMatrix in="SourceAlpha" type="matrix" values="0 0 0 0 0 0 0 0 0 0 0 0 0 0 0 0 0 0 127 0" result="hardAlpha"/>
<feOffset dy="-0.608575"/>
<feComposite in2="hardAlpha" operator="arithmetic" k2="-1" k3="1"/>
<feColorMatrix type="matrix" values="0 0 0 0 0.776471 0 0 0 0 0.843137 0 0 0 0 0.87451 0 0 0 0.7 0"/>
<feBlend mode="normal" in2="shape" result="effect1_innerShadow_3598_65996"/>
</filter>
<filter id="filter4_ddi_3598_65996" x="95.9639" y="140.189" width="8.98633" height="9.35039" filterUnits="userSpaceOnUse" color-interpolation-filters="sRGB">
<feFlood flood-opacity="0" result="BackgroundImageFix"/>
<feColorMatrix in="SourceAlpha" type="matrix" values="0 0 0 0 0 0 0 0 0 0 0 0 0 0 0 0 0 0 127 0" result="hardAlpha"/>
<feOffset dy="0.7"/>
<feGaussianBlur stdDeviation="0.25"/>
<feComposite in2="hardAlpha" operator="out"/>
<feColorMatrix type="matrix" values="0 0 0 0 0.620087 0 0 0 0 0.789557 0 0 0 0 0.795833 0 0 0 1 0"/>
<feBlend mode="normal" in2="BackgroundImageFix" result="effect1_dropShadow_3598_65996"/>
<feColorMatrix in="SourceAlpha" type="matrix" values="0 0 0 0 0 0 0 0 0 0 0 0 0 0 0 0 0 0 127 0" result="hardAlpha"/>
<feOffset dy="0.29205"/>
<feGaussianBlur stdDeviation="0.101852"/>
<feComposite in2="hardAlpha" operator="out"/>
<feColorMatrix type="matrix" values="0 0 0 0 0.512986 0 0 0 0 0.691667 0 0 0 0 0.691667 0 0 0 1 0"/>
<feBlend mode="normal" in2="effect1_dropShadow_3598_65996" result="effect2_dropShadow_3598_65996"/>
<feBlend mode="normal" in="SourceGraphic" in2="effect2_dropShadow_3598_65996" result="shape"/>
<feColorMatrix in="SourceAlpha" type="matrix" values="0 0 0 0 0 0 0 0 0 0 0 0 0 0 0 0 0 0 127 0" result="hardAlpha"/>
<feOffset dy="0.7"/>
<feGaussianBlur stdDeviation="0.25"/>
<feComposite in2="hardAlpha" operator="arithmetic" k2="-1" k3="1"/>
<feColorMatrix type="matrix" values="0 0 0 0 1 0 0 0 0 1 0 0 0 0 1 0 0 0 1 0"/>
<feBlend mode="normal" in2="shape" result="effect3_innerShadow_3598_65996"/>
</filter>
<linearGradient id="paint0_linear_3598_65996" x1="69.7454" y1="62.2307" x2="74.6965" y2="17.0886" gradientUnits="userSpaceOnUse">
<stop stop-color="#FFBC0D"/>
<stop offset="1" stop-color="#FFA800"/>
</linearGradient>
<linearGradient id="paint1_linear_3598_65996" x1="199.807" y1="233.628" x2="76.3066" y2="205.128" gradientUnits="userSpaceOnUse">
<stop stop-color="#FFBC0D"/>
<stop offset="1" stop-color="#FFA800"/>
</linearGradient>
<radialGradient id="paint2_radial_3598_65996" cx="0" cy="0" r="1" gradientUnits="userSpaceOnUse" gradientTransform="translate(109.154 145.318) rotate(-175.119) scale(18)">
<stop stop-color="#706E64"/>
<stop offset="0.321442" stop-color="#F7C25B"/>
<stop offset="0.53125" stop-color="#F6C05B"/>
<stop offset="0.630208" stop-color="#F2B551"/>
<stop offset="0.708164" stop-color="#F0B14B"/>
<stop offset="1" stop-color="#D4823E"/>
</radialGradient>
<radialGradient id="paint3_radial_3598_65996" cx="0" cy="0" r="1" gradientUnits="userSpaceOnUse" gradientTransform="translate(109.183 144.983) rotate(-175) scale(18)">
<stop stop-color="#FFE100"/>
<stop offset="0.609375" stop-color="#122D02"/>
<stop offset="1" stop-color="#F6B402"/>
</radialGradient>
<radialGradient id="paint4_radial_3598_65996" cx="0" cy="0" r="1" gradientUnits="userSpaceOnUse" gradientTransform="translate(109.183 144.983) rotate(-175) scale(18)">
<stop stop-color="#E0EEEE"/>
<stop offset="0.487207" stop-color="#CEE2E4"/>
<stop offset="1" stop-color="#B8D0D6"/>
</radialGradient>
<linearGradient id="paint5_linear_3598_65996" x1="100.184" y1="137.212" x2="100.184" y2="151.104" gradientUnits="userSpaceOnUse">
<stop stop-color="#BDD8DA"/>
<stop offset="1" stop-color="#E5F3F3"/>
</linearGradient>
<radialGradient id="paint6_radial_3598_65996" cx="0" cy="0" r="1" gradientUnits="userSpaceOnUse" gradientTransform="translate(100.184 137.809) rotate(90) scale(12.6971)">
<stop stop-color="#E0EEEE"/>
<stop offset="0.487207" stop-color="#CEE2E4"/>
<stop offset="1" stop-color="#B8D0D6"/>
</radialGradient>
<radialGradient id="paint7_radial_3598_65996" cx="0" cy="0" r="1" gradientUnits="userSpaceOnUse" gradientTransform="translate(104.449 144.531) rotate(-175) scale(7.81126 8.1786)">
<stop stop-color="#E0EEEE"/>
<stop offset="0.487207" stop-color="#CEE2E4"/>
<stop offset="1" stop-color="#B8D0D6"/>
</radialGradient>
<radialGradient id="paint8_radial_3598_65996" cx="0" cy="0" r="1" gradientUnits="userSpaceOnUse" gradientTransform="translate(104.856 144.743) rotate(-175.119) scale(9.41081)">
<stop stop-color="#FFED82"/>
<stop offset="0.321442" stop-color="#F7C25B"/>
<stop offset="0.53125" stop-color="#F6C05B"/>
<stop offset="0.630208" stop-color="#F2B551"/>
<stop offset="0.708164" stop-color="#F0B14B"/>
<stop offset="1" stop-color="#D4823E"/>
</radialGradient>
<clipPath id="clip0_3598_65996">
<rect width="16" height="16" fill="white" transform="translate(78.3379 32.8677) rotate(5)"/>
</clipPath>
</defs>
</svg>
