<svg width="188" height="381" viewBox="0 0 188 381" fill="none" xmlns="http://www.w3.org/2000/svg">
<g filter="url(#filter0_dd_3598_65997)">
<path fill-rule="evenodd" clip-rule="evenodd" d="M198.127 37.3766C201.391 37.952 203.57 41.0639 202.994 44.3273L148.121 355.527C147.546 358.79 144.434 360.969 141.171 360.394L89.9607 351.364C90.7279 347.013 87.8225 342.863 83.4714 342.096C79.1202 341.329 74.9709 344.234 74.2037 348.585L22.9937 339.556C19.7304 338.98 17.5514 335.868 18.1268 332.605L72.9996 21.4057C73.575 18.1424 76.687 15.9634 79.9504 16.5388L131.16 25.5685C130.393 29.9196 133.298 34.0689 137.65 34.8361C142.001 35.6034 146.15 32.698 146.917 28.3469L198.127 37.3766Z" fill="white"/>
</g>
<path d="M108.648 297.214L111.212 297.666C111.979 299.015 112.743 300.325 113.505 301.596C114.263 302.886 115.035 304.046 115.82 305.075C116.602 306.123 117.388 306.982 118.18 307.652C118.987 308.344 119.813 308.765 120.659 308.914C121.449 309.053 122.187 308.956 122.871 308.621C123.552 308.306 123.98 307.651 124.155 306.659C124.334 305.648 124.137 304.826 123.566 304.195C122.995 303.563 122.241 303.165 121.303 303L121.906 299.581C123.315 299.867 124.437 300.387 125.271 301.14C126.123 301.897 126.693 302.803 126.981 303.859C127.287 304.917 127.333 306.053 127.119 307.266C126.772 309.233 125.961 310.664 124.685 311.557C123.424 312.472 121.939 312.779 120.229 312.477C119.163 312.289 118.168 311.858 117.245 311.183C116.318 310.527 115.455 309.721 114.657 308.765C113.859 307.809 113.127 306.799 112.462 305.734C111.816 304.672 111.219 303.648 110.673 302.661L109.2 311.016L106.304 310.505L108.648 297.214ZM112.415 313.903L115.366 314.423L114.452 319.607L119.222 320.448L118.692 323.454L113.922 322.613L113.012 327.769L110.062 327.249L110.971 322.092L106.201 321.251L106.731 318.245L111.501 319.087L112.415 313.903ZM102.578 331.635L117.855 334.329L117.669 331.026L120.372 331.503L121.618 336.527L121.234 338.706L101.932 335.302L102.578 331.635Z" fill="#222222"/>
<path opacity="0.15" fill-rule="evenodd" clip-rule="evenodd" d="M202.994 44.3273C203.57 41.0639 201.391 37.952 198.127 37.3766L146.917 28.3469C146.15 32.698 142.001 35.6034 137.65 34.8361C133.298 34.0689 130.393 29.9196 131.16 25.5685L79.9504 16.5388C76.687 15.9634 73.575 18.1424 72.9996 21.4057L66.401 58.8284L196.396 81.75L202.994 44.3273Z" fill="url(#paint0_linear_3598_65997)"/>
<rect x="85.0742" y="206.312" width="126" height="36" rx="8" transform="rotate(100 85.0742 206.312)" fill="url(#paint1_linear_3598_65997)"/>
<path d="M57.4072 230.769L67.0757 236.403L66.7735 238.117L55.7663 240.075L56.058 238.421L58.7403 237.98L59.4853 233.755L57.1155 232.423L57.4072 230.769ZM60.648 234.417L60.0593 237.755L65.0659 236.917L60.648 234.417ZM54.7992 244.523C54.9259 243.804 55.2022 243.188 55.6279 242.674C56.0518 242.17 56.5781 241.806 57.2066 241.581C57.8432 241.369 58.5406 241.329 59.2989 241.463C60.0572 241.597 60.6942 241.871 61.2098 242.287C61.7335 242.715 62.1084 243.238 62.3344 243.856C62.5587 244.485 62.6074 245.159 62.4807 245.878C62.3209 246.784 61.9509 247.5 61.3705 248.027C60.7884 248.564 60.0779 248.85 59.2391 248.885L59.5282 247.246C59.9494 247.218 60.3027 247.057 60.5883 246.762C60.8738 246.467 61.0565 246.094 61.1364 245.641C61.2041 245.256 61.1682 244.885 61.0285 244.525C60.8987 244.167 60.664 243.856 60.3245 243.593C59.9949 243.332 59.5592 243.154 59.0176 243.058C58.476 242.963 58.0007 242.981 57.5917 243.112C57.1926 243.244 56.8659 243.456 56.6116 243.746C56.3574 244.036 56.1964 244.373 56.1287 244.758C56.0488 245.211 56.0926 245.624 56.26 245.999C56.4275 246.374 56.7094 246.647 57.1056 246.818L56.8165 248.458C56.0582 248.152 55.4924 247.646 55.1193 246.94C54.7461 246.235 54.6394 245.429 54.7992 244.523ZM53.5485 252.652C53.6753 251.933 53.9484 251.393 54.3677 251.03C54.7969 250.669 55.4596 250.568 56.3558 250.726L59.9749 251.364L60.1963 250.108L61.5111 250.34L61.2897 251.596L63.1171 252.116L62.8748 253.49L61.0136 253.161L60.6489 255.229L59.3342 254.998L59.6988 252.93L56.0797 252.291C55.6759 252.22 55.3805 252.254 55.1934 252.394C55.0144 252.545 54.8876 252.833 54.8129 253.256L54.6644 254.098L53.335 253.864L53.5485 252.652ZM61.5965 257.975C61.6486 257.68 61.7806 257.449 61.9926 257.283C62.2127 257.129 62.4607 257.077 62.7364 257.125C63.0122 257.174 63.2222 257.307 63.3664 257.526C63.5188 257.756 63.569 258.018 63.5169 258.314C63.4648 258.609 63.3287 258.834 63.1086 258.988C62.8966 259.154 62.6527 259.212 62.377 259.164C62.1012 259.115 61.8872 258.976 61.7348 258.746C61.5905 258.528 61.5444 258.271 61.5965 257.975ZM53.019 255.655L60.346 256.947L60.0699 258.513L52.7429 257.221L53.019 255.655ZM52.0164 261.342L59.8278 259.886L59.5387 261.526L53.3443 262.535L58.8198 265.603L58.5333 267.228L51.6882 263.203L52.0164 261.342ZM50.4383 269.255C50.5477 268.634 50.7414 268.14 51.0194 267.773C51.2974 267.406 51.6212 267.153 51.9908 267.015C52.3702 266.879 52.7618 266.847 53.1655 266.918C53.8746 267.043 54.3873 267.418 54.7037 268.042C55.0201 268.666 55.088 269.491 54.9074 270.515L54.5688 272.435L54.7017 272.459C55.2729 272.559 55.7291 272.477 56.0702 272.213C56.4097 271.958 56.6228 271.584 56.7096 271.092C56.786 270.658 56.7445 270.26 56.5852 269.897C56.4339 269.545 56.1576 269.299 55.7561 269.157L56.0322 267.591C56.5553 267.734 56.9771 267.991 57.2975 268.362C57.626 268.745 57.8471 269.19 57.9607 269.698C58.0824 270.217 58.0929 270.762 57.9922 271.333C57.8116 272.357 57.401 273.102 56.7604 273.568C56.1296 274.036 55.3513 274.188 54.4256 274.025L49.9201 273.23L50.1598 271.871L51.4388 271.96C51.0715 271.682 50.7847 271.321 50.5784 270.879C50.3722 270.436 50.3254 269.895 50.4383 269.255ZM51.654 269.789C51.5793 270.212 51.6153 270.584 51.7619 270.905C51.9166 271.237 52.1475 271.511 52.4546 271.727C52.7599 271.954 53.111 272.122 53.5078 272.233L53.8151 270.49C53.9245 269.869 53.8943 269.407 53.7246 269.103C53.5531 268.809 53.3048 268.633 52.9798 268.576C52.645 268.517 52.3574 268.593 52.117 268.804C51.8848 269.027 51.7304 269.356 51.654 269.789ZM49.0818 277.984C49.2086 277.265 49.4817 276.725 49.901 276.362C50.3302 276.001 50.9929 275.899 51.8891 276.057L55.5082 276.696L55.7296 275.44L57.0444 275.672L56.823 276.927L58.6504 277.448L58.4082 278.821L56.5469 278.493L56.1822 280.561L54.8675 280.33L55.2321 278.261L51.613 277.623C51.2092 277.552 50.9138 277.586 50.7267 277.726C50.5477 277.877 50.4209 278.164 50.3462 278.588L50.1977 279.43L48.8683 279.196L49.0818 277.984ZM47.8221 284.092C47.9488 283.373 48.2193 282.761 48.6334 282.255C49.0556 281.761 49.5801 281.407 50.2069 281.192C50.8336 280.978 51.5261 280.938 52.2844 281.071C53.0526 281.207 53.7003 281.478 54.2275 281.886C54.7529 282.304 55.1295 282.817 55.3573 283.426C55.5833 284.044 55.6312 284.723 55.5009 285.462C55.3742 286.18 55.1014 286.777 54.6827 287.252C54.2738 287.728 53.7774 288.067 53.1935 288.268C52.6096 288.47 51.9976 288.515 51.3574 288.402C51.259 288.384 51.1515 288.36 51.0351 288.33C50.9267 288.31 50.8045 288.284 50.6684 288.25L51.6738 282.548C50.956 282.472 50.3736 282.608 49.9264 282.955C49.4874 283.315 49.2192 283.77 49.122 284.321C49.0439 284.765 49.0772 285.151 49.2221 285.481C49.3751 285.823 49.6109 286.098 49.9295 286.307L49.6534 287.873C48.9988 287.554 48.4921 287.059 48.1334 286.386C47.773 285.724 47.6692 284.959 47.8221 284.092ZM54.2184 285.22C54.3104 284.698 54.2345 284.208 53.9905 283.748C53.7564 283.291 53.337 282.963 52.7322 282.765L52.0029 286.901C52.5792 286.972 53.0679 286.85 53.4687 286.535C53.8695 286.22 54.1194 285.781 54.2184 285.22ZM46.3166 292.63C46.4416 291.921 46.7193 291.325 47.1496 290.843C47.58 290.36 48.1126 290.018 48.7474 289.815C49.3823 289.612 50.069 289.576 50.8076 289.706C51.5462 289.836 52.1742 290.104 52.6916 290.51C53.2188 290.918 53.5971 291.421 53.8266 292.02C54.0642 292.631 54.1205 293.29 53.9955 294C53.893 294.581 53.6903 295.068 53.3874 295.461C53.0828 295.864 52.7019 296.153 52.2449 296.326L56.6765 297.107L56.4004 298.673L45.7645 296.798L46.012 295.394L47.1781 295.432C46.8751 295.135 46.6271 294.757 46.4341 294.296C46.2411 293.836 46.202 293.28 46.3166 292.63ZM47.6261 293.151C47.508 293.82 47.6431 294.408 48.0313 294.913C48.4177 295.428 48.9753 295.749 49.7041 295.878C50.4427 296.008 51.0767 295.897 51.6061 295.543C52.1437 295.201 52.4715 294.695 52.5895 294.026C52.7076 293.356 52.5734 292.764 52.187 292.249C51.8104 291.736 51.2528 291.414 50.5142 291.284C50.0316 291.199 49.5858 291.222 49.1769 291.353C48.7679 291.484 48.4247 291.702 48.1473 292.009C47.878 292.327 47.7043 292.707 47.6261 293.151Z" fill="white"/>
<path d="M172.738 100.746L181.01 102.205L180.471 105.266C180.354 105.927 180.147 106.456 179.85 106.85C179.553 107.244 179.193 107.514 178.769 107.659C178.346 107.803 177.894 107.833 177.413 107.748C176.956 107.668 176.553 107.491 176.203 107.218C175.861 106.947 175.61 106.573 175.45 106.098C175.298 105.625 175.281 105.049 175.401 104.372L175.674 102.824L172.471 102.259L172.738 100.746ZM176.903 103.04L176.646 104.494C176.553 105.022 176.601 105.42 176.789 105.689C176.984 105.967 177.282 106.141 177.684 106.212C178.094 106.284 178.433 106.222 178.704 106.026C178.98 105.84 179.165 105.482 179.258 104.954L179.514 103.501L176.903 103.04ZM171.478 107.889L177.34 108.923L177.102 110.27L175.978 110.218C176.319 110.497 176.568 110.838 176.724 111.239C176.888 111.649 176.925 112.103 176.838 112.599L175.243 112.318L175.318 111.893C175.376 111.562 175.377 111.257 175.32 110.979C175.264 110.701 175.122 110.465 174.897 110.271C174.67 110.085 174.332 109.952 173.882 109.873L171.212 109.402L171.478 107.889ZM177.28 114.584C177.329 114.308 177.452 114.094 177.649 113.942C177.845 113.798 178.069 113.748 178.321 113.793C178.573 113.837 178.763 113.96 178.89 114.161C179.023 114.372 179.066 114.615 179.017 114.89C178.969 115.166 178.846 115.376 178.65 115.52C178.461 115.674 178.24 115.728 177.988 115.684C177.736 115.639 177.543 115.512 177.409 115.301C177.274 115.099 177.231 114.86 177.28 114.584ZM170.642 112.634L176.503 113.667L176.237 115.18L170.375 114.146L170.642 112.634ZM170.097 115.725L175.958 116.759L175.723 118.094L174.908 118.085C175.158 118.324 175.339 118.611 175.45 118.948C175.568 119.294 175.591 119.671 175.519 120.081C175.359 120.987 174.895 121.567 174.127 121.822C174.413 122.091 174.619 122.42 174.745 122.808C174.871 123.204 174.896 123.614 174.821 124.04C174.686 124.804 174.354 125.351 173.825 125.68C173.296 126.009 172.59 126.096 171.707 125.94L168.398 125.357L168.665 123.844L171.832 124.402C172.336 124.491 172.74 124.461 173.042 124.311C173.344 124.169 173.53 123.898 173.601 123.496C173.673 123.086 173.581 122.729 173.327 122.424C173.07 122.127 172.674 121.931 172.138 121.837L169.113 121.303L169.38 119.79L172.547 120.349C173.051 120.438 173.455 120.407 173.757 120.258C174.06 120.108 174.247 119.828 174.319 119.419C174.39 119.017 174.298 118.663 174.043 118.359C173.787 118.062 173.391 117.866 172.855 117.771L169.83 117.238L170.097 115.725ZM167.501 129.616C167.605 129.025 167.824 128.523 168.156 128.111C168.489 127.698 168.907 127.402 169.41 127.223C169.912 127.043 170.463 127.007 171.062 127.112C171.669 127.219 172.186 127.44 172.614 127.776C173.041 128.119 173.345 128.538 173.526 129.033C173.713 129.537 173.753 130.097 173.644 130.711C173.543 131.286 173.327 131.772 172.997 132.169C172.667 132.566 172.26 132.847 171.776 133.014C171.298 133.189 170.792 133.23 170.256 133.136C170.169 133.12 170.079 133.1 169.986 133.076C169.892 133.059 169.794 133.038 169.693 133.012L170.478 128.557C170.016 128.508 169.63 128.602 169.32 128.84C169.008 129.085 168.816 129.413 168.744 129.823C168.69 130.13 168.712 130.398 168.81 130.626C168.914 130.864 169.067 131.054 169.27 131.195L168.999 132.731C168.648 132.556 168.342 132.311 168.081 131.997C167.826 131.692 167.645 131.335 167.538 130.926C167.43 130.525 167.418 130.089 167.501 129.616ZM172.415 130.494C172.481 130.124 172.432 129.778 172.269 129.457C172.114 129.138 171.831 128.901 171.42 128.747L170.905 131.666C171.295 131.71 171.627 131.623 171.902 131.403C172.176 131.183 172.347 130.881 172.415 130.494ZM166.397 136.707L174.669 138.166L174.084 141.486C173.932 142.345 173.616 142.964 173.135 143.342C172.661 143.729 172.112 143.868 171.49 143.759C170.97 143.667 170.577 143.451 170.312 143.112C170.054 142.782 169.905 142.407 169.865 141.985C169.687 142.442 169.382 142.79 168.95 143.03C168.525 143.272 168.065 143.35 167.569 143.262C166.915 143.147 166.417 142.815 166.075 142.268C165.732 141.72 165.638 141.013 165.791 140.146L166.397 136.707ZM170.928 139.066L170.649 140.649C170.574 141.075 170.615 141.419 170.772 141.682C170.928 141.945 171.188 142.109 171.55 142.173C171.897 142.234 172.189 142.168 172.426 141.974C172.67 141.79 172.831 141.473 172.91 141.024L173.185 139.464L170.928 139.066ZM167.359 138.436L167.061 140.126C166.982 140.575 167.023 140.94 167.185 141.221C167.353 141.51 167.627 141.688 168.005 141.755C168.391 141.823 168.717 141.747 168.984 141.525C169.25 141.304 169.422 140.973 169.5 140.532L169.794 138.866L167.359 138.436ZM165.082 144.162L173.355 145.621L172.769 148.942C172.618 149.801 172.302 150.419 171.821 150.797C171.346 151.185 170.798 151.324 170.175 151.214C169.655 151.122 169.263 150.907 168.998 150.568C168.739 150.238 168.59 149.862 168.551 149.441C168.373 149.897 168.068 150.245 167.635 150.486C167.211 150.728 166.75 150.805 166.254 150.717C165.6 150.602 165.102 150.271 164.76 149.723C164.418 149.175 164.323 148.468 164.476 147.601L165.082 144.162ZM169.614 146.521L169.334 148.105C169.259 148.53 169.3 148.874 169.457 149.138C169.614 149.401 169.873 149.564 170.236 149.628C170.582 149.689 170.874 149.623 171.111 149.429C171.355 149.245 171.517 148.928 171.596 148.479L171.871 146.919L169.614 146.521ZM166.045 145.892L165.747 147.582C165.668 148.031 165.709 148.395 165.871 148.676C166.039 148.965 166.312 149.144 166.69 149.21C167.076 149.278 167.403 149.202 167.669 148.981C167.935 148.76 168.108 148.428 168.185 147.987L168.479 146.321L166.045 145.892ZM162.943 155.469C163.088 154.642 163.397 153.949 163.87 153.39C164.34 152.84 164.926 152.443 165.627 152.201C166.334 151.969 167.109 151.927 167.952 152.075C168.795 152.224 169.505 152.528 170.082 152.987C170.666 153.455 171.084 154.029 171.338 154.707C171.591 155.394 171.644 156.15 171.499 156.978C171.354 157.797 171.046 158.486 170.574 159.044C170.101 159.603 169.512 159.998 168.805 160.231C168.105 160.465 167.334 160.508 166.491 160.359C165.703 160.22 165.025 159.943 164.457 159.526C163.897 159.11 163.483 158.598 163.217 157.991L160.823 159.543L161.154 157.664L162.873 156.626C162.85 156.249 162.873 155.863 162.943 155.469ZM164.302 155.709C164.163 156.496 164.312 157.169 164.75 157.725C165.187 158.289 165.858 158.652 166.764 158.811C167.67 158.971 168.425 158.86 169.028 158.479C169.63 158.106 170.001 157.526 170.14 156.738C170.278 155.95 170.13 155.274 169.693 154.71C169.256 154.145 168.585 153.783 167.679 153.623C166.773 153.464 166.018 153.574 165.415 153.955C164.812 154.336 164.441 154.921 164.302 155.709ZM161.289 165.673L168.345 166.917L168.77 164.506L169.987 164.721L168.868 171.067L167.651 170.853L168.078 168.43L161.023 167.186L161.289 165.673ZM160.398 170.729L168.67 172.188L168.404 173.7L161.313 172.45L160.667 176.114L159.485 175.905L160.398 170.729ZM159.25 177.238L167.523 178.697L167.256 180.209L160.165 178.959L159.519 182.623L158.338 182.414L159.25 177.238ZM157.912 184.347C157.96 184.071 158.087 183.858 158.292 183.707C158.496 183.565 158.72 183.515 158.965 183.558C159.217 183.602 159.414 183.726 159.557 183.93C159.698 184.142 159.745 184.386 159.696 184.662C159.647 184.937 159.521 185.147 159.317 185.289C159.112 185.44 158.883 185.493 158.631 185.449C158.387 185.406 158.194 185.278 158.053 185.066C157.91 184.863 157.863 184.623 157.912 184.347ZM156.303 193.123C156.45 192.288 156.754 191.602 157.214 191.066C157.682 190.531 158.264 190.159 158.959 189.948C159.662 189.739 160.435 189.709 161.278 189.857C162.121 190.006 162.837 190.299 163.426 190.736C164.015 191.173 164.438 191.722 164.695 192.385C164.952 193.048 165.006 193.797 164.859 194.632C164.684 195.625 164.293 196.392 163.685 196.935C163.084 197.487 162.325 197.763 161.407 197.764L161.701 196.098C162.168 196.074 162.557 195.916 162.869 195.621C163.187 195.336 163.395 194.918 163.492 194.366C163.627 193.602 163.473 192.958 163.029 192.433C162.586 191.908 161.911 191.565 161.005 191.406C160.099 191.246 159.348 191.337 158.751 191.678C158.163 192.021 157.801 192.575 157.666 193.339C157.569 193.891 157.609 194.353 157.787 194.725C157.972 195.107 158.268 195.387 158.675 195.564L158.381 197.23C157.558 196.923 156.963 196.408 156.595 195.685C156.225 194.97 156.128 194.116 156.303 193.123ZM154.938 200.867C155.038 200.3 155.258 199.811 155.598 199.4C155.938 198.997 156.359 198.701 156.863 198.514C157.374 198.336 157.933 198.3 158.539 198.407C159.146 198.514 159.654 198.742 160.064 199.091C160.482 199.44 160.781 199.863 160.962 200.358C161.141 200.86 161.181 201.396 161.081 201.963C160.982 202.522 160.763 203.003 160.424 203.407C160.083 203.818 159.658 204.112 159.147 204.29C158.643 204.478 158.088 204.518 157.481 204.411C156.874 204.304 156.362 204.075 155.945 203.726C155.533 203.385 155.238 202.963 155.059 202.461C154.879 201.958 154.839 201.427 154.938 200.867ZM156.249 201.099C156.18 201.493 156.265 201.861 156.505 202.204C156.753 202.548 157.169 202.772 157.752 202.875C158.335 202.977 158.798 202.909 159.141 202.669C159.491 202.43 159.701 202.117 159.769 201.731C159.84 201.33 159.751 200.957 159.503 200.612C159.262 200.277 158.85 200.058 158.266 199.956C157.683 199.853 157.217 199.917 156.868 200.148C156.525 200.388 156.319 200.705 156.249 201.099ZM153.674 208.034C153.774 207.467 153.994 206.978 154.335 206.567C154.674 206.163 155.096 205.868 155.6 205.681C156.11 205.503 156.669 205.467 157.276 205.574C157.882 205.681 158.391 205.909 158.8 206.257C159.218 206.607 159.517 207.03 159.698 207.524C159.877 208.027 159.917 208.562 159.817 209.13C159.718 209.689 159.499 210.17 159.16 210.573C158.82 210.985 158.394 211.279 157.883 211.457C157.379 211.644 156.824 211.685 156.217 211.578C155.611 211.471 155.098 211.242 154.681 210.892C154.27 210.552 153.974 210.13 153.795 209.627C153.616 209.125 153.575 208.594 153.674 208.034ZM154.986 208.265C154.916 208.659 155.002 209.028 155.242 209.371C155.49 209.715 155.905 209.939 156.488 210.041C157.071 210.144 157.534 210.075 157.877 209.835C158.228 209.597 158.437 209.284 158.505 208.898C158.576 208.496 158.488 208.123 158.24 207.779C157.998 207.444 157.586 207.225 157.003 207.122C156.42 207.02 155.954 207.084 155.604 207.314C155.261 207.555 155.055 207.872 154.986 208.265Z" fill="#737373"/>
<path d="M151.989 97.4847L163.708 99.5511L163.395 101.326L153.536 105.646L162.359 107.202L162.046 108.977L150.327 106.91L150.64 105.136L160.499 100.815L151.676 99.2593L151.989 97.4847ZM149.223 111.999C149.347 111.296 149.566 110.736 149.881 110.32C150.196 109.904 150.563 109.617 150.982 109.461C151.412 109.307 151.856 109.27 152.314 109.351C153.117 109.492 153.698 109.917 154.057 110.625C154.415 111.332 154.492 112.267 154.288 113.427L153.904 115.604L154.055 115.63C154.702 115.744 155.219 115.652 155.606 115.351C155.99 115.063 156.232 114.639 156.33 114.081C156.417 113.59 156.37 113.139 156.189 112.727C156.018 112.328 155.705 112.049 155.25 111.888L155.562 110.113C156.155 110.275 156.633 110.567 156.996 110.988C157.369 111.422 157.619 111.926 157.748 112.501C157.886 113.089 157.898 113.707 157.784 114.355C157.579 115.515 157.114 116.36 156.388 116.888C155.673 117.418 154.791 117.59 153.742 117.405L148.635 116.505L148.907 114.964L150.357 115.065C149.94 114.75 149.615 114.341 149.381 113.84C149.148 113.338 149.095 112.725 149.223 111.999ZM150.6 112.605C150.516 113.085 150.557 113.506 150.723 113.869C150.898 114.245 151.16 114.556 151.508 114.802C151.854 115.058 152.252 115.249 152.701 115.374L153.05 113.399C153.174 112.696 153.14 112.172 152.947 111.827C152.753 111.494 152.471 111.295 152.103 111.23C151.724 111.163 151.398 111.249 151.125 111.489C150.862 111.742 150.687 112.113 150.6 112.605ZM148.271 118.574L156.574 120.038L156.297 121.612L155.098 121.556C155.475 121.898 155.748 122.309 155.917 122.788C156.084 123.277 156.116 123.812 156.014 124.393C155.781 125.71 155.101 126.533 153.973 126.864C154.399 127.25 154.708 127.719 154.898 128.27C155.087 128.833 155.129 129.41 155.025 130.001C154.842 131.039 154.386 131.799 153.656 132.28C152.927 132.762 151.943 132.893 150.704 132.675L145.933 131.833L146.245 130.059L150.833 130.867C152.44 131.151 153.352 130.679 153.568 129.451C153.678 128.826 153.535 128.271 153.137 127.787C152.737 127.313 152.102 127 151.231 126.847L146.945 126.091L147.258 124.316L151.845 125.125C153.452 125.408 154.365 124.931 154.584 123.692C154.692 123.078 154.547 122.529 154.149 122.044C153.749 121.571 153.114 121.258 152.243 121.104L147.958 120.348L148.271 118.574ZM144.681 137.758C144.824 136.943 145.131 136.249 145.6 135.676C146.079 135.116 146.673 134.715 147.383 134.472C148.094 134.229 148.879 134.183 149.738 134.334C150.609 134.488 151.343 134.796 151.94 135.258C152.536 135.731 152.962 136.313 153.221 137.003C153.477 137.704 153.531 138.473 153.383 139.31C153.24 140.125 152.931 140.801 152.456 141.339C151.993 141.878 151.43 142.263 150.768 142.491C150.107 142.72 149.413 142.77 148.687 142.642C148.576 142.622 148.454 142.595 148.322 142.56C148.199 142.539 148.061 142.509 147.906 142.47L149.046 136.008C148.233 135.922 147.572 136.076 147.066 136.47C146.568 136.877 146.264 137.393 146.154 138.018C146.065 138.52 146.103 138.958 146.267 139.333C146.441 139.72 146.708 140.032 147.069 140.268L146.756 142.043C146.014 141.682 145.44 141.12 145.034 140.358C144.625 139.607 144.507 138.74 144.681 137.758ZM151.93 139.036C152.034 138.445 151.948 137.889 151.672 137.368C151.406 136.85 150.931 136.478 150.245 136.254L149.419 140.941C150.072 141.022 150.626 140.884 151.08 140.526C151.534 140.169 151.818 139.673 151.93 139.036ZM142.213 151.753C142.353 150.961 142.657 150.278 143.127 149.705C143.605 149.145 144.2 148.737 144.913 148.483C145.636 148.231 146.433 148.182 147.304 148.335C148.174 148.489 148.901 148.807 149.483 149.289C150.075 149.785 150.493 150.382 150.738 151.081C150.994 151.782 151.053 152.524 150.916 153.305C150.776 154.097 150.467 154.774 149.988 155.334C149.519 155.907 148.923 156.32 148.199 156.572C147.485 156.837 146.692 156.893 145.822 156.74C144.951 156.586 144.22 156.262 143.629 155.766C143.046 155.284 142.627 154.692 142.371 153.991C142.126 153.291 142.073 152.546 142.213 151.753ZM143.736 152.022C143.662 152.446 143.699 152.855 143.848 153.25C143.995 153.656 144.255 154.006 144.629 154.302C145.014 154.6 145.519 154.805 146.144 154.915C146.769 155.025 147.307 155.005 147.76 154.854C148.221 154.717 148.59 154.483 148.867 154.152C149.143 153.832 149.317 153.46 149.392 153.036C149.467 152.612 149.431 152.197 149.284 151.792C149.135 151.397 148.868 151.051 148.483 150.753C148.109 150.457 147.61 150.254 146.985 150.143C146.36 150.033 145.816 150.052 145.352 150.201C144.9 150.351 144.536 150.586 144.261 150.906C143.986 151.226 143.811 151.598 143.736 152.022ZM141.258 158.345L148.072 159.547L148.281 158.358L149.771 158.621L149.562 159.809L150.767 160.022C151.671 160.181 152.279 160.519 152.591 161.034C152.912 161.563 153 162.24 152.854 163.066L152.701 163.936L151.194 163.671L151.3 163.068C151.369 162.677 151.335 162.383 151.197 162.186C151.07 161.991 150.817 161.861 150.437 161.794L149.249 161.584L148.912 163.493L147.422 163.23L147.759 161.321L140.945 160.12L141.258 158.345ZM138.673 171.831C138.816 171.017 139.129 170.318 139.612 169.736C140.092 169.164 140.689 168.752 141.401 168.497C142.122 168.256 142.913 168.212 143.772 168.363C144.632 168.515 145.354 168.826 145.938 169.297C146.532 169.782 146.956 170.375 147.213 171.076C147.467 171.788 147.522 172.552 147.378 173.366C147.197 174.393 146.778 175.205 146.12 175.803C145.46 176.412 144.655 176.736 143.705 176.775L144.032 174.917C144.51 174.886 144.91 174.703 145.234 174.369C145.557 174.035 145.764 173.611 145.855 173.098C145.932 172.662 145.891 172.241 145.733 171.833C145.585 171.428 145.319 171.076 144.935 170.778C144.561 170.482 144.067 170.28 143.454 170.171C142.84 170.063 142.301 170.083 141.838 170.232C141.385 170.382 141.015 170.622 140.727 170.951C140.439 171.28 140.256 171.662 140.179 172.097C140.089 172.61 140.138 173.08 140.328 173.504C140.518 173.929 140.838 174.239 141.287 174.433L140.959 176.291C140.1 175.944 139.458 175.371 139.035 174.571C138.613 173.771 138.492 172.858 138.673 171.831ZM136.955 181.574C137.094 180.782 137.399 180.099 137.868 179.526C138.347 178.966 138.942 178.559 139.654 178.305C140.378 178.052 141.175 178.003 142.046 178.156C142.916 178.31 143.643 178.628 144.225 179.11C144.817 179.606 145.235 180.203 145.48 180.903C145.736 181.604 145.795 182.345 145.657 183.126C145.518 183.919 145.209 184.595 144.73 185.155C144.261 185.728 143.664 186.141 142.941 186.393C142.227 186.658 141.434 186.714 140.564 186.561C139.693 186.407 138.962 186.083 138.37 185.587C137.788 185.105 137.369 184.513 137.113 183.812C136.868 183.113 136.815 182.367 136.955 181.574ZM138.478 181.843C138.403 182.267 138.441 182.676 138.59 183.071C138.737 183.477 138.997 183.828 139.371 184.124C139.755 184.422 140.26 184.626 140.885 184.736C141.51 184.846 142.049 184.826 142.501 184.676C142.963 184.538 143.332 184.304 143.609 183.973C143.884 183.654 144.059 183.282 144.134 182.858C144.209 182.433 144.173 182.018 144.025 181.613C143.876 181.218 143.609 180.872 143.225 180.574C142.851 180.278 142.352 180.075 141.727 179.965C141.102 179.854 140.557 179.873 140.094 180.022C139.642 180.172 139.278 180.407 139.003 180.727C138.728 181.047 138.553 181.419 138.478 181.843ZM135.332 190.776C135.509 189.772 135.962 189.034 136.689 188.564C137.414 188.105 138.396 187.985 139.635 188.203L144.407 189.045L144.094 190.819L139.507 190.01C137.899 189.727 136.98 190.244 136.747 191.561C136.631 192.219 136.77 192.802 137.164 193.309C137.558 193.816 138.19 194.146 139.061 194.299L143.347 195.055L143.034 196.83L134.73 195.365L135.008 193.792L136.488 193.915C136.02 193.567 135.679 193.116 135.466 192.561C135.263 192.018 135.218 191.424 135.332 190.776ZM130.649 196.973L142.636 199.087L142.355 200.678L141.034 200.634C141.377 200.971 141.658 201.4 141.877 201.922C142.096 202.444 142.14 203.074 142.01 203.81C141.869 204.614 141.554 205.289 141.066 205.836C140.578 206.383 139.975 206.771 139.255 207.001C138.534 207.242 137.755 207.289 136.917 207.141C136.08 206.994 135.364 206.683 134.769 206.21C134.182 205.75 133.753 205.18 133.482 204.499C133.222 203.82 133.164 203.073 133.308 202.258C133.422 201.611 133.651 201.059 133.997 200.602C134.34 200.156 134.772 199.829 135.291 199.622L130.336 198.748L130.649 196.973ZM134.901 202.229C134.767 202.988 134.914 203.658 135.34 204.239C135.778 204.823 136.416 205.189 137.253 205.336C137.8 205.433 138.305 205.407 138.769 205.258C139.232 205.11 139.615 204.861 139.919 204.512C140.233 204.164 140.436 203.734 140.526 203.221C140.66 202.462 140.508 201.79 140.07 201.207C139.63 200.634 138.997 200.275 138.171 200.13C137.334 199.982 136.611 200.102 136.002 200.489C135.402 200.89 135.035 201.47 134.901 202.229ZM131.558 212.18C131.698 211.388 132.002 210.705 132.472 210.132C132.95 209.572 133.546 209.165 134.258 208.911C134.981 208.658 135.778 208.609 136.649 208.762C137.519 208.916 138.246 209.234 138.828 209.716C139.42 210.212 139.838 210.809 140.083 211.509C140.339 212.21 140.399 212.951 140.261 213.732C140.121 214.525 139.812 215.201 139.333 215.761C138.864 216.334 138.268 216.747 137.544 216.999C136.83 217.264 136.038 217.32 135.167 217.167C134.296 217.013 133.565 216.689 132.974 216.193C132.391 215.711 131.972 215.119 131.716 214.418C131.471 213.719 131.418 212.973 131.558 212.18ZM133.082 212.449C133.007 212.873 133.044 213.282 133.193 213.677C133.34 214.083 133.6 214.434 133.974 214.73C134.359 215.028 134.864 215.232 135.489 215.342C136.114 215.452 136.652 215.432 137.105 215.282C137.566 215.144 137.936 214.91 138.213 214.579C138.488 214.26 138.662 213.888 138.737 213.464C138.812 213.039 138.776 212.624 138.629 212.219C138.48 211.824 138.213 211.478 137.828 211.18C137.454 210.884 136.955 210.681 136.33 210.571C135.705 210.46 135.161 210.479 134.697 210.628C134.245 210.778 133.881 211.013 133.606 211.333C133.331 211.653 133.156 212.025 133.082 212.449ZM130.677 218.354L138.981 219.818L138.703 221.392L137.223 221.269C137.691 221.616 138.027 222.061 138.23 222.603C138.443 223.159 138.493 223.76 138.378 224.407C138.201 225.412 137.75 226.143 137.025 226.603C136.297 227.073 135.314 227.199 134.075 226.98L129.304 226.139L129.614 224.381L134.201 225.19C135.808 225.473 136.728 224.956 136.96 223.639C137.076 222.981 136.938 222.393 136.546 221.875C136.152 221.368 135.52 221.038 134.65 220.884L130.364 220.128L130.677 218.354Z" fill="#222222"/>
<rect x="138.411" y="93.8647" width="82" height="24" rx="8" transform="rotate(100 138.411 93.8647)" fill="#F5F5F8"/>
<path d="M117.482 108.907L126.757 110.542L126.644 108.537L128.285 108.827L129.041 111.877L128.808 113.2L117.089 111.134L117.482 108.907ZM116.739 113.121L118.295 113.396C118.761 114.215 119.225 115.01 119.687 115.782C120.148 116.565 120.616 117.269 121.093 117.894C121.568 118.53 122.045 119.052 122.526 119.459C123.016 119.879 123.517 120.134 124.031 120.225C124.511 120.309 124.959 120.25 125.374 120.047C125.788 119.855 126.048 119.458 126.154 118.855C126.262 118.242 126.143 117.743 125.796 117.36C125.449 116.976 124.992 116.734 124.422 116.634L124.788 114.558C125.644 114.732 126.325 115.048 126.831 115.505C127.348 115.965 127.694 116.515 127.869 117.155C128.055 117.798 128.083 118.488 127.953 119.224C127.743 120.419 127.25 121.287 126.475 121.829C125.71 122.385 124.808 122.571 123.77 122.388C123.123 122.274 122.519 122.012 121.958 121.603C121.395 121.204 120.872 120.715 120.387 120.134C119.903 119.554 119.458 118.941 119.054 118.294C118.662 117.649 118.3 117.027 117.968 116.428L117.074 121.501L115.316 121.191L116.739 113.121ZM113.968 127.658C114.159 126.575 114.574 125.693 115.212 125.012C115.861 124.332 116.675 123.86 117.654 123.595C118.642 123.344 119.738 123.324 120.944 123.537C122.138 123.747 123.156 124.14 123.999 124.714C124.839 125.3 125.443 126.022 125.809 126.88C126.187 127.741 126.28 128.713 126.089 129.795C125.898 130.878 125.478 131.759 124.829 132.439C124.191 133.12 123.378 133.587 122.39 133.838C121.4 134.101 120.308 134.127 119.114 133.917C117.908 133.704 116.885 133.305 116.045 132.72C115.214 132.147 114.609 131.431 114.231 130.57C113.865 129.711 113.777 128.741 113.968 127.658ZM115.893 127.998C115.738 128.879 115.979 129.664 116.618 130.352C117.256 131.04 118.217 131.497 119.5 131.723C120.784 131.95 121.843 131.849 122.678 131.421C123.513 130.993 124.008 130.338 124.164 129.456C124.321 128.563 124.081 127.773 123.443 127.085C122.802 126.408 121.841 125.956 120.557 125.73C119.274 125.504 118.215 125.599 117.382 126.016C116.547 126.444 116.051 127.105 115.893 127.998Z" fill="#222222"/>
<g filter="url(#filter1_d_3598_65997)">
<path d="M115.133 156.778C110.238 155.915 106.97 151.247 107.833 146.352C108.696 141.457 113.364 138.189 118.259 139.052C123.154 139.915 126.422 144.583 125.559 149.478C124.696 154.373 120.028 157.642 115.133 156.778Z" fill="url(#paint2_radial_3598_65997)"/>
<path d="M115.133 156.778C110.238 155.915 106.97 151.247 107.833 146.352C108.696 141.457 113.364 138.189 118.259 139.052C123.154 139.915 126.422 144.583 125.559 149.478C124.696 154.373 120.028 157.642 115.133 156.778Z" fill="url(#paint3_radial_3598_65997)"/>
<path d="M115.133 156.778C110.238 155.915 106.97 151.247 107.833 146.352C108.696 141.457 113.364 138.189 118.259 139.052C123.154 139.915 126.422 144.583 125.559 149.478C124.696 154.373 120.028 157.642 115.133 156.778Z" fill="url(#paint4_radial_3598_65997)"/>
</g>
<g filter="url(#filter2_d_3598_65997)">
<path fill-rule="evenodd" clip-rule="evenodd" d="M108.03 146.387C107.186 151.173 110.382 155.738 115.168 156.581C119.954 157.425 124.518 154.23 125.362 149.443C126.206 144.657 123.01 140.093 118.224 139.249C113.438 138.405 108.874 141.601 108.03 146.387ZM107.833 146.352C106.97 151.247 110.238 155.915 115.133 156.778C120.028 157.642 124.696 154.373 125.559 149.478C126.422 144.583 123.154 139.915 118.259 139.052C113.364 138.189 108.696 141.457 107.833 146.352Z" fill="#858A89"/>
</g>
<path opacity="0.25" d="M115.172 156.558C115.15 156.679 115.231 156.796 115.354 156.814C116.447 156.979 117.562 156.941 118.643 156.702C119.797 156.446 120.889 155.965 121.858 155.287C122.826 154.609 123.651 153.747 124.286 152.751C124.921 151.754 125.353 150.642 125.559 149.478C125.764 148.314 125.738 147.121 125.482 145.967C125.226 144.813 124.746 143.721 124.068 142.753C123.39 141.785 122.528 140.959 121.531 140.324C120.597 139.73 119.562 139.312 118.478 139.093C118.357 139.069 118.241 139.15 118.219 139.272C118.035 139.877 118.008 140.227 118.088 140.876C118.067 140.998 118.148 141.114 118.269 141.139C119.086 141.311 119.714 141.622 120.419 142.071C121.186 142.56 121.85 143.195 122.372 143.94C122.894 144.686 123.264 145.527 123.461 146.415C123.658 147.304 123.678 148.222 123.52 149.118C123.362 150.014 123.029 150.871 122.54 151.638C122.051 152.406 121.415 153.069 120.67 153.591C119.925 154.113 119.084 154.483 118.195 154.68C117.38 154.861 116.676 154.975 115.851 154.857C115.728 154.84 115.612 154.921 115.59 155.042C115.326 155.672 115.23 156.005 115.172 156.558Z" fill="white"/>
<circle cx="116.665" cy="147.872" r="6.94606" transform="rotate(100 116.665 147.872)" fill="url(#paint5_linear_3598_65997)"/>
<circle cx="116.665" cy="147.872" r="6.57262" transform="rotate(100 116.665 147.872)" fill="#89A7A3"/>
<g filter="url(#filter3_i_3598_65997)">
<circle cx="116.666" cy="147.872" r="6.34855" transform="rotate(100 116.666 147.872)" fill="url(#paint6_radial_3598_65997)"/>
</g>
<g filter="url(#filter4_ddi_3598_65997)">
<path d="M120.751 148.286C120.975 148.451 120.913 148.802 120.646 148.88L118.47 149.515C118.363 149.546 118.279 149.627 118.245 149.732L117.534 151.885C117.447 152.149 117.094 152.199 116.937 151.969L115.661 150.095C115.598 150.004 115.495 149.949 115.384 149.948L113.117 149.938C112.839 149.937 112.683 149.616 112.853 149.396L114.241 147.603C114.308 147.516 114.329 147.401 114.295 147.295L113.604 145.136C113.52 144.871 113.776 144.623 114.038 144.717L116.172 145.483C116.276 145.52 116.392 145.504 116.482 145.439L118.322 144.115C118.548 143.952 118.863 144.12 118.854 144.398L118.786 146.664C118.782 146.775 118.834 146.88 118.923 146.945L120.751 148.286Z" fill="url(#paint7_radial_3598_65997)"/>
</g>
<path fill-rule="evenodd" clip-rule="evenodd" d="M120.839 148.165C121.164 148.403 121.075 148.911 120.688 149.024L118.512 149.659C118.453 149.676 118.406 149.721 118.387 149.779L117.676 151.932C117.55 152.314 117.04 152.386 116.813 152.053L115.537 150.18C115.502 150.129 115.445 150.099 115.384 150.098L113.117 150.088C112.714 150.086 112.488 149.623 112.735 149.304L114.122 147.511C114.159 147.463 114.171 147.399 114.152 147.341L113.462 145.181C113.339 144.798 113.709 144.44 114.089 144.576L116.223 145.341C116.28 145.362 116.344 145.353 116.394 145.317L118.234 143.993C118.561 143.758 119.016 144 119.004 144.402L118.936 146.668C118.934 146.73 118.962 146.788 119.011 146.824L120.839 148.165ZM120.604 148.736C120.752 148.692 120.786 148.498 120.662 148.407L118.834 147.066C118.705 146.971 118.631 146.819 118.636 146.659L118.704 144.393C118.709 144.239 118.535 144.147 118.41 144.237L116.569 145.561C116.439 145.654 116.272 145.677 116.121 145.623L113.987 144.858C113.842 144.806 113.7 144.943 113.747 145.09L114.438 147.249C114.487 147.402 114.457 147.568 114.359 147.695L112.972 149.488C112.878 149.61 112.964 149.787 113.118 149.788L115.385 149.798C115.545 149.799 115.695 149.878 115.785 150.011L117.061 151.884C117.148 152.012 117.343 151.984 117.392 151.838L118.102 149.685C118.152 149.533 118.274 149.415 118.428 149.371L120.604 148.736Z" fill="#858A89"/>
<mask id="mask0_3598_65997" style="mask-type:alpha" maskUnits="userSpaceOnUse" x="112" y="143" width="10" height="10">
<path d="M120.751 148.286C120.975 148.451 120.913 148.802 120.646 148.88L118.47 149.515C118.363 149.546 118.279 149.627 118.245 149.732L117.534 151.885C117.447 152.149 117.094 152.199 116.937 151.969L115.661 150.095C115.598 150.004 115.495 149.949 115.384 149.948L113.117 149.938C112.839 149.937 112.683 149.616 112.853 149.396L114.241 147.603C114.308 147.516 114.329 147.401 114.295 147.295L113.604 145.136C113.52 144.871 113.776 144.623 114.038 144.717L116.172 145.483C116.276 145.52 116.392 145.504 116.482 145.439L118.322 144.115C118.548 143.952 118.863 144.12 118.854 144.398L118.786 146.664C118.782 146.775 118.834 146.88 118.923 146.945L120.751 148.286Z" fill="url(#paint8_radial_3598_65997)" stroke="black" stroke-width="1.5"/>
</mask>
<g mask="url(#mask0_3598_65997)">
<ellipse opacity="0.25" cx="119.013" cy="148.324" rx="4.51867" ry="2.83817" transform="rotate(100 119.013 148.324)" fill="white"/>
</g>
<path d="M92.9435 86.8242L101.905 88.4044L100.928 93.9479L100.044 93.7922L100.832 89.3241L97.7085 88.7733L96.9884 92.8573L96.1178 92.7038L96.8379 88.6198L93.6373 88.0554L92.8494 92.5235L91.9661 92.3677L92.9435 86.8242ZM91.7935 93.3465L94.5802 96.1084L98.1435 94.4662L97.9381 95.6312L94.9998 96.948L97.3083 99.2031L97.1051 100.355L94.3184 97.5935L90.7551 99.2357L90.9582 98.0834L93.8988 96.7539L91.5881 94.5115L91.7935 93.3465ZM87.7398 99.8662L96.9063 101.483L96.7348 102.456L95.6669 102.373C95.9381 102.632 96.1643 102.971 96.3456 103.39C96.5254 103.818 96.5633 104.326 96.4595 104.915C96.3481 105.547 96.106 106.072 95.733 106.49C95.36 106.908 94.8992 107.201 94.3505 107.368C93.8003 107.544 93.2051 107.575 92.565 107.463C91.9249 107.35 91.3763 107.117 90.9194 106.763C90.4695 106.42 90.1416 105.984 89.9357 105.454C89.7369 104.935 89.6931 104.36 89.8045 103.728C89.8963 103.208 90.085 102.761 90.3706 102.389C90.6547 102.026 91.0076 101.771 91.4293 101.626L87.5501 100.942L87.7398 99.8662ZM90.7594 103.778C90.6841 104.205 90.716 104.598 90.8552 104.957C91.0028 105.317 91.2393 105.623 91.5647 105.874C91.89 106.125 92.2917 106.292 92.7697 106.377C93.2476 106.461 93.6824 106.441 94.074 106.316C94.4656 106.192 94.7881 105.984 95.0416 105.695C95.3036 105.407 95.4722 105.049 95.5475 104.622C95.6227 104.196 95.5865 103.802 95.4389 103.442C95.2998 103.083 95.0675 102.778 94.7422 102.527C94.4168 102.276 94.0151 102.108 93.5372 102.024C93.0592 101.939 92.6245 101.96 92.2329 102.084C91.8413 102.209 91.5145 102.415 91.2525 102.703C90.999 102.993 90.8346 103.351 90.7594 103.778ZM96.782 110.423C96.8196 110.21 96.9195 110.042 97.0816 109.921C97.2508 109.81 97.4421 109.774 97.6555 109.811C97.8603 109.847 98.019 109.946 98.1314 110.106C98.2424 110.276 98.2791 110.467 98.2415 110.68C98.2054 110.885 98.1062 111.048 97.9441 111.169C97.7819 111.29 97.5984 111.332 97.3936 111.296C97.1802 111.259 97.0138 111.155 96.8943 110.984C96.7833 110.815 96.7459 110.628 96.782 110.423ZM89.1185 108.517L95.4685 109.637L95.2789 110.712L88.9289 109.593L89.1185 108.517ZM88.5987 111.465L94.9487 112.585L94.7772 113.558L93.5451 113.433C93.9287 113.703 94.2089 114.06 94.3857 114.505C94.5625 114.95 94.599 115.467 94.4951 116.056L93.3685 115.857L93.4204 115.563C93.4866 115.187 93.4793 114.829 93.3984 114.489C93.3261 114.151 93.1486 113.86 92.8659 113.617C92.5832 113.373 92.1645 113.203 91.6097 113.105L88.4091 112.54L88.5987 111.465ZM87.1635 118.706C87.2703 118.1 87.5017 117.587 87.8576 117.165C88.222 116.746 88.6758 116.443 89.219 116.257C89.7607 116.08 90.3687 116.051 91.0429 116.169C91.7087 116.287 92.2657 116.521 92.7141 116.873C93.171 117.227 93.4946 117.662 93.685 118.18C93.8824 118.707 93.9261 119.283 93.8163 119.906C93.7079 120.52 93.4738 121.025 93.1138 121.419C92.761 121.823 92.3373 122.105 91.8428 122.264C91.3483 122.423 90.8407 122.457 90.3201 122.365C90.2262 122.348 90.1331 122.328 90.0407 122.303C89.9468 122.286 89.8401 122.267 89.7206 122.246L90.6123 117.189C90.1213 117.129 89.6963 117.168 89.3374 117.308C88.9855 117.457 88.7021 117.666 88.4873 117.936C88.2709 118.215 88.1326 118.525 88.0724 118.867C87.9942 119.31 88.0311 119.7 88.1833 120.035C88.3355 120.369 88.5745 120.636 88.9003 120.834L88.713 121.897C88.1542 121.622 87.7213 121.207 87.4145 120.651C87.1147 120.106 87.031 119.457 87.1635 118.706ZM92.9118 119.72C93.0021 119.208 92.9247 118.723 92.6796 118.266C92.4416 117.82 92.0291 117.514 91.4422 117.349L90.7379 121.343C91.3143 121.418 91.797 121.301 92.186 120.991C92.575 120.681 92.817 120.258 92.9118 119.72ZM85.9527 125.573C86.0867 124.813 86.3901 124.215 86.8629 123.78C87.3358 123.344 87.9084 123.141 88.5806 123.172L88.3865 124.273C88.0416 124.282 87.7205 124.406 87.4233 124.644C87.1332 124.892 86.9452 125.259 86.8594 125.746C86.7797 126.198 86.8149 126.548 86.965 126.794C87.1237 127.042 87.3353 127.189 87.5999 127.236C87.984 127.304 88.2649 127.208 88.4426 126.949C88.6187 126.698 88.8024 126.33 88.9937 125.845C89.1221 125.516 89.2805 125.191 89.4687 124.873C89.6569 124.554 89.8866 124.299 90.1577 124.11C90.4373 123.921 90.7691 123.861 91.1532 123.929C91.708 124.027 92.1242 124.311 92.4019 124.783C92.6866 125.264 92.7665 125.859 92.6416 126.567C92.5227 127.242 92.255 127.762 91.8383 128.129C91.4287 128.505 90.9063 128.673 90.2713 128.631L90.4586 127.568C90.7905 127.583 91.0671 127.487 91.2885 127.279C91.5169 127.082 91.6657 126.787 91.7349 126.394C91.8026 126.01 91.7742 125.697 91.6497 125.455C91.5236 125.222 91.3283 125.082 91.0637 125.035C90.8077 124.99 90.5838 125.087 90.392 125.326C90.1988 125.573 90.0103 125.919 89.8266 126.361C89.672 126.739 89.4999 127.091 89.3102 127.419C89.1275 127.756 88.8928 128.014 88.6062 128.192C88.3265 128.381 87.9563 128.434 87.4954 128.353C86.922 128.261 86.4867 127.959 86.1895 127.449C85.8992 126.949 85.8203 126.324 85.9527 125.573Z" fill="#737373"/>
<path d="M73.6043 87.0874L81.6826 88.5118L82.1545 85.8361L83.0378 85.9918L81.9046 92.4187L81.0212 92.2629L81.493 89.5872L73.4146 88.1628L73.6043 87.0874ZM72.2616 93.8037C72.3669 93.2062 72.5983 92.6926 72.9557 92.2628C73.3131 91.833 73.7642 91.5209 74.3088 91.3266C74.8606 91.1422 75.4736 91.1095 76.1478 91.2284C76.8221 91.3473 77.3819 91.5912 77.8273 91.9602C78.2812 92.3306 78.6026 92.7789 78.7914 93.305C78.9787 93.8397 79.0197 94.4057 78.9144 95.0032C78.809 95.6006 78.5777 96.1142 78.2203 96.544C77.8629 96.9738 77.4083 97.2809 76.8566 97.4652C76.3119 97.6596 75.7024 97.6973 75.0281 97.5785C74.3539 97.4596 73.7898 97.2149 73.3359 96.8444C72.8905 96.4755 72.5742 96.0237 72.3868 95.4891C72.198 94.9629 72.1562 94.4011 72.2616 93.8037ZM73.1834 93.9662C73.1187 94.3332 73.1481 94.6904 73.2716 95.0378C73.3952 95.3852 73.6189 95.6887 73.9427 95.9482C74.2666 96.2077 74.6931 96.3841 75.2223 96.4774C75.7515 96.5707 76.2126 96.5509 76.6057 96.4178C76.9972 96.2932 77.3105 96.0888 77.5454 95.8046C77.7803 95.5204 77.9294 95.1991 77.9926 94.8406C78.0573 94.4736 78.0279 94.1164 77.9043 93.769C77.7808 93.4216 77.5571 93.1182 77.2332 92.8587C76.9094 92.5991 76.4829 92.4227 75.9537 92.3294C75.4245 92.2361 74.9634 92.256 74.5703 92.3891C74.1772 92.5222 73.864 92.7266 73.6306 93.0022C73.3956 93.2864 73.2466 93.6078 73.1834 93.9662ZM70.9279 101.367C71.0393 100.736 71.2822 100.207 71.6567 99.7798C72.0296 99.3615 72.4912 99.0645 73.0414 98.8887C73.5901 98.7215 74.1846 98.6943 74.8247 98.8072C75.4648 98.92 76.0091 99.1524 76.4574 99.5043C76.9144 99.8576 77.2423 100.294 77.4411 100.813C77.6486 101.334 77.6958 101.914 77.583 102.554C77.4912 103.075 77.3032 103.517 77.0191 103.88C76.735 104.244 76.3813 104.503 75.9581 104.657L79.8885 105.35L79.6989 106.425L70.4811 104.8L70.6526 103.827L71.7205 103.91C71.4494 103.651 71.2239 103.307 71.0441 102.88C70.8643 102.452 70.8256 101.948 70.9279 101.367ZM71.8422 101.647C71.7669 102.074 71.7989 102.467 71.938 102.826C72.0841 103.195 72.3206 103.501 72.6475 103.743C72.9729 103.994 73.3745 104.162 73.8525 104.246C74.3304 104.33 74.7652 104.31 75.1568 104.186C75.5469 104.07 75.8694 103.862 76.1244 103.564C76.3864 103.276 76.5551 102.918 76.6303 102.492C76.7041 102.073 76.6679 101.68 76.5217 101.311C76.3826 100.952 76.1504 100.647 75.825 100.396C75.4981 100.154 75.0957 99.9902 74.6178 99.9059C74.1398 99.8216 73.7058 99.8375 73.3157 99.9535C72.9241 100.078 72.5973 100.284 72.3353 100.573C72.0803 100.871 71.9159 101.229 71.8422 101.647ZM69.6459 108.638C69.7392 108.109 69.9063 107.685 70.1472 107.367C70.3882 107.049 70.673 106.831 71.0019 106.713C71.3307 106.594 71.6701 106.566 72.02 106.628C72.6687 106.742 73.1243 107.078 73.387 107.635C73.6496 108.191 73.7057 108.897 73.5552 109.75L73.2527 111.466L73.3295 111.479C73.8843 111.577 74.3281 111.506 74.6609 111.265C75.0023 111.026 75.2158 110.663 75.3016 110.177C75.3754 109.759 75.3326 109.377 75.1734 109.032C75.0213 108.697 74.7514 108.456 74.3638 108.309L74.5579 107.208C75.0113 107.331 75.3725 107.554 75.6417 107.874C75.9093 108.203 76.0889 108.582 76.1803 109.012C76.2803 109.443 76.2904 109.885 76.2106 110.337C76.0541 111.225 75.6977 111.848 75.1415 112.208C74.5923 112.577 73.9251 112.693 73.1399 112.555L69.2351 111.866L69.4044 110.906L70.5551 111.043C70.2283 110.8 69.9677 110.482 69.7733 110.086C69.586 109.701 69.5435 109.219 69.6459 108.638ZM70.5255 108.965C70.4532 109.375 70.4982 109.743 70.6604 110.071C70.8211 110.408 71.0586 110.683 71.373 110.897C71.6873 111.11 72.0322 111.25 72.4077 111.317L72.4205 111.319L72.7072 109.693C72.8186 109.061 72.7867 108.594 72.6114 108.29C72.4432 107.996 72.1969 107.821 71.8726 107.764C71.5397 107.705 71.2498 107.777 71.0028 107.98C70.7628 108.193 70.6037 108.521 70.5255 108.965ZM66.0453 113.486L69.1987 115.666L69.2641 115.295L75.4444 113.784L75.239 114.949L69.927 116.177L74.4759 119.276L74.2795 120.39L65.8466 114.613L66.0453 113.486Z" fill="#222222"/>
<path d="M123.021 50.5348L124.358 42.9518L128.973 43.7655L128.841 44.513L125.137 43.8597L124.667 46.5246L127.819 47.0805L127.689 47.8171L124.537 47.2612L123.931 50.6953L123.021 50.5348ZM127.559 51.335L131.691 44.2448L132.655 44.4148L134.102 52.4887L133.138 52.3187L132.789 50.2465L129.56 49.6773L128.512 51.503L127.559 51.335ZM129.961 48.9884L132.648 49.4621L131.965 45.4771L129.961 48.9884ZM137.622 53.2434C137.066 53.1453 136.6 52.9589 136.224 52.6841C135.848 52.4093 135.58 52.0716 135.42 51.6711C135.26 51.2705 135.222 50.8319 135.306 50.3552L136.259 50.5233C136.207 50.8194 136.227 51.106 136.32 51.3829C136.413 51.6527 136.577 51.8863 136.81 52.0838C137.052 52.2753 137.368 52.4055 137.758 52.4743C138.271 52.5647 138.689 52.5119 139.014 52.3161C139.339 52.1202 139.534 51.8381 139.599 51.4698C139.653 51.1664 139.63 50.913 139.532 50.7096C139.435 50.4989 139.285 50.316 139.082 50.161C138.885 50.0072 138.65 49.8616 138.377 49.724C138.11 49.5876 137.832 49.4379 137.54 49.2749C136.991 48.9695 136.601 48.6439 136.372 48.2982C136.144 47.9452 136.072 47.5268 136.158 47.0429C136.222 46.6372 136.379 46.2963 136.628 46.0201C136.88 45.7367 137.197 45.5396 137.582 45.4286C137.975 45.3118 138.417 45.2966 138.908 45.3832C139.392 45.4685 139.795 45.6327 140.117 45.8756C140.446 46.1198 140.68 46.418 140.819 46.7701C140.965 47.1236 141.006 47.5031 140.942 47.9088L139.989 47.7407C140.026 47.5313 140.008 47.3159 139.935 47.0946C139.864 46.8661 139.728 46.6671 139.527 46.4976C139.333 46.3294 139.07 46.216 138.738 46.1574C138.327 46.0776 137.969 46.1225 137.664 46.292C137.366 46.4629 137.183 46.7396 137.115 47.1224C137.058 47.4474 137.105 47.7125 137.254 47.9176C137.412 48.1241 137.646 48.3143 137.958 48.4885C138.271 48.6554 138.632 48.8493 139.039 49.0701C139.378 49.2638 139.676 49.4727 139.934 49.697C140.193 49.9213 140.377 50.1846 140.487 50.4871C140.605 50.7908 140.626 51.1557 140.551 51.5818C140.488 51.9429 140.333 52.2694 140.088 52.5612C139.844 52.8459 139.513 53.0556 139.095 53.1903C138.684 53.3263 138.193 53.344 137.622 53.2434ZM141.492 53.7917L142.829 46.2087L143.739 46.3692L143.149 49.7165L147.081 50.4099L147.672 47.0626L148.582 47.223L147.244 54.806L146.335 54.6456L146.95 51.1574L143.017 50.464L142.402 53.9522L141.492 53.7917ZM148.845 55.0882L150.182 47.5051L151.092 47.6656L149.755 55.2486L148.845 55.0882ZM154.784 56.2695C154.04 56.1384 153.416 55.8606 152.91 55.4363C152.412 55.0061 152.057 54.4668 151.843 53.8186C151.637 53.1716 151.602 52.4618 151.738 51.689C151.875 50.9163 152.15 50.2648 152.563 49.7346C152.986 49.1984 153.504 48.8133 154.119 48.5791C154.741 48.3462 155.423 48.2954 156.167 48.4265C156.918 48.559 157.543 48.8403 158.04 49.2706C158.545 49.7021 158.9 50.2414 159.106 50.8883C159.314 51.528 159.349 52.2343 159.213 53.007C159.077 53.7798 158.801 54.4349 158.386 54.9723C157.971 55.5098 157.453 55.8949 156.831 56.1278C156.218 56.3547 155.535 56.402 154.784 56.2695ZM154.926 55.4679C155.482 55.566 155.991 55.5291 156.453 55.3575C156.924 55.1798 157.315 54.8803 157.628 54.4588C157.949 54.0314 158.167 53.4927 158.282 52.8428C158.396 52.1928 158.375 51.6157 158.218 51.1115C158.069 50.6085 157.802 50.1967 157.42 49.876C157.045 49.5494 156.58 49.3371 156.024 49.239C155.468 49.1409 154.955 49.1807 154.484 49.3584C154.022 49.5301 153.631 49.826 153.311 50.2462C152.998 50.6676 152.785 51.2033 152.67 51.8533C152.555 52.5033 152.572 53.0834 152.721 53.5935C152.878 54.0978 153.143 54.5132 153.517 54.8398C153.9 55.1605 154.37 55.3699 154.926 55.4679ZM159.857 57.03L161.194 49.447L162.104 49.6074L165.073 56.3972L166.145 50.3199L167.055 50.4804L165.718 58.0634L164.808 57.9029L161.839 51.1132L160.767 57.1905L159.857 57.03Z" fill="#222222"/>
<g clip-path="url(#clip0_3598_65997)">
<path fill-rule="evenodd" clip-rule="evenodd" d="M110.01 50.4969C113.394 51.0937 116.621 48.834 117.218 45.4497C117.815 42.0655 115.555 38.8383 112.171 38.2416C108.787 37.6448 105.56 39.9045 104.963 43.2888C104.366 46.673 106.626 49.9002 110.01 50.4969ZM109.856 51.3723C113.723 52.0543 117.412 49.4718 118.094 45.6041C118.776 41.7364 116.193 38.0482 112.325 37.3662C108.458 36.6842 104.769 39.2667 104.087 43.1344C103.405 47.0021 105.988 50.6904 109.856 51.3723Z" fill="#222222"/>
<path fill-rule="evenodd" clip-rule="evenodd" d="M114.185 45.3913C114.414 45.5035 114.508 45.7717 114.395 45.9904C114.048 46.6594 113.487 47.2026 112.794 47.5422C112.1 47.8817 111.308 48.0001 110.533 47.8805C109.758 47.7609 109.038 47.4093 108.477 46.8762C107.916 46.3431 107.543 45.6558 107.411 44.9128C107.368 44.67 107.537 44.4424 107.79 44.4046C108.042 44.3668 108.282 44.5331 108.325 44.776C108.424 45.3332 108.704 45.8487 109.125 46.2485C109.546 46.6483 110.085 46.912 110.667 47.0017C111.248 47.0915 111.842 47.0026 112.362 46.748C112.883 46.4933 113.303 46.0859 113.563 45.5841C113.677 45.3654 113.955 45.2791 114.185 45.3913Z" fill="#222222"/>
<path d="M109.47 42.7297C109.513 42.488 109.752 42.3281 110.005 42.3726C110.258 42.4172 110.428 42.6492 110.385 42.891L110.231 43.7664C110.188 44.0081 109.949 44.1679 109.696 44.1234C109.444 44.0789 109.273 43.8468 109.316 43.6051L109.47 42.7297Z" fill="#222222"/>
<path d="M112.215 43.2136C112.257 42.9718 112.497 42.812 112.749 42.8565C113.002 42.901 113.172 43.1331 113.129 43.3748L112.975 44.2502C112.932 44.492 112.693 44.6518 112.44 44.6073C112.188 44.5627 112.018 44.3307 112.06 44.0889L112.215 43.2136Z" fill="#222222"/>
</g>
<defs>
<filter id="filter0_dd_3598_65997" x="0.0341797" y="0.446777" width="221.052" height="380.039" filterUnits="userSpaceOnUse" color-interpolation-filters="sRGB">
<feFlood flood-opacity="0" result="BackgroundImageFix"/>
<feColorMatrix in="SourceAlpha" type="matrix" values="0 0 0 0 0 0 0 0 0 0 0 0 0 0 0 0 0 0 127 0" result="hardAlpha"/>
<feOffset dy="2"/>
<feGaussianBlur stdDeviation="9"/>
<feColorMatrix type="matrix" values="0 0 0 0 0 0 0 0 0 0 0 0 0 0 0 0 0 0 0.06 0"/>
<feBlend mode="normal" in2="BackgroundImageFix" result="effect1_dropShadow_3598_65997"/>
<feColorMatrix in="SourceAlpha" type="matrix" values="0 0 0 0 0 0 0 0 0 0 0 0 0 0 0 0 0 0 127 0" result="hardAlpha"/>
<feOffset/>
<feGaussianBlur stdDeviation="1"/>
<feColorMatrix type="matrix" values="0 0 0 0 0 0 0 0 0 0 0 0 0 0 0 0 0 0 0.08 0"/>
<feBlend mode="normal" in2="effect1_dropShadow_3598_65997" result="effect2_dropShadow_3598_65997"/>
<feBlend mode="normal" in="SourceGraphic" in2="effect2_dropShadow_3598_65997" result="shape"/>
</filter>
<filter id="filter1_d_3598_65997" x="107.593" y="138.914" width="18.2058" height="18.6044" filterUnits="userSpaceOnUse" color-interpolation-filters="sRGB">
<feFlood flood-opacity="0" result="BackgroundImageFix"/>
<feColorMatrix in="SourceAlpha" type="matrix" values="0 0 0 0 0 0 0 0 0 0 0 0 0 0 0 0 0 0 127 0" result="hardAlpha"/>
<feOffset dy="0.5"/>
<feGaussianBlur stdDeviation="0.0507146"/>
<feComposite in2="hardAlpha" operator="out"/>
<feColorMatrix type="matrix" values="0 0 0 0 0.679167 0 0 0 0 0.526354 0 0 0 0 0.526354 0 0 0 0.25 0"/>
<feBlend mode="normal" in2="BackgroundImageFix" result="effect1_dropShadow_3598_65997"/>
<feBlend mode="normal" in="SourceGraphic" in2="effect1_dropShadow_3598_65997" result="shape"/>
</filter>
<filter id="filter2_d_3598_65997" x="107.593" y="138.914" width="18.2058" height="18.6044" filterUnits="userSpaceOnUse" color-interpolation-filters="sRGB">
<feFlood flood-opacity="0" result="BackgroundImageFix"/>
<feColorMatrix in="SourceAlpha" type="matrix" values="0 0 0 0 0 0 0 0 0 0 0 0 0 0 0 0 0 0 127 0" result="hardAlpha"/>
<feOffset dy="0.5"/>
<feGaussianBlur stdDeviation="0.0507146"/>
<feComposite in2="hardAlpha" operator="out"/>
<feColorMatrix type="matrix" values="0 0 0 0 0.679167 0 0 0 0 0.526354 0 0 0 0 0.526354 0 0 0 0.25 0"/>
<feBlend mode="normal" in2="BackgroundImageFix" result="effect1_dropShadow_3598_65997"/>
<feBlend mode="normal" in="SourceGraphic" in2="effect1_dropShadow_3598_65997" result="shape"/>
</filter>
<filter id="filter3_i_3598_65997" x="110.316" y="141.522" width="12.6992" height="12.6992" filterUnits="userSpaceOnUse" color-interpolation-filters="sRGB">
<feFlood flood-opacity="0" result="BackgroundImageFix"/>
<feBlend mode="normal" in="SourceGraphic" in2="BackgroundImageFix" result="shape"/>
<feColorMatrix in="SourceAlpha" type="matrix" values="0 0 0 0 0 0 0 0 0 0 0 0 0 0 0 0 0 0 127 0" result="hardAlpha"/>
<feOffset dy="-0.608575"/>
<feComposite in2="hardAlpha" operator="arithmetic" k2="-1" k3="1"/>
<feColorMatrix type="matrix" values="0 0 0 0 0.776471 0 0 0 0 0.843137 0 0 0 0 0.87451 0 0 0 0.7 0"/>
<feBlend mode="normal" in2="shape" result="effect1_innerShadow_3598_65997"/>
</filter>
<filter id="filter4_ddi_3598_65997" x="112.282" y="144.051" width="9.10547" height="9.26445" filterUnits="userSpaceOnUse" color-interpolation-filters="sRGB">
<feFlood flood-opacity="0" result="BackgroundImageFix"/>
<feColorMatrix in="SourceAlpha" type="matrix" values="0 0 0 0 0 0 0 0 0 0 0 0 0 0 0 0 0 0 127 0" result="hardAlpha"/>
<feOffset dy="0.7"/>
<feGaussianBlur stdDeviation="0.25"/>
<feComposite in2="hardAlpha" operator="out"/>
<feColorMatrix type="matrix" values="0 0 0 0 0.620087 0 0 0 0 0.789557 0 0 0 0 0.795833 0 0 0 1 0"/>
<feBlend mode="normal" in2="BackgroundImageFix" result="effect1_dropShadow_3598_65997"/>
<feColorMatrix in="SourceAlpha" type="matrix" values="0 0 0 0 0 0 0 0 0 0 0 0 0 0 0 0 0 0 127 0" result="hardAlpha"/>
<feOffset dy="0.29205"/>
<feGaussianBlur stdDeviation="0.101852"/>
<feComposite in2="hardAlpha" operator="out"/>
<feColorMatrix type="matrix" values="0 0 0 0 0.512986 0 0 0 0 0.691667 0 0 0 0 0.691667 0 0 0 1 0"/>
<feBlend mode="normal" in2="effect1_dropShadow_3598_65997" result="effect2_dropShadow_3598_65997"/>
<feBlend mode="normal" in="SourceGraphic" in2="effect2_dropShadow_3598_65997" result="shape"/>
<feColorMatrix in="SourceAlpha" type="matrix" values="0 0 0 0 0 0 0 0 0 0 0 0 0 0 0 0 0 0 127 0" result="hardAlpha"/>
<feOffset dy="0.7"/>
<feGaussianBlur stdDeviation="0.25"/>
<feComposite in2="hardAlpha" operator="arithmetic" k2="-1" k3="1"/>
<feColorMatrix type="matrix" values="0 0 0 0 1 0 0 0 0 1 0 0 0 0 1 0 0 0 1 0"/>
<feBlend mode="normal" in2="shape" result="effect3_innerShadow_3598_65997"/>
</filter>
<linearGradient id="paint0_linear_3598_65997" x1="93.4832" y1="63.6038" x2="102.35" y2="19.065" gradientUnits="userSpaceOnUse">
<stop stop-color="#FFBC0D"/>
<stop offset="1" stop-color="#FFA800"/>
</linearGradient>
<linearGradient id="paint1_linear_3598_65997" x1="211.074" y1="234.812" x2="87.5742" y2="206.312" gradientUnits="userSpaceOnUse">
<stop stop-color="#FFBC0D"/>
<stop offset="1" stop-color="#FFA800"/>
</linearGradient>
<radialGradient id="paint2_radial_3598_65997" cx="0" cy="0" r="1" gradientUnits="userSpaceOnUse" gradientTransform="translate(125.501 149.809) rotate(-170.119) scale(18)">
<stop stop-color="#706E64"/>
<stop offset="0.321442" stop-color="#F7C25B"/>
<stop offset="0.53125" stop-color="#F6C05B"/>
<stop offset="0.630208" stop-color="#F2B551"/>
<stop offset="0.708164" stop-color="#F0B14B"/>
<stop offset="1" stop-color="#D4823E"/>
</radialGradient>
<radialGradient id="paint3_radial_3598_65997" cx="0" cy="0" r="1" gradientUnits="userSpaceOnUse" gradientTransform="translate(125.559 149.478) rotate(-170) scale(18)">
<stop stop-color="#FFE100"/>
<stop offset="0.609375" stop-color="#122D02"/>
<stop offset="1" stop-color="#F6B402"/>
</radialGradient>
<radialGradient id="paint4_radial_3598_65997" cx="0" cy="0" r="1" gradientUnits="userSpaceOnUse" gradientTransform="translate(125.559 149.478) rotate(-170) scale(18)">
<stop stop-color="#E0EEEE"/>
<stop offset="0.487207" stop-color="#CEE2E4"/>
<stop offset="1" stop-color="#B8D0D6"/>
</radialGradient>
<linearGradient id="paint5_linear_3598_65997" x1="116.665" y1="140.926" x2="116.665" y2="154.818" gradientUnits="userSpaceOnUse">
<stop stop-color="#BDD8DA"/>
<stop offset="1" stop-color="#E5F3F3"/>
</linearGradient>
<radialGradient id="paint6_radial_3598_65997" cx="0" cy="0" r="1" gradientUnits="userSpaceOnUse" gradientTransform="translate(116.666 141.523) rotate(90) scale(12.6971)">
<stop stop-color="#E0EEEE"/>
<stop offset="0.487207" stop-color="#CEE2E4"/>
<stop offset="1" stop-color="#B8D0D6"/>
</radialGradient>
<radialGradient id="paint7_radial_3598_65997" cx="0" cy="0" r="1" gradientUnits="userSpaceOnUse" gradientTransform="translate(120.883 148.616) rotate(-170) scale(7.81126 8.1786)">
<stop stop-color="#E0EEEE"/>
<stop offset="0.487207" stop-color="#CEE2E4"/>
<stop offset="1" stop-color="#B8D0D6"/>
</radialGradient>
<radialGradient id="paint8_radial_3598_65997" cx="0" cy="0" r="1" gradientUnits="userSpaceOnUse" gradientTransform="translate(121.269 148.862) rotate(-170.119) scale(9.41081)">
<stop stop-color="#FFED82"/>
<stop offset="0.321442" stop-color="#F7C25B"/>
<stop offset="0.53125" stop-color="#F6C05B"/>
<stop offset="0.630208" stop-color="#F2B551"/>
<stop offset="0.708164" stop-color="#F0B14B"/>
<stop offset="1" stop-color="#D4823E"/>
</radialGradient>
<clipPath id="clip0_3598_65997">
<rect width="16" height="16" fill="white" transform="translate(104.602 35.1016) rotate(10)"/>
</clipPath>
</defs>
</svg>
