<svg width="45" height="44" viewBox="0 0 45 44" fill="none" xmlns="http://www.w3.org/2000/svg">
<g filter="url(#filter0_d_3598_60536)">
<path d="M39.1676 26.6847C36.4883 35.9709 26.7883 41.3268 17.5021 38.6475C8.21595 35.9682 2.86002 26.2683 5.53932 16.9821C8.21862 7.69591 17.9186 2.33997 27.2048 5.01927C36.4909 7.69858 41.8469 17.3985 39.1676 26.6847Z" fill="url(#paint0_radial_3598_60536)"/>
<path d="M39.1676 26.6847C36.4883 35.9709 26.7883 41.3268 17.5021 38.6475C8.21595 35.9682 2.86002 26.2683 5.53932 16.9821C8.21862 7.69591 17.9186 2.33997 27.2048 5.01927C36.4909 7.69858 41.8469 17.3985 39.1676 26.6847Z" fill="url(#paint1_radial_3598_60536)"/>
<path d="M39.1676 26.6847C36.4883 35.9709 26.7883 41.3268 17.5021 38.6475C8.21595 35.9682 2.86002 26.2683 5.53932 16.9821C8.21862 7.69591 17.9186 2.33997 27.2048 5.01927C36.4909 7.69858 41.8469 17.3985 39.1676 26.6847Z" fill="url(#paint2_radial_3598_60536)"/>
</g>
<g filter="url(#filter1_d_3598_60536)">
<path fill-rule="evenodd" clip-rule="evenodd" d="M17.6099 38.2739C26.6898 40.8936 36.1742 35.6567 38.7939 26.5769C41.4137 17.4971 36.1768 8.01268 27.0969 5.39292C18.0171 2.77316 8.53273 8.01008 5.91297 17.0899C3.29321 26.1697 8.53012 35.6541 17.6099 38.2739ZM17.5021 38.6475C26.7883 41.3268 36.4883 35.9709 39.1676 26.6847C41.8469 17.3985 36.4909 7.69858 27.2048 5.01927C17.9186 2.33997 8.21862 7.69591 5.53932 16.9821C2.86002 26.2683 8.21595 35.9682 17.5021 38.6475Z" fill="#858A89"/>
</g>
<path opacity="0.25" d="M38.7497 26.5644C38.9809 26.6311 39.223 26.4979 39.2839 26.2651C39.8284 24.1849 39.9852 22.0208 39.745 19.8814C39.4886 17.5976 38.7849 15.3867 37.674 13.3749C36.5632 11.3631 35.0669 9.58975 33.2707 8.15618C31.4746 6.7226 29.4136 5.65684 27.2055 5.01976C24.9975 4.38268 22.6855 4.18675 20.4018 4.44315C18.118 4.69955 15.9071 5.40326 13.8952 6.51412C11.8834 7.62497 10.1101 9.1212 8.67651 10.9174C7.33358 12.6 6.31343 14.5149 5.66607 16.5655C5.59364 16.795 5.72751 17.0367 5.95871 17.1034C7.08943 17.5837 7.75994 17.7094 9.03251 17.6879C9.2637 17.7546 9.50451 17.621 9.57865 17.392C10.0783 15.8493 10.8102 14.6983 11.8233 13.4289C12.9271 12.046 14.2924 10.894 15.8414 10.0387C17.3903 9.18343 19.0926 8.64162 20.851 8.4442C22.6093 8.24679 24.3893 8.39765 26.0894 8.88816C27.7895 9.37867 29.3763 10.1992 30.7592 11.303C32.1421 12.4067 33.2941 13.7721 34.1494 15.321C35.0047 16.87 35.5465 18.5723 35.7439 20.3306C35.9251 21.9445 36.0011 23.3287 35.6022 24.9005C35.543 25.1337 35.6756 25.3751 35.9068 25.4418C37.0694 26.0823 37.6932 26.3372 38.7497 26.5644Z" fill="white"/>
<circle cx="22.263" cy="21.8836" r="13.5062" transform="rotate(16.0942 22.263 21.8836)" fill="url(#paint3_linear_3598_60536)"/>
<ellipse cx="22.2627" cy="21.8831" rx="12.7801" ry="12.7801" transform="rotate(16.0942 22.2627 21.8831)" fill="#89A7A3"/>
<g filter="url(#filter2_i_3598_60536)">
<circle cx="22.2627" cy="21.8828" r="12.3444" transform="rotate(16.0942 22.2627 21.8828)" fill="url(#paint4_radial_3598_60536)"/>
</g>
<g filter="url(#filter3_ddi_3598_60536)">
<path d="M23.9074 14.071C24.2723 13.6708 24.9378 13.8628 25.0335 14.396L25.8121 18.7347C25.8501 18.9464 25.9898 19.1258 26.1858 19.2146L30.2013 21.0329C30.6947 21.2563 30.7177 21.9486 30.2403 22.2043L26.3545 24.2855C26.1649 24.3871 26.0374 24.5754 26.0135 24.7892L25.5251 29.1701C25.4651 29.7084 24.8138 29.9442 24.423 29.5691L21.2429 26.5167C21.0877 26.3677 20.8692 26.3047 20.6585 26.3481L16.3411 27.2373C15.8106 27.3466 15.3851 26.8001 15.6211 26.3125L17.5414 22.3448C17.6351 22.1512 17.6275 21.9238 17.5212 21.7369L15.3413 17.9056C15.0735 17.4348 15.4617 16.8612 15.9983 16.935L20.3653 17.5352C20.5784 17.5645 20.7922 17.4871 20.9372 17.3281L23.9074 14.071Z" fill="url(#paint5_radial_3598_60536)"/>
</g>
<path fill-rule="evenodd" clip-rule="evenodd" d="M23.6923 13.8748C24.2202 13.296 25.1827 13.5737 25.321 14.3448L26.0996 18.6835C26.1207 18.8007 26.198 18.9001 26.3065 18.9492L30.3221 20.7675C31.0357 21.0907 31.069 22.0919 30.3784 22.4618L26.4927 24.543C26.3877 24.5992 26.3171 24.7035 26.3039 24.8219L25.8154 29.2027C25.7286 29.9813 24.7867 30.3224 24.2215 29.7799L21.0414 26.7274C20.9555 26.645 20.8345 26.6101 20.7178 26.6341L16.4004 27.5233C15.6331 27.6813 15.0177 26.8909 15.359 26.1858L17.2793 22.218C17.3312 22.1108 17.327 21.985 17.2681 21.8815L15.0883 18.0502C14.7009 17.3692 15.2624 16.5397 16.0385 16.6463L20.4055 17.2466C20.5235 17.2628 20.6419 17.2199 20.7221 17.1319L23.6923 13.8748ZM24.7469 14.4478C24.6939 14.1526 24.3254 14.0463 24.1233 14.2679L21.1532 17.525C20.9435 17.7549 20.6342 17.8669 20.326 17.8245L15.9591 17.2242C15.662 17.1834 15.447 17.501 15.5953 17.7617L17.7751 21.593C17.929 21.8634 17.9399 22.1922 17.8044 22.4722L15.8841 26.4399C15.7534 26.7099 15.989 27.0125 16.2828 26.952L20.6002 26.0627C20.9049 26 21.2209 26.0912 21.4454 26.3066L24.6255 29.3591C24.8419 29.5667 25.2025 29.4362 25.2357 29.1381L25.7241 24.7572C25.7586 24.448 25.943 24.1756 26.2172 24.0287L30.103 21.9475C30.3674 21.8059 30.3546 21.4226 30.0814 21.2989L26.0659 19.4806C25.7825 19.3523 25.5804 19.0927 25.5255 18.7865L24.7469 14.4478Z" fill="#858A89"/>
<mask id="mask0_3598_60536" style="mask-type:alpha" maskUnits="userSpaceOnUse" x="13" y="12" width="19" height="20">
<path d="M23.9064 14.071C24.2714 13.6708 24.9368 13.8628 25.0325 14.396L25.8111 18.7347C25.8491 18.9464 25.9888 19.1258 26.1848 19.2146L30.2003 21.0329C30.6937 21.2563 30.7168 21.9486 30.2393 22.2043L26.3535 24.2855C26.1639 24.3871 26.0364 24.5754 26.0126 24.7892L25.5241 29.1701C25.4641 29.7084 24.8129 29.9442 24.4221 29.5691L21.242 26.5167C21.0868 26.3677 20.8682 26.3047 20.6576 26.3481L16.3402 27.2373C15.8096 27.3466 15.3841 26.8001 15.6201 26.3125L17.5404 22.3448C17.6341 22.1512 17.6266 21.9238 17.5202 21.7369L15.3403 17.9056C15.0725 17.4348 15.4607 16.8612 15.9974 16.935L20.3643 17.5352C20.5774 17.5645 20.7913 17.4871 20.9362 17.3281L23.9064 14.071Z" fill="url(#paint6_radial_3598_60536)" stroke="black" stroke-width="2.82202"/>
</mask>
<g mask="url(#mask0_3598_60536)">
<ellipse opacity="0.25" cx="23.6201" cy="17.4388" rx="8.78631" ry="5.51867" transform="rotate(16.0942 23.6201 17.4388)" fill="white"/>
</g>
<defs>
<filter id="filter0_d_3598_60536" x="4.65781" y="4.3291" width="35.3914" height="36.1403" filterUnits="userSpaceOnUse" color-interpolation-filters="sRGB">
<feFlood flood-opacity="0" result="BackgroundImageFix"/>
<feColorMatrix in="SourceAlpha" type="matrix" values="0 0 0 0 0 0 0 0 0 0 0 0 0 0 0 0 0 0 127 0" result="hardAlpha"/>
<feOffset dy="0.940675"/>
<feGaussianBlur stdDeviation="0.0954118"/>
<feComposite in2="hardAlpha" operator="out"/>
<feColorMatrix type="matrix" values="0 0 0 0 0.679167 0 0 0 0 0.526354 0 0 0 0 0.526354 0 0 0 0.25 0"/>
<feBlend mode="normal" in2="BackgroundImageFix" result="effect1_dropShadow_3598_60536"/>
<feBlend mode="normal" in="SourceGraphic" in2="effect1_dropShadow_3598_60536" result="shape"/>
</filter>
<filter id="filter1_d_3598_60536" x="4.65781" y="4.3291" width="35.3914" height="36.1403" filterUnits="userSpaceOnUse" color-interpolation-filters="sRGB">
<feFlood flood-opacity="0" result="BackgroundImageFix"/>
<feColorMatrix in="SourceAlpha" type="matrix" values="0 0 0 0 0 0 0 0 0 0 0 0 0 0 0 0 0 0 127 0" result="hardAlpha"/>
<feOffset dy="0.940675"/>
<feGaussianBlur stdDeviation="0.0954118"/>
<feComposite in2="hardAlpha" operator="out"/>
<feColorMatrix type="matrix" values="0 0 0 0 0.679167 0 0 0 0 0.526354 0 0 0 0 0.526354 0 0 0 0.25 0"/>
<feBlend mode="normal" in2="BackgroundImageFix" result="effect1_dropShadow_3598_60536"/>
<feBlend mode="normal" in="SourceGraphic" in2="effect1_dropShadow_3598_60536" result="shape"/>
</filter>
<filter id="filter2_i_3598_60536" x="9.91504" y="9.53516" width="24.6953" height="24.6953" filterUnits="userSpaceOnUse" color-interpolation-filters="sRGB">
<feFlood flood-opacity="0" result="BackgroundImageFix"/>
<feBlend mode="normal" in="SourceGraphic" in2="BackgroundImageFix" result="shape"/>
<feColorMatrix in="SourceAlpha" type="matrix" values="0 0 0 0 0 0 0 0 0 0 0 0 0 0 0 0 0 0 127 0" result="hardAlpha"/>
<feOffset dy="-1.14494"/>
<feComposite in2="hardAlpha" operator="arithmetic" k2="-1" k3="1"/>
<feColorMatrix type="matrix" values="0 0 0 0 0.776471 0 0 0 0 0.843137 0 0 0 0 0.87451 0 0 0 0.7 0"/>
<feBlend mode="normal" in2="shape" result="effect1_innerShadow_3598_60536"/>
</filter>
<filter id="filter3_ddi_3598_60536" x="14.3132" y="13.8574" width="17.2124" height="18.1522" filterUnits="userSpaceOnUse" color-interpolation-filters="sRGB">
<feFlood flood-opacity="0" result="BackgroundImageFix"/>
<feColorMatrix in="SourceAlpha" type="matrix" values="0 0 0 0 0 0 0 0 0 0 0 0 0 0 0 0 0 0 127 0" result="hardAlpha"/>
<feOffset dy="1.31694"/>
<feGaussianBlur stdDeviation="0.470337"/>
<feComposite in2="hardAlpha" operator="out"/>
<feColorMatrix type="matrix" values="0 0 0 0 0.620087 0 0 0 0 0.789557 0 0 0 0 0.795833 0 0 0 1 0"/>
<feBlend mode="normal" in2="BackgroundImageFix" result="effect1_dropShadow_3598_60536"/>
<feColorMatrix in="SourceAlpha" type="matrix" values="0 0 0 0 0 0 0 0 0 0 0 0 0 0 0 0 0 0 127 0" result="hardAlpha"/>
<feOffset dy="0.549447"/>
<feGaussianBlur stdDeviation="0.191619"/>
<feComposite in2="hardAlpha" operator="out"/>
<feColorMatrix type="matrix" values="0 0 0 0 0.512986 0 0 0 0 0.691667 0 0 0 0 0.691667 0 0 0 1 0"/>
<feBlend mode="normal" in2="effect1_dropShadow_3598_60536" result="effect2_dropShadow_3598_60536"/>
<feBlend mode="normal" in="SourceGraphic" in2="effect2_dropShadow_3598_60536" result="shape"/>
<feColorMatrix in="SourceAlpha" type="matrix" values="0 0 0 0 0 0 0 0 0 0 0 0 0 0 0 0 0 0 127 0" result="hardAlpha"/>
<feOffset dy="1.31694"/>
<feGaussianBlur stdDeviation="0.470337"/>
<feComposite in2="hardAlpha" operator="arithmetic" k2="-1" k3="1"/>
<feColorMatrix type="matrix" values="0 0 0 0 1 0 0 0 0 1 0 0 0 0 1 0 0 0 1 0"/>
<feBlend mode="normal" in2="shape" result="effect3_innerShadow_3598_60536"/>
</filter>
<radialGradient id="paint0_radial_3598_60536" cx="0" cy="0" r="1" gradientUnits="userSpaceOnUse" gradientTransform="translate(27.8327 5.20044) rotate(105.975) scale(35.0001)">
<stop stop-color="#706E64"/>
<stop offset="0.321442" stop-color="#F7C25B"/>
<stop offset="0.53125" stop-color="#F6C05B"/>
<stop offset="0.630208" stop-color="#F2B551"/>
<stop offset="0.708164" stop-color="#F0B14B"/>
<stop offset="1" stop-color="#D4823E"/>
</radialGradient>
<radialGradient id="paint1_radial_3598_60536" cx="0" cy="0" r="1" gradientUnits="userSpaceOnUse" gradientTransform="translate(27.2048 5.01927) rotate(106.094) scale(35)">
<stop stop-color="#FFE100"/>
<stop offset="0.609375" stop-color="#122D02"/>
<stop offset="1" stop-color="#F6B402"/>
</radialGradient>
<radialGradient id="paint2_radial_3598_60536" cx="0" cy="0" r="1" gradientUnits="userSpaceOnUse" gradientTransform="translate(27.2048 5.01927) rotate(106.094) scale(35)">
<stop stop-color="#E0EEEE"/>
<stop offset="0.487207" stop-color="#CEE2E4"/>
<stop offset="1" stop-color="#B8D0D6"/>
</radialGradient>
<linearGradient id="paint3_linear_3598_60536" x1="22.263" y1="8.37741" x2="22.263" y2="35.3899" gradientUnits="userSpaceOnUse">
<stop stop-color="#BDD8DA"/>
<stop offset="1" stop-color="#E5F3F3"/>
</linearGradient>
<radialGradient id="paint4_radial_3598_60536" cx="0" cy="0" r="1" gradientUnits="userSpaceOnUse" gradientTransform="translate(22.2627 9.53837) rotate(90) scale(24.6888)">
<stop stop-color="#E0EEEE"/>
<stop offset="0.487207" stop-color="#CEE2E4"/>
<stop offset="1" stop-color="#B8D0D6"/>
</radialGradient>
<radialGradient id="paint5_radial_3598_60536" cx="0" cy="0" r="1" gradientUnits="userSpaceOnUse" gradientTransform="translate(24.5714 13.8835) rotate(106.094) scale(15.1886 15.9028)">
<stop stop-color="#E0EEEE"/>
<stop offset="0.487207" stop-color="#CEE2E4"/>
<stop offset="1" stop-color="#B8D0D6"/>
</radialGradient>
<radialGradient id="paint6_radial_3598_60536" cx="0" cy="0" r="1" gradientUnits="userSpaceOnUse" gradientTransform="translate(25.1269 13.1873) rotate(105.975) scale(18.2988 18.2988)">
<stop stop-color="#FFED82"/>
<stop offset="0.321442" stop-color="#F7C25B"/>
<stop offset="0.53125" stop-color="#F6C05B"/>
<stop offset="0.630208" stop-color="#F2B551"/>
<stop offset="0.708164" stop-color="#F0B14B"/>
<stop offset="1" stop-color="#D4823E"/>
</radialGradient>
</defs>
</svg>
