<svg width="105" height="78" viewBox="0 0 105 78" fill="none" xmlns="http://www.w3.org/2000/svg">
<g filter="url(#filter0_dd_3598_64281)">
<g clip-path="url(#clip0_3598_64281)">
<mask id="path-2-inside-1_3598_64281" fill="white">
<path fill-rule="evenodd" clip-rule="evenodd" d="M13.1027 33.7215C12.0601 27.8083 16.0084 22.1694 21.9216 21.1268L75.4556 11.6873C81.3688 10.6446 87.0076 14.593 88.0503 20.5062L91.8261 41.9197C92.8688 47.8329 88.9204 53.4718 83.0072 54.5144L29.4732 63.9539C23.56 64.9966 17.9212 61.0482 16.8785 55.135L16.6169 53.6512C16.2075 51.3293 18.0318 49.1431 19.3841 47.2118C20.2111 46.0308 20.535 44.5697 20.2846 43.1499C20.0343 41.7301 19.2302 40.4679 18.0492 39.641C16.1179 38.2887 13.6558 36.8582 13.2464 34.5364L13.1027 33.7215ZM89.3056 27.6268C89.1009 26.4657 87.9525 25.6598 86.9581 26.2933C86.3561 26.6768 85.8355 27.1752 85.426 27.76C85.0165 28.3447 84.7263 29.0044 84.5718 29.7014C84.4173 30.3983 84.4015 31.1189 84.5255 31.8219C84.6495 32.5249 84.9107 33.1966 85.2942 33.7987C85.6778 34.4007 86.1762 34.9214 86.7609 35.3308C87.3457 35.7403 88.0054 36.0305 88.7023 36.1851C89.8533 36.4402 90.6569 35.2901 90.4522 34.1291L89.8789 30.8779L89.3056 27.6268Z"/>
</mask>
<path fill-rule="evenodd" clip-rule="evenodd" d="M13.1027 33.7215C12.0601 27.8083 16.0084 22.1694 21.9216 21.1268L75.4556 11.6873C81.3688 10.6446 87.0076 14.593 88.0503 20.5062L91.8261 41.9197C92.8688 47.8329 88.9204 53.4718 83.0072 54.5144L29.4732 63.9539C23.56 64.9966 17.9212 61.0482 16.8785 55.135L16.6169 53.6512C16.2075 51.3293 18.0318 49.1431 19.3841 47.2118C20.2111 46.0308 20.535 44.5697 20.2846 43.1499C20.0343 41.7301 19.2302 40.4679 18.0492 39.641C16.1179 38.2887 13.6558 36.8582 13.2464 34.5364L13.1027 33.7215ZM89.3056 27.6268C89.1009 26.4657 87.9525 25.6598 86.9581 26.2933C86.3561 26.6768 85.8355 27.1752 85.426 27.76C85.0165 28.3447 84.7263 29.0044 84.5718 29.7014C84.4173 30.3983 84.4015 31.1189 84.5255 31.8219C84.6495 32.5249 84.9107 33.1966 85.2942 33.7987C85.6778 34.4007 86.1762 34.9214 86.7609 35.3308C87.3457 35.7403 88.0054 36.0305 88.7023 36.1851C89.8533 36.4402 90.6569 35.2901 90.4522 34.1291L89.8789 30.8779L89.3056 27.6268Z" fill="white"/>
<path d="M21.9216 21.1268L22.0396 21.7959L21.9216 21.1268ZM75.4556 11.6873L75.3376 11.0181L75.4556 11.6873ZM83.0072 54.5144L83.1252 55.1836L83.0072 54.5144ZM29.4732 63.9539L29.3552 63.2848L29.4732 63.9539ZM85.426 27.76L85.9826 28.1497L85.9826 28.1497L85.426 27.76ZM84.5718 29.7014L85.2352 29.8484L84.5718 29.7014ZM85.2942 33.7987L84.7211 34.1638L85.2942 33.7987ZM86.7609 35.3308L86.3712 35.8874L86.3712 35.8874L86.7609 35.3308ZM89.8789 30.8779L90.5481 30.7599L89.8789 30.8779ZM89.3056 27.6268L89.9748 27.5088L89.3056 27.6268ZM21.8036 20.4576C15.5209 21.5654 11.3257 27.5567 12.4336 33.8395L13.7719 33.6035C12.7944 28.0598 16.496 22.7734 22.0396 21.7959L21.8036 20.4576ZM75.3376 11.0181L21.8036 20.4576L22.0396 21.7959L75.5736 12.3564L75.3376 11.0181ZM88.7195 20.3882C87.6117 14.1054 81.6204 9.91027 75.3376 11.0181L75.5736 12.3564C81.1172 11.379 86.4036 15.0805 87.3811 20.6242L88.7195 20.3882ZM92.4953 41.8017L88.7195 20.3882L87.3811 20.6242L91.1569 42.0377L92.4953 41.8017ZM83.1252 55.1836C89.408 54.0758 93.6031 48.0845 92.4953 41.8017L91.1569 42.0377C92.1344 47.5814 88.4328 52.8678 82.8892 53.8453L83.1252 55.1836ZM29.5912 64.6231L83.1252 55.1836L82.8892 53.8453L29.3552 63.2848L29.5912 64.6231ZM16.2094 55.253C17.3172 61.5358 23.3084 65.7309 29.5912 64.6231L29.3552 63.2848C23.8116 64.2622 18.5252 60.5607 17.5477 55.017L16.2094 55.253ZM15.9477 53.7692L16.2094 55.253L17.5477 55.017L17.2861 53.5332L15.9477 53.7692ZM19.9407 47.6016C20.871 46.273 21.2355 44.6292 20.9538 43.0319L19.6155 43.2679C19.8345 44.5102 19.5511 45.7887 18.8275 46.8221L19.9407 47.6016ZM20.9538 43.0319C20.6722 41.4346 19.7675 40.0147 18.4389 39.0844L17.6594 40.1976C18.6928 40.9212 19.3964 42.0256 19.6155 43.2679L20.9538 43.0319ZM12.4336 33.8395L12.5773 34.6544L13.9156 34.4184L13.7719 33.6035L12.4336 33.8395ZM85.9826 28.1497C86.3409 27.6381 86.7964 27.202 87.3232 26.8663L86.593 25.7202C85.9157 26.1517 85.33 26.7124 84.8694 27.3702L85.9826 28.1497ZM85.2352 29.8484C85.3704 29.2386 85.6243 28.6614 85.9826 28.1497L84.8694 27.3702C84.4088 28.0281 84.0822 28.7702 83.9084 29.5543L85.2352 29.8484ZM85.1947 31.7039C85.0862 31.0887 85.1 30.4583 85.2352 29.8484L83.9084 29.5543C83.7345 30.3384 83.7169 31.149 83.8563 31.9399L85.1947 31.7039ZM85.8673 33.4336C85.5317 32.9068 85.3031 32.319 85.1947 31.7039L83.8563 31.9399C83.9958 32.7308 84.2896 33.4864 84.7211 34.1638L85.8673 33.4336ZM87.1507 34.7742C86.639 34.4159 86.2029 33.9604 85.8673 33.4336L84.7211 34.1638C85.1527 34.8411 85.7133 35.4268 86.3712 35.8874L87.1507 34.7742ZM88.8494 35.5217C88.2396 35.3865 87.6624 35.1325 87.1507 34.7742L86.3712 35.8874C87.0291 36.3481 87.7712 36.6746 88.5553 36.8484L88.8494 35.5217ZM89.2097 30.9959L89.783 34.2471L91.1213 34.0111L90.5481 30.7599L89.2097 30.9959ZM88.6365 27.7448L89.2097 30.9959L90.5481 30.7599L89.9748 27.5088L88.6365 27.7448ZM88.5553 36.8484C89.4122 37.0384 90.1549 36.6919 90.6172 36.1115C91.065 35.5491 91.2554 34.7715 91.1213 34.0111L89.783 34.2471C89.8536 34.6476 89.7446 35.0256 89.5541 35.2648C89.378 35.4859 89.1434 35.5868 88.8494 35.5217L88.5553 36.8484ZM87.3232 26.8663C87.5772 26.7045 87.8322 26.7191 88.0733 26.8667C88.3341 27.0263 88.5658 27.3442 88.6365 27.7448L89.9748 27.5088C89.8407 26.7483 89.3958 26.0827 88.7827 25.7075C88.1498 25.3202 87.3334 25.2485 86.593 25.7202L87.3232 26.8663ZM18.4389 39.0844C17.4362 38.3823 16.3988 37.7272 15.5315 36.9471C14.6745 36.1762 14.0825 35.3648 13.9156 34.4184L12.5773 34.6544C12.8198 36.0298 13.6635 37.0946 14.6227 37.9574C15.5716 38.8111 16.7308 39.5474 17.6594 40.1976L18.4389 39.0844ZM17.2861 53.5332C17.1192 52.5868 17.398 51.6219 17.9397 50.6043C18.4878 49.5747 19.2386 48.6043 19.9407 47.6016L18.8275 46.8221C18.1773 47.7507 17.3398 48.8391 16.7401 49.9658C16.1338 51.1046 15.7052 52.3937 15.9477 53.7692L17.2861 53.5332Z" fill="#E0E0E0" mask="url(#path-2-inside-1_3598_64281)"/>
<path fill-rule="evenodd" clip-rule="evenodd" d="M21.9216 21.1268C16.0084 22.1694 12.0601 27.8083 13.1027 33.7215L14.1005 39.3802C15.4801 39.1705 16.8895 39.4993 18.0353 40.3015C19.2163 41.1285 20.0204 42.3907 20.2707 43.8105C20.5211 45.2303 20.1972 46.6914 19.3702 47.8724C18.568 49.0182 17.356 49.8092 15.9879 50.084L16.82 54.8029C17.8626 60.7161 23.5015 64.6645 29.4147 63.6218L32.0914 63.1499L24.5983 20.6548L21.9216 21.1268Z" fill="#E52924"/>
<path d="M38.9006 46.8713L37.0703 36.491L35.0047 37.3769L34.6809 35.5407L37.5997 33.5771L39.0799 33.3161L41.3926 46.4319L38.9006 46.8713ZM47.3958 40.814L47.0423 38.8091L50.5648 38.188L49.9932 34.9465L52.0356 34.5864L52.6071 37.8279L56.1109 37.2101L56.4644 39.2149L52.9606 39.8327L53.5322 43.0742L51.4899 43.4343L50.9183 40.1928L47.3958 40.814ZM63.7264 42.4938L63.4191 40.7513C64.1018 39.9483 64.7606 39.1559 65.3956 38.3742C66.043 37.5903 66.6041 36.8281 67.0789 36.0875C67.5661 35.3448 67.9318 34.6427 68.1758 33.9815C68.4301 33.3055 68.5066 32.6803 68.4053 32.1057C68.3106 31.5686 68.077 31.1203 67.7045 30.761C67.3445 30.3994 66.8273 30.2781 66.1528 30.397C65.4657 30.5182 64.987 30.8344 64.7165 31.3458C64.4461 31.8571 64.367 32.4313 64.4793 33.0684L62.156 33.4781C62.0113 32.5118 62.0827 31.675 62.3701 30.9674C62.6553 30.2474 63.1014 29.6729 63.7084 29.2439C64.3131 28.8024 65.0277 28.5089 65.8522 28.3635C67.1887 28.1279 68.2905 28.3136 69.1574 28.9206C70.0346 29.5129 70.5757 30.3899 70.7805 31.5516C70.9082 32.2761 70.8641 33.0116 70.6479 33.7581C70.4443 34.5024 70.1301 35.2404 69.7053 35.9722C69.2805 36.7039 68.8054 37.4059 68.2799 38.0782C67.7523 38.7379 67.2368 39.3569 66.7334 39.9351L72.4106 38.934L72.7575 40.9014L63.7264 42.4938Z" fill="#222222"/>
</g>
</g>
<defs>
<filter id="filter0_dd_3598_64281" x="-1.01709" y="-1.07265" width="106.961" height="80.5044" filterUnits="userSpaceOnUse" color-interpolation-filters="sRGB">
<feFlood flood-opacity="0" result="BackgroundImageFix"/>
<feColorMatrix in="SourceAlpha" type="matrix" values="0 0 0 0 0 0 0 0 0 0 0 0 0 0 0 0 0 0 127 0" result="hardAlpha"/>
<feOffset dy="1.359"/>
<feGaussianBlur stdDeviation="6.11548"/>
<feColorMatrix type="matrix" values="0 0 0 0 0 0 0 0 0 0 0 0 0 0 0 0 0 0 0.06 0"/>
<feBlend mode="normal" in2="BackgroundImageFix" result="effect1_dropShadow_3598_64281"/>
<feColorMatrix in="SourceAlpha" type="matrix" values="0 0 0 0 0 0 0 0 0 0 0 0 0 0 0 0 0 0 127 0" result="hardAlpha"/>
<feOffset/>
<feGaussianBlur stdDeviation="0.679498"/>
<feColorMatrix type="matrix" values="0 0 0 0 0 0 0 0 0 0 0 0 0 0 0 0 0 0 0.08 0"/>
<feBlend mode="normal" in2="effect1_dropShadow_3598_64281" result="effect2_dropShadow_3598_64281"/>
<feBlend mode="normal" in="SourceGraphic" in2="effect2_dropShadow_3598_64281" result="shape"/>
</filter>
<clipPath id="clip0_3598_64281">
<rect x="11.2139" y="23.0146" width="76.1038" height="43.4879" rx="10.872" transform="rotate(-10 11.2139 23.0146)" fill="white"/>
</clipPath>
</defs>
</svg>
