<svg width="139" height="105" viewBox="0 0 139 105" fill="none" xmlns="http://www.w3.org/2000/svg">
<g filter="url(#filter0_d_7303_112322)">
<circle cx="90.8658" cy="44.8921" r="35" transform="rotate(20 90.8658 44.8921)" fill="url(#paint0_radial_7303_112322)"/>
</g>
<path d="M122.926 56.5611C123.379 56.7257 123.88 56.4929 124.033 56.0367C125.403 51.96 126.01 47.6633 125.823 43.3618C125.622 38.7699 124.519 34.2624 122.577 30.0968C120.634 25.9312 117.89 22.1889 114.502 19.0837C111.113 15.9785 107.146 13.5712 102.827 11.9992C98.5075 10.4272 93.9211 9.72126 89.3292 9.92175C84.7373 10.1222 80.2299 11.2252 76.0643 13.1677C71.8986 15.1101 68.1564 17.8541 65.0512 21.2428C62.1423 24.4172 59.8459 28.0993 58.2748 32.1027C58.099 32.5507 58.3332 33.0512 58.7855 33.2158C60.9762 34.3283 62.297 34.6703 64.8392 34.8008C65.2914 34.9654 65.7901 34.7316 65.9692 34.2849C67.1765 31.2746 68.7936 29.0777 70.988 26.6829C73.3788 24.0738 76.2601 21.9612 79.4673 20.4656C82.6746 18.97 86.145 18.1208 89.6805 17.9665C93.2159 17.8121 96.7471 18.3556 100.073 19.566C103.398 20.7763 106.452 22.6298 109.061 25.0206C111.671 27.4114 113.783 30.2926 115.279 33.4999C116.774 36.7071 117.624 40.1776 117.778 43.713C117.92 46.958 117.883 49.7302 116.872 52.8122C116.723 53.2695 116.954 53.7692 117.407 53.9338C119.639 55.3703 120.849 55.9638 122.926 56.5611Z" fill="#FFED82" fill-opacity="0.3"/>
<ellipse cx="90.7104" cy="44.9901" rx="27.0124" ry="27.0124" transform="rotate(20 90.7104 44.9901)" fill="url(#paint1_linear_7303_112322)"/>
<ellipse cx="90.8256" cy="45.0326" rx="25.5602" ry="25.5602" transform="rotate(20 90.8256 45.0326)" fill="#D68639"/>
<g filter="url(#filter1_i_7303_112322)">
<circle cx="90.994" cy="45.0919" r="24.6888" transform="rotate(20 90.994 45.0919)" fill="url(#paint2_radial_7303_112322)"/>
</g>
<g filter="url(#filter2_dddi_7303_112322)">
<path d="M94.7049 29.7355L85.0263 41.9269L85.0492 41.0109L85.4379 26.3626C83.771 26.5375 82.1259 26.9935 80.5645 27.7134L80.0404 47.1295C80.8436 47.7077 81.7201 48.1668 82.6476 48.4951C83.5695 48.8383 84.5359 49.05 85.5226 49.1249L97.5764 33.9834C96.8494 32.3978 95.8797 30.9633 94.7049 29.7355Z" fill="url(#paint3_radial_7303_112322)"/>
<path d="M94.0505 55.1191C92.9821 54.7375 91.9702 54.2118 91.0383 53.554C90.3482 54.0356 89.5815 54.3678 88.7846 54.5304C87.9786 54.7414 87.1509 54.7892 86.3455 54.6711L85.7511 59.5844C87.5905 59.976 89.5272 59.7757 91.3216 59.008C93.0664 58.3069 94.6518 57.1788 95.9458 55.7178C95.2994 55.5659 94.6661 55.3659 94.0505 55.1191Z" fill="url(#paint4_radial_7303_112322)"/>
<path d="M81.842 50.6755C80.7737 50.294 79.7618 49.7682 78.8298 49.1105C78.1398 49.5921 77.373 49.9243 76.5761 50.0869C75.77 50.2959 74.9427 50.3436 74.137 50.2276L73.5427 55.1409C75.3787 55.5333 77.3126 55.3315 79.1027 54.5607C80.8502 53.861 82.4391 52.7343 83.7374 51.2743C83.0911 51.122 82.4578 50.922 81.842 50.6755Z" fill="url(#paint5_radial_7303_112322)"/>
<path d="M106.924 34.1829L97.2347 46.3704L97.2577 45.4544L97.4778 37.5017L92.4505 43.835L92.2383 51.5692C93.8594 52.7149 95.7422 53.4002 97.7205 53.5646L101.752 48.5225L109.774 38.423C109.052 36.8428 108.089 35.4112 106.924 34.1829Z" fill="url(#paint6_radial_7303_112322)"/>
</g>
<mask id="mask0_7303_112322" style="mask-type:alpha" maskUnits="userSpaceOnUse" x="73" y="26" width="37" height="34">
<path d="M94.7049 29.7355L85.0263 41.9269L85.0492 41.0109L85.4379 26.3626C83.771 26.5375 82.1259 26.9935 80.5645 27.7134L80.0404 47.1295C80.8436 47.7077 81.7201 48.1668 82.6476 48.4951C83.5695 48.8383 84.5359 49.05 85.5226 49.1249L97.5764 33.9834C96.8494 32.3978 95.8797 30.9633 94.7049 29.7355Z" fill="#E52924"/>
<path d="M94.0505 55.1191C92.9821 54.7375 91.9702 54.2118 91.0383 53.554C90.3482 54.0356 89.5815 54.3678 88.7846 54.5304C87.9786 54.7414 87.1509 54.7892 86.3455 54.6711L85.7511 59.5844C87.5905 59.976 89.5272 59.7757 91.3216 59.008C93.0663 58.3069 94.6518 57.1788 95.9458 55.7178C95.2994 55.5659 94.6661 55.3659 94.0505 55.1191Z" fill="#E52924"/>
<path d="M81.842 50.6755C80.7737 50.294 79.7618 49.7682 78.8298 49.1105C78.1398 49.5921 77.373 49.9243 76.5761 50.0869C75.77 50.2959 74.9427 50.3436 74.137 50.2276L73.5427 55.1409C75.3787 55.5333 77.3126 55.3315 79.1027 54.5607C80.8502 53.861 82.4391 52.7343 83.7374 51.2743C83.0911 51.122 82.4578 50.922 81.842 50.6755Z" fill="#E52924"/>
<path d="M106.924 34.1829L97.2347 46.3704L97.2577 45.4544L97.4778 37.5017L92.4505 43.835L92.2383 51.5692C93.8594 52.7149 95.7422 53.4002 97.7205 53.5646L101.752 48.5225L109.774 38.423C109.052 36.8428 108.089 35.4112 106.924 34.1829Z" fill="#E52924"/>
</mask>
<g mask="url(#mask0_7303_112322)">
<ellipse cx="97.3374" cy="25.3572" rx="37.2" ry="20.475" transform="rotate(20 97.3374 25.3572)" fill="url(#paint7_angular_7303_112322)"/>
</g>
<g filter="url(#filter3_d_7303_112322)">
<path d="M121.471 29.0823L121.182 32.6031L124.478 33.8738L120.958 33.5846L119.687 36.8808L119.976 33.36L116.68 32.0893L120.201 32.3785L121.471 29.0823Z" fill="white"/>
</g>
<g filter="url(#filter4_d_7303_112322)">
<circle cx="106.259" cy="72.4121" r="27.5" transform="rotate(10 106.259 72.4121)" fill="url(#paint8_radial_7303_112322)"/>
</g>
<path d="M132.659 77.0671C133.031 77.1328 133.387 76.8842 133.444 76.5103C133.947 73.169 133.831 69.7614 133.099 66.4586C132.317 62.9328 130.849 59.5956 128.778 56.6373C126.706 53.6791 124.072 51.1578 121.027 49.2174C117.981 47.277 114.583 45.9556 111.026 45.3284C107.47 44.7013 103.825 44.7809 100.299 45.5625C96.773 46.3442 93.4358 47.8126 90.4775 49.884C87.5193 51.9554 84.998 54.5891 83.0576 57.6349C81.2399 60.4881 79.9654 63.6505 79.2959 66.9626C79.221 67.3333 79.4705 67.6886 79.8429 67.7542C81.6899 68.3162 82.7585 68.4006 84.7434 68.1547C85.1158 68.2204 85.4697 67.9715 85.5474 67.6014C86.0708 65.1074 87.0224 63.1868 88.3936 61.0344C89.8876 58.6893 91.8288 56.6615 94.1065 55.0667C96.3841 53.4718 98.9536 52.3412 101.668 51.7394C104.383 51.1376 107.189 51.0764 109.928 51.5592C112.666 52.042 115.282 53.0595 117.627 54.5534C119.972 56.0474 122 57.9886 123.595 60.2663C125.19 62.5439 126.32 65.1134 126.922 67.828C127.475 70.3196 127.824 72.4696 127.463 74.9923C127.409 75.3666 127.657 75.7216 128.029 75.7872C129.953 76.5942 130.97 76.8883 132.659 77.0671Z" fill="#FFED82" fill-opacity="0.3"/>
<ellipse cx="106.152" cy="72.5093" rx="21.2241" ry="21.2241" transform="rotate(10 106.152 72.5093)" fill="url(#paint9_linear_7303_112322)"/>
<ellipse cx="106.247" cy="72.5265" rx="20.083" ry="20.083" transform="rotate(10 106.247 72.5265)" fill="#D68639"/>
<g filter="url(#filter5_i_7303_112322)">
<ellipse cx="106.385" cy="72.5493" rx="19.3983" ry="19.3983" transform="rotate(10 106.385 72.5493)" fill="url(#paint10_radial_7303_112322)"/>
</g>
<g filter="url(#filter6_dddi_7303_112322)">
<path d="M107.162 60.1605L101.336 70.9144L101.229 70.2025L99.5309 58.815C98.2649 59.1777 97.0542 59.755 95.9442 60.5251L98.1878 75.6204C98.8882 75.9581 99.629 76.1938 100.391 76.3213C101.152 76.4611 101.928 76.493 102.702 76.4163L109.963 63.0556C109.184 61.9279 108.238 60.9502 107.162 60.1605Z" fill="url(#paint11_radial_7303_112322)"/>
<path d="M110.119 79.891C109.24 79.7415 108.385 79.4727 107.574 79.091C107.106 79.5577 106.558 79.9194 105.964 80.1539C105.369 80.4272 104.735 80.5771 104.095 80.5956L104.306 84.4785C105.783 84.5306 107.254 84.1113 108.538 83.2725C109.792 82.4919 110.865 81.4027 111.667 80.0956C111.146 80.0663 110.629 79.998 110.119 79.891Z" fill="url(#paint12_radial_7303_112322)"/>
<path d="M100.066 78.1184C99.187 77.9689 98.3322 77.7001 97.5214 77.3184C97.0531 77.7852 96.5052 78.1468 95.9107 78.3813C95.3154 78.653 94.6818 78.8029 94.0426 78.823L94.2531 82.7059C95.7273 82.7591 97.1962 82.3391 98.4761 81.4984C99.7328 80.7186 100.809 79.6299 101.614 78.323C101.093 78.2934 100.576 78.225 100.066 78.1184Z" fill="url(#paint13_radial_7303_112322)"/>
<path d="M117.223 61.9346L111.389 72.687L111.282 71.9751L110.367 65.7915L107.341 71.3779L108.232 77.3914C109.643 78.0567 111.193 78.3301 112.746 78.1874L115.178 73.7359L120.007 64.8266C119.232 63.7025 118.292 62.7261 117.223 61.9346Z" fill="url(#paint14_radial_7303_112322)"/>
</g>
<mask id="mask1_7303_112322" style="mask-type:alpha" maskUnits="userSpaceOnUse" x="94" y="58" width="27" height="27">
<path d="M107.162 60.1605L101.336 70.9144L101.229 70.2025L99.5309 58.815C98.2649 59.1777 97.0542 59.755 95.9442 60.5251L98.1878 75.6204C98.8882 75.9581 99.629 76.1938 100.391 76.3213C101.152 76.4611 101.928 76.493 102.702 76.4164L109.963 63.0556C109.184 61.9279 108.238 60.9502 107.162 60.1605Z" fill="#E52924"/>
<path d="M110.119 79.891C109.24 79.7415 108.385 79.4727 107.574 79.091C107.106 79.5578 106.558 79.9194 105.964 80.1539C105.369 80.4272 104.735 80.5771 104.095 80.5956L104.306 84.4785C105.783 84.5306 107.254 84.1113 108.538 83.2725C109.792 82.4919 110.865 81.4027 111.667 80.0956C111.146 80.0663 110.629 79.998 110.119 79.891Z" fill="#E52924"/>
<path d="M100.066 78.1184C99.187 77.9689 98.3322 77.7001 97.5214 77.3184C97.0531 77.7852 96.5052 78.1468 95.9107 78.3813C95.3154 78.6531 94.6818 78.8029 94.0426 78.823L94.2531 82.7059C95.7273 82.7591 97.1962 82.3391 98.4761 81.4984C99.7328 80.7186 100.809 79.6299 101.614 78.323C101.093 78.2934 100.576 78.225 100.066 78.1184Z" fill="#E52924"/>
<path d="M117.223 61.9346L111.389 72.687L111.282 71.9751L110.367 65.7915L107.341 71.3779L108.232 77.3914C109.643 78.0567 111.193 78.3301 112.746 78.1874L115.178 73.7359L120.007 64.8266C119.232 63.7025 118.292 62.7261 117.223 61.9346Z" fill="#E52924"/>
</mask>
<g mask="url(#mask1_7303_112322)">
<ellipse cx="108.601" cy="56.4135" rx="29.2286" ry="16.0875" transform="rotate(10 108.601 56.4135)" fill="url(#paint15_angular_7303_112322)"/>
</g>
<g filter="url(#filter7_d_7303_112322)">
<circle cx="32.6886" cy="41.9171" r="27.5" transform="rotate(-10 32.6886 41.9171)" fill="url(#paint16_radial_7303_112322)"/>
</g>
<path d="M59.0884 37.2621C59.4608 37.1965 59.7103 36.8412 59.6354 36.4705C58.9659 33.1584 57.6914 29.996 55.8737 27.1428C53.9333 24.097 51.412 21.4633 48.4538 19.3919C45.4955 17.3205 42.1583 15.8521 38.6325 15.0704C35.1068 14.2888 31.4616 14.2092 27.9051 14.8363C24.3486 15.4635 20.9505 16.7849 17.9047 18.7253C14.8589 20.6657 12.2251 23.187 10.1537 26.1452C8.08234 29.1035 6.61391 32.4407 5.83227 35.9665C5.10005 39.2693 4.98396 42.6769 5.48771 46.0182C5.54408 46.3921 5.90007 46.6407 6.27244 46.575C8.2002 46.4714 9.2333 46.1852 11.0144 45.2753C11.3867 45.2096 11.6342 44.8546 11.5806 44.4803C11.2195 41.9577 11.4568 39.8275 12.0092 37.3359C12.611 34.6213 13.7416 32.0518 15.3364 29.7742C16.9312 27.4965 18.9591 25.5553 21.3041 24.0613C23.6491 22.5674 26.2655 21.5499 29.0037 21.0671C31.742 20.5843 34.5485 20.6455 37.2631 21.2473C39.9777 21.8491 42.5472 22.9797 44.8248 24.5746C47.1025 26.1694 49.0437 28.1972 50.5377 30.5423C51.9089 32.6947 52.9729 34.5955 53.4963 37.0895C53.5739 37.4595 53.9279 37.7085 54.3003 37.6428C56.3837 37.7432 57.4403 37.6717 59.0884 37.2621Z" fill="#FFED82" fill-opacity="0.3"/>
<ellipse cx="32.6213" cy="42.045" rx="21.2241" ry="21.2241" transform="rotate(-10 32.6213 42.045)" fill="url(#paint17_linear_7303_112322)"/>
<ellipse cx="32.7164" cy="42.0285" rx="20.083" ry="20.083" transform="rotate(-10 32.7164 42.0285)" fill="#D68639"/>
<g filter="url(#filter8_i_7303_112322)">
<ellipse cx="32.8543" cy="42.0028" rx="19.3983" ry="19.3983" transform="rotate(-10 32.8543 42.0028)" fill="url(#paint18_radial_7303_112322)"/>
</g>
<g filter="url(#filter9_dddi_7303_112322)">
<path d="M29.3465 30.0958L27.5501 42.1937L27.2059 41.5614L21.7157 31.4413C20.6501 32.2151 19.7099 33.1717 18.9303 34.275L26.2014 47.6926C26.9751 47.7704 27.7518 47.7385 28.5119 47.5975C29.2741 47.4688 30.0148 47.2332 30.7156 46.8966L32.9692 31.8581C31.8516 31.0648 30.6282 30.4697 29.3465 30.0958Z" fill="url(#paint19_radial_7303_112322)"/>
<path d="M38.8733 47.625C37.9964 47.7851 37.1013 47.8249 36.2088 47.7435C35.9284 48.3423 35.5372 48.8695 35.0588 49.2932C34.5933 49.7535 34.0489 50.1111 33.4544 50.3472L34.9802 53.9239C36.3857 53.4678 37.6248 52.5706 38.5443 51.3433C39.456 50.1808 40.0916 48.7903 40.3981 47.2878C39.8987 47.4385 39.3892 47.5511 38.8733 47.625Z" fill="url(#paint20_radial_7303_112322)"/>
<path d="M28.8204 49.3976C27.9436 49.5577 27.0484 49.5975 26.1559 49.5161C25.8755 50.1149 25.4843 50.6421 25.0059 51.0658C24.5395 51.5247 23.9953 51.8822 23.4016 52.1198L24.9273 55.6965C26.3309 55.2423 27.5675 54.3452 28.4827 53.1175C29.3969 51.9549 30.0355 50.564 30.3453 49.0604C29.8457 49.2107 29.3362 49.3234 28.8204 49.3976Z" fill="url(#paint21_radial_7303_112322)"/>
<path d="M39.408 28.3216L37.603 40.4211L37.2588 39.7888L34.2843 34.2909L33.3516 40.5754L36.2456 45.9215C37.7988 46.0642 39.3491 45.7908 40.7598 45.1255L41.5226 40.1107L43.0134 30.0871C41.9008 29.2957 40.6835 28.6997 39.408 28.3216Z" fill="url(#paint22_radial_7303_112322)"/>
</g>
<mask id="mask2_7303_112322" style="mask-type:alpha" maskUnits="userSpaceOnUse" x="18" y="28" width="26" height="28">
<path d="M29.3465 30.0958L27.5501 42.1937L27.2059 41.5614L21.7157 31.4413C20.6501 32.2151 19.7099 33.1717 18.9303 34.275L26.2014 47.6926C26.9751 47.7704 27.7518 47.7385 28.5119 47.5975C29.2741 47.4688 30.0148 47.2332 30.7156 46.8966L32.9692 31.8581C31.8516 31.0648 30.6282 30.4697 29.3465 30.0958Z" fill="#E52924"/>
<path d="M38.8733 47.625C37.9964 47.7851 37.1013 47.8249 36.2088 47.7435C35.9284 48.3423 35.5372 48.8695 35.0588 49.2932C34.5933 49.7534 34.0489 50.1111 33.4544 50.3472L34.9802 53.9239C36.3857 53.4678 37.6248 52.5706 38.5443 51.3433C39.456 50.1808 40.0916 48.7903 40.3981 47.2878C39.8987 47.4385 39.3892 47.5511 38.8733 47.625Z" fill="#E52924"/>
<path d="M28.8204 49.3976C27.9436 49.5577 27.0484 49.5975 26.1559 49.5161C25.8755 50.1149 25.4843 50.6421 25.0059 51.0658C24.5395 51.5247 23.9953 51.8822 23.4016 52.1198L24.9273 55.6965C26.3309 55.2423 27.5675 54.3452 28.4827 53.1175C29.3969 51.9549 30.0355 50.564 30.3453 49.0604C29.8457 49.2107 29.3362 49.3234 28.8204 49.3976Z" fill="#E52924"/>
<path d="M39.408 28.3216L37.603 40.4211L37.2588 39.7888L34.2843 34.2909L33.3516 40.5754L36.2456 45.9215C37.7988 46.0642 39.3491 45.7908 40.7598 45.1255L41.5226 40.1107L43.0134 30.0871C41.9008 29.2957 40.6835 28.6997 39.408 28.3216Z" fill="#E52924"/>
</mask>
<g mask="url(#mask2_7303_112322)">
<ellipse cx="29.4178" cy="26.0822" rx="29.2286" ry="16.0875" transform="rotate(-10 29.4178 26.0822)" fill="url(#paint23_angular_7303_112322)"/>
</g>
<defs>
<filter id="filter0_d_7303_112322" x="55.6655" y="9.88251" width="70.4007" height="70.9732" filterUnits="userSpaceOnUse" color-interpolation-filters="sRGB">
<feFlood flood-opacity="0" result="BackgroundImageFix"/>
<feColorMatrix in="SourceAlpha" type="matrix" values="0 0 0 0 0 0 0 0 0 0 0 0 0 0 0 0 0 0 127 0" result="hardAlpha"/>
<feOffset dy="0.763294"/>
<feGaussianBlur stdDeviation="0.0954118"/>
<feComposite in2="hardAlpha" operator="out"/>
<feColorMatrix type="matrix" values="0 0 0 0 0.679167 0 0 0 0 0.526354 0 0 0 0 0.526354 0 0 0 0.25 0"/>
<feBlend mode="normal" in2="BackgroundImageFix" result="effect1_dropShadow_7303_112322"/>
<feBlend mode="normal" in="SourceGraphic" in2="effect1_dropShadow_7303_112322" result="shape"/>
</filter>
<filter id="filter1_i_7303_112322" x="66.2985" y="20.3965" width="49.391" height="49.391" filterUnits="userSpaceOnUse" color-interpolation-filters="sRGB">
<feFlood flood-opacity="0" result="BackgroundImageFix"/>
<feBlend mode="normal" in="SourceGraphic" in2="BackgroundImageFix" result="shape"/>
<feColorMatrix in="SourceAlpha" type="matrix" values="0 0 0 0 0 0 0 0 0 0 0 0 0 0 0 0 0 0 127 0" result="hardAlpha"/>
<feOffset dy="-1.14494"/>
<feComposite in2="hardAlpha" operator="arithmetic" k2="-1" k3="1"/>
<feColorMatrix type="matrix" values="0 0 0 0 0.980392 0 0 0 0 0.760784 0 0 0 0 0.313726 0 0 0 0.5 0"/>
<feBlend mode="normal" in2="shape" result="effect1_innerShadow_7303_112322"/>
</filter>
<filter id="filter2_dddi_7303_112322" x="65.1069" y="26.0206" width="53.1032" height="50.6307" filterUnits="userSpaceOnUse" color-interpolation-filters="sRGB">
<feFlood flood-opacity="0" result="BackgroundImageFix"/>
<feColorMatrix in="SourceAlpha" type="matrix" values="0 0 0 0 0 0 0 0 0 0 0 0 0 0 0 0 0 0 127 0" result="hardAlpha"/>
<feOffset dy="0.341993"/>
<feGaussianBlur stdDeviation="0.0427491"/>
<feComposite in2="hardAlpha" operator="out"/>
<feColorMatrix type="matrix" values="0 0 0 0 0.5375 0 0 0 0 0.183125 0 0 0 0 0.174688 0 0 0 0.6 0"/>
<feBlend mode="normal" in2="BackgroundImageFix" result="effect1_dropShadow_7303_112322"/>
<feColorMatrix in="SourceAlpha" type="matrix" values="0 0 0 0 0 0 0 0 0 0 0 0 0 0 0 0 0 0 127 0" result="hardAlpha"/>
<feOffset dy="-0.170996"/>
<feGaussianBlur stdDeviation="0.0854981"/>
<feComposite in2="hardAlpha" operator="out"/>
<feColorMatrix type="matrix" values="0 0 0 0 0.7875 0 0 0 0 0.018314 0 0 0 0 0 0 0 0 0.5 0"/>
<feBlend mode="normal" in2="effect1_dropShadow_7303_112322" result="effect2_dropShadow_7303_112322"/>
<feColorMatrix in="SourceAlpha" type="matrix" values="0 0 0 0 0 0 0 0 0 0 0 0 0 0 0 0 0 0 127 0" result="hardAlpha"/>
<feOffset dy="8.43581"/>
<feGaussianBlur stdDeviation="4.21791"/>
<feComposite in2="hardAlpha" operator="out"/>
<feColorMatrix type="matrix" values="0 0 0 0 0 0 0 0 0 0 0 0 0 0 0 0 0 0 0.25 0"/>
<feBlend mode="normal" in2="effect2_dropShadow_7303_112322" result="effect3_dropShadow_7303_112322"/>
<feBlend mode="normal" in="SourceGraphic" in2="effect3_dropShadow_7303_112322" result="shape"/>
<feColorMatrix in="SourceAlpha" type="matrix" values="0 0 0 0 0 0 0 0 0 0 0 0 0 0 0 0 0 0 127 0" result="hardAlpha"/>
<feOffset dy="0.25543"/>
<feGaussianBlur stdDeviation="0.0851434"/>
<feComposite in2="hardAlpha" operator="arithmetic" k2="-1" k3="1"/>
<feColorMatrix type="matrix" values="0 0 0 0 1 0 0 0 0 0.754667 0 0 0 0 0.616667 0 0 0 1 0"/>
<feBlend mode="normal" in2="shape" result="effect4_innerShadow_7303_112322"/>
</filter>
<filter id="filter3_d_7303_112322" x="113.717" y="26.8597" width="13.7254" height="13.7254" filterUnits="userSpaceOnUse" color-interpolation-filters="sRGB">
<feFlood flood-opacity="0" result="BackgroundImageFix"/>
<feColorMatrix in="SourceAlpha" type="matrix" values="0 0 0 0 0 0 0 0 0 0 0 0 0 0 0 0 0 0 127 0" result="hardAlpha"/>
<feOffset dy="0.740866"/>
<feGaussianBlur stdDeviation="1.48173"/>
<feComposite in2="hardAlpha" operator="out"/>
<feColorMatrix type="matrix" values="0 0 0 0 1 0 0 0 0 1 0 0 0 0 1 0 0 0 0.6 0"/>
<feBlend mode="normal" in2="BackgroundImageFix" result="effect1_dropShadow_7303_112322"/>
<feBlend mode="normal" in="SourceGraphic" in2="effect1_dropShadow_7303_112322" result="shape"/>
</filter>
<filter id="filter4_d_7303_112322" x="78.5636" y="44.9075" width="55.3909" height="55.9634" filterUnits="userSpaceOnUse" color-interpolation-filters="sRGB">
<feFlood flood-opacity="0" result="BackgroundImageFix"/>
<feColorMatrix in="SourceAlpha" type="matrix" values="0 0 0 0 0 0 0 0 0 0 0 0 0 0 0 0 0 0 127 0" result="hardAlpha"/>
<feOffset dy="0.763294"/>
<feGaussianBlur stdDeviation="0.0954118"/>
<feComposite in2="hardAlpha" operator="out"/>
<feColorMatrix type="matrix" values="0 0 0 0 0.679167 0 0 0 0 0.526354 0 0 0 0 0.526354 0 0 0 0.25 0"/>
<feBlend mode="normal" in2="BackgroundImageFix" result="effect1_dropShadow_7303_112322"/>
<feBlend mode="normal" in="SourceGraphic" in2="effect1_dropShadow_7303_112322" result="shape"/>
</filter>
<filter id="filter5_i_7303_112322" x="86.9839" y="53.1477" width="38.8032" height="38.8031" filterUnits="userSpaceOnUse" color-interpolation-filters="sRGB">
<feFlood flood-opacity="0" result="BackgroundImageFix"/>
<feBlend mode="normal" in="SourceGraphic" in2="BackgroundImageFix" result="shape"/>
<feColorMatrix in="SourceAlpha" type="matrix" values="0 0 0 0 0 0 0 0 0 0 0 0 0 0 0 0 0 0 127 0" result="hardAlpha"/>
<feOffset dy="-1.14494"/>
<feComposite in2="hardAlpha" operator="arithmetic" k2="-1" k3="1"/>
<feColorMatrix type="matrix" values="0 0 0 0 0.980392 0 0 0 0 0.760784 0 0 0 0 0.313726 0 0 0 0.5 0"/>
<feBlend mode="normal" in2="shape" result="effect1_innerShadow_7303_112322"/>
</filter>
<filter id="filter6_dddi_7303_112322" x="85.6068" y="58.4729" width="42.8363" height="42.8815" filterUnits="userSpaceOnUse" color-interpolation-filters="sRGB">
<feFlood flood-opacity="0" result="BackgroundImageFix"/>
<feColorMatrix in="SourceAlpha" type="matrix" values="0 0 0 0 0 0 0 0 0 0 0 0 0 0 0 0 0 0 127 0" result="hardAlpha"/>
<feOffset dy="0.341993"/>
<feGaussianBlur stdDeviation="0.0427491"/>
<feComposite in2="hardAlpha" operator="out"/>
<feColorMatrix type="matrix" values="0 0 0 0 0.5375 0 0 0 0 0.183125 0 0 0 0 0.174688 0 0 0 0.6 0"/>
<feBlend mode="normal" in2="BackgroundImageFix" result="effect1_dropShadow_7303_112322"/>
<feColorMatrix in="SourceAlpha" type="matrix" values="0 0 0 0 0 0 0 0 0 0 0 0 0 0 0 0 0 0 127 0" result="hardAlpha"/>
<feOffset dy="-0.170996"/>
<feGaussianBlur stdDeviation="0.0854981"/>
<feComposite in2="hardAlpha" operator="out"/>
<feColorMatrix type="matrix" values="0 0 0 0 0.7875 0 0 0 0 0.018314 0 0 0 0 0 0 0 0 0.5 0"/>
<feBlend mode="normal" in2="effect1_dropShadow_7303_112322" result="effect2_dropShadow_7303_112322"/>
<feColorMatrix in="SourceAlpha" type="matrix" values="0 0 0 0 0 0 0 0 0 0 0 0 0 0 0 0 0 0 127 0" result="hardAlpha"/>
<feOffset dy="8.43581"/>
<feGaussianBlur stdDeviation="4.21791"/>
<feComposite in2="hardAlpha" operator="out"/>
<feColorMatrix type="matrix" values="0 0 0 0 0 0 0 0 0 0 0 0 0 0 0 0 0 0 0.25 0"/>
<feBlend mode="normal" in2="effect2_dropShadow_7303_112322" result="effect3_dropShadow_7303_112322"/>
<feBlend mode="normal" in="SourceGraphic" in2="effect3_dropShadow_7303_112322" result="shape"/>
<feColorMatrix in="SourceAlpha" type="matrix" values="0 0 0 0 0 0 0 0 0 0 0 0 0 0 0 0 0 0 127 0" result="hardAlpha"/>
<feOffset dy="0.25543"/>
<feGaussianBlur stdDeviation="0.0851434"/>
<feComposite in2="hardAlpha" operator="arithmetic" k2="-1" k3="1"/>
<feColorMatrix type="matrix" values="0 0 0 0 1 0 0 0 0 0.754667 0 0 0 0 0.616667 0 0 0 1 0"/>
<feBlend mode="normal" in2="shape" result="effect4_innerShadow_7303_112322"/>
</filter>
<filter id="filter7_d_7303_112322" x="4.9932" y="14.4125" width="55.3908" height="55.9634" filterUnits="userSpaceOnUse" color-interpolation-filters="sRGB">
<feFlood flood-opacity="0" result="BackgroundImageFix"/>
<feColorMatrix in="SourceAlpha" type="matrix" values="0 0 0 0 0 0 0 0 0 0 0 0 0 0 0 0 0 0 127 0" result="hardAlpha"/>
<feOffset dy="0.763294"/>
<feGaussianBlur stdDeviation="0.0954118"/>
<feComposite in2="hardAlpha" operator="out"/>
<feColorMatrix type="matrix" values="0 0 0 0 0.679167 0 0 0 0 0.526354 0 0 0 0 0.526354 0 0 0 0.25 0"/>
<feBlend mode="normal" in2="BackgroundImageFix" result="effect1_dropShadow_7303_112322"/>
<feBlend mode="normal" in="SourceGraphic" in2="effect1_dropShadow_7303_112322" result="shape"/>
</filter>
<filter id="filter8_i_7303_112322" x="13.4527" y="22.6013" width="38.8032" height="38.8031" filterUnits="userSpaceOnUse" color-interpolation-filters="sRGB">
<feFlood flood-opacity="0" result="BackgroundImageFix"/>
<feBlend mode="normal" in="SourceGraphic" in2="BackgroundImageFix" result="shape"/>
<feColorMatrix in="SourceAlpha" type="matrix" values="0 0 0 0 0 0 0 0 0 0 0 0 0 0 0 0 0 0 127 0" result="hardAlpha"/>
<feOffset dy="-1.14494"/>
<feComposite in2="hardAlpha" operator="arithmetic" k2="-1" k3="1"/>
<feColorMatrix type="matrix" values="0 0 0 0 0.980392 0 0 0 0 0.760784 0 0 0 0 0.313726 0 0 0 0.5 0"/>
<feBlend mode="normal" in2="shape" result="effect1_innerShadow_7303_112322"/>
</filter>
<filter id="filter9_dddi_7303_112322" x="10.4945" y="27.9797" width="40.9547" height="44.5885" filterUnits="userSpaceOnUse" color-interpolation-filters="sRGB">
<feFlood flood-opacity="0" result="BackgroundImageFix"/>
<feColorMatrix in="SourceAlpha" type="matrix" values="0 0 0 0 0 0 0 0 0 0 0 0 0 0 0 0 0 0 127 0" result="hardAlpha"/>
<feOffset dy="0.341993"/>
<feGaussianBlur stdDeviation="0.0427491"/>
<feComposite in2="hardAlpha" operator="out"/>
<feColorMatrix type="matrix" values="0 0 0 0 0.5375 0 0 0 0 0.183125 0 0 0 0 0.174688 0 0 0 0.6 0"/>
<feBlend mode="normal" in2="BackgroundImageFix" result="effect1_dropShadow_7303_112322"/>
<feColorMatrix in="SourceAlpha" type="matrix" values="0 0 0 0 0 0 0 0 0 0 0 0 0 0 0 0 0 0 127 0" result="hardAlpha"/>
<feOffset dy="-0.170996"/>
<feGaussianBlur stdDeviation="0.0854981"/>
<feComposite in2="hardAlpha" operator="out"/>
<feColorMatrix type="matrix" values="0 0 0 0 0.7875 0 0 0 0 0.018314 0 0 0 0 0 0 0 0 0.5 0"/>
<feBlend mode="normal" in2="effect1_dropShadow_7303_112322" result="effect2_dropShadow_7303_112322"/>
<feColorMatrix in="SourceAlpha" type="matrix" values="0 0 0 0 0 0 0 0 0 0 0 0 0 0 0 0 0 0 127 0" result="hardAlpha"/>
<feOffset dy="8.43581"/>
<feGaussianBlur stdDeviation="4.21791"/>
<feComposite in2="hardAlpha" operator="out"/>
<feColorMatrix type="matrix" values="0 0 0 0 0 0 0 0 0 0 0 0 0 0 0 0 0 0 0.25 0"/>
<feBlend mode="normal" in2="effect2_dropShadow_7303_112322" result="effect3_dropShadow_7303_112322"/>
<feBlend mode="normal" in="SourceGraphic" in2="effect3_dropShadow_7303_112322" result="shape"/>
<feColorMatrix in="SourceAlpha" type="matrix" values="0 0 0 0 0 0 0 0 0 0 0 0 0 0 0 0 0 0 127 0" result="hardAlpha"/>
<feOffset dy="0.25543"/>
<feGaussianBlur stdDeviation="0.0851434"/>
<feComposite in2="hardAlpha" operator="arithmetic" k2="-1" k3="1"/>
<feColorMatrix type="matrix" values="0 0 0 0 1 0 0 0 0 0.754667 0 0 0 0 0.616667 0 0 0 1 0"/>
<feBlend mode="normal" in2="shape" result="effect4_innerShadow_7303_112322"/>
</filter>
<radialGradient id="paint0_radial_7303_112322" cx="0" cy="0" r="1" gradientUnits="userSpaceOnUse" gradientTransform="translate(92.1729 9.89206) rotate(89.8811) scale(70.0001)">
<stop stop-color="#FFED82"/>
<stop offset="0.321442" stop-color="#F7C25B"/>
<stop offset="0.53125" stop-color="#F6C05B"/>
<stop offset="0.630208" stop-color="#F2B551"/>
<stop offset="0.708164" stop-color="#F0B14B"/>
<stop offset="1" stop-color="#D4823E"/>
</radialGradient>
<linearGradient id="paint1_linear_7303_112322" x1="90.7104" y1="17.9777" x2="90.7104" y2="72.0026" gradientUnits="userSpaceOnUse">
<stop stop-color="#DF9B45"/>
<stop offset="1" stop-color="#FBC450"/>
</linearGradient>
<radialGradient id="paint2_radial_7303_112322" cx="0" cy="0" r="1" gradientUnits="userSpaceOnUse" gradientTransform="translate(90.994 20.4031) rotate(90) scale(49.3776)">
<stop stop-color="#FFDC8B"/>
<stop offset="0.487207" stop-color="#FFDA83"/>
<stop offset="1" stop-color="#E29A3A"/>
</radialGradient>
<radialGradient id="paint3_radial_7303_112322" cx="0" cy="0" r="1" gradientUnits="userSpaceOnUse" gradientTransform="translate(99.6247 21.3186) rotate(110) scale(46.0921 21.0051)">
<stop stop-color="#FF0000"/>
<stop offset="1" stop-color="#FF0F00"/>
</radialGradient>
<radialGradient id="paint4_radial_7303_112322" cx="0" cy="0" r="1" gradientUnits="userSpaceOnUse" gradientTransform="translate(99.6247 21.3186) rotate(110) scale(46.0921 21.0051)">
<stop stop-color="#FF0000"/>
<stop offset="1" stop-color="#FF0F00"/>
</radialGradient>
<radialGradient id="paint5_radial_7303_112322" cx="0" cy="0" r="1" gradientUnits="userSpaceOnUse" gradientTransform="translate(99.6247 21.3186) rotate(110) scale(46.0921 21.0051)">
<stop stop-color="#FF0000"/>
<stop offset="1" stop-color="#FF0F00"/>
</radialGradient>
<radialGradient id="paint6_radial_7303_112322" cx="0" cy="0" r="1" gradientUnits="userSpaceOnUse" gradientTransform="translate(99.6247 21.3186) rotate(110) scale(46.0921 21.0051)">
<stop stop-color="#FF0000"/>
<stop offset="1" stop-color="#FF0F00"/>
</radialGradient>
<radialGradient id="paint7_angular_7303_112322" cx="0" cy="0" r="1" gradientUnits="userSpaceOnUse" gradientTransform="translate(97.049 11.96) rotate(90) scale(34.8833 53.3607)">
<stop offset="0.457896" stop-color="#FFF2A8"/>
<stop offset="1" stop-color="#FFF2A4" stop-opacity="0.16"/>
</radialGradient>
<radialGradient id="paint8_radial_7303_112322" cx="0" cy="0" r="1" gradientUnits="userSpaceOnUse" gradientTransform="translate(107.286 44.9121) rotate(89.8811) scale(55.0001)">
<stop stop-color="#FFED82"/>
<stop offset="0.321442" stop-color="#F7C25B"/>
<stop offset="0.53125" stop-color="#F6C05B"/>
<stop offset="0.630208" stop-color="#F2B551"/>
<stop offset="0.708164" stop-color="#F0B14B"/>
<stop offset="1" stop-color="#D4823E"/>
</radialGradient>
<linearGradient id="paint9_linear_7303_112322" x1="106.152" y1="51.2852" x2="106.152" y2="93.7333" gradientUnits="userSpaceOnUse">
<stop stop-color="#DF9B45"/>
<stop offset="1" stop-color="#FBC450"/>
</linearGradient>
<radialGradient id="paint10_radial_7303_112322" cx="0" cy="0" r="1" gradientUnits="userSpaceOnUse" gradientTransform="translate(106.385 53.1509) rotate(90) scale(38.7967 38.7967)">
<stop stop-color="#FFDC8B"/>
<stop offset="0.487207" stop-color="#FFDA83"/>
<stop offset="1" stop-color="#E29A3A"/>
</radialGradient>
<radialGradient id="paint11_radial_7303_112322" cx="0" cy="0" r="1" gradientUnits="userSpaceOnUse" gradientTransform="translate(109.82 52.9764) rotate(100) scale(36.2152 16.504)">
<stop stop-color="#FF0000"/>
<stop offset="1" stop-color="#FF0F00"/>
</radialGradient>
<radialGradient id="paint12_radial_7303_112322" cx="0" cy="0" r="1" gradientUnits="userSpaceOnUse" gradientTransform="translate(109.82 52.9764) rotate(100) scale(36.2152 16.504)">
<stop stop-color="#FF0000"/>
<stop offset="1" stop-color="#FF0F00"/>
</radialGradient>
<radialGradient id="paint13_radial_7303_112322" cx="0" cy="0" r="1" gradientUnits="userSpaceOnUse" gradientTransform="translate(109.82 52.9764) rotate(100) scale(36.2152 16.504)">
<stop stop-color="#FF0000"/>
<stop offset="1" stop-color="#FF0F00"/>
</radialGradient>
<radialGradient id="paint14_radial_7303_112322" cx="0" cy="0" r="1" gradientUnits="userSpaceOnUse" gradientTransform="translate(109.82 52.9764) rotate(100) scale(36.2152 16.504)">
<stop stop-color="#FF0000"/>
<stop offset="1" stop-color="#FF0F00"/>
</radialGradient>
<radialGradient id="paint15_angular_7303_112322" cx="0" cy="0" r="1" gradientUnits="userSpaceOnUse" gradientTransform="translate(108.375 45.8871) rotate(90) scale(27.4083 41.9263)">
<stop offset="0.457896" stop-color="#FFF2A8"/>
<stop offset="1" stop-color="#FFF2A4" stop-opacity="0.16"/>
</radialGradient>
<radialGradient id="paint16_radial_7303_112322" cx="0" cy="0" r="1" gradientUnits="userSpaceOnUse" gradientTransform="translate(33.7156 14.4171) rotate(89.8811) scale(55.0001)">
<stop stop-color="#FFED82"/>
<stop offset="0.321442" stop-color="#F7C25B"/>
<stop offset="0.53125" stop-color="#F6C05B"/>
<stop offset="0.630208" stop-color="#F2B551"/>
<stop offset="0.708164" stop-color="#F0B14B"/>
<stop offset="1" stop-color="#D4823E"/>
</radialGradient>
<linearGradient id="paint17_linear_7303_112322" x1="32.6213" y1="20.8209" x2="32.6213" y2="63.269" gradientUnits="userSpaceOnUse">
<stop stop-color="#DF9B45"/>
<stop offset="1" stop-color="#FBC450"/>
</linearGradient>
<radialGradient id="paint18_radial_7303_112322" cx="0" cy="0" r="1" gradientUnits="userSpaceOnUse" gradientTransform="translate(32.8543 22.6045) rotate(90) scale(38.7967 38.7967)">
<stop stop-color="#FFDC8B"/>
<stop offset="0.487207" stop-color="#FFDA83"/>
<stop offset="1" stop-color="#E29A3A"/>
</radialGradient>
<radialGradient id="paint19_radial_7303_112322" cx="0" cy="0" r="1" gradientUnits="userSpaceOnUse" gradientTransform="translate(29.3875 22.4357) rotate(80) scale(36.2152 16.504)">
<stop stop-color="#FF0000"/>
<stop offset="1" stop-color="#FF0F00"/>
</radialGradient>
<radialGradient id="paint20_radial_7303_112322" cx="0" cy="0" r="1" gradientUnits="userSpaceOnUse" gradientTransform="translate(29.3875 22.4357) rotate(80) scale(36.2152 16.504)">
<stop stop-color="#FF0000"/>
<stop offset="1" stop-color="#FF0F00"/>
</radialGradient>
<radialGradient id="paint21_radial_7303_112322" cx="0" cy="0" r="1" gradientUnits="userSpaceOnUse" gradientTransform="translate(29.3875 22.4357) rotate(80) scale(36.2152 16.504)">
<stop stop-color="#FF0000"/>
<stop offset="1" stop-color="#FF0F00"/>
</radialGradient>
<radialGradient id="paint22_radial_7303_112322" cx="0" cy="0" r="1" gradientUnits="userSpaceOnUse" gradientTransform="translate(29.3875 22.4357) rotate(80) scale(36.2152 16.504)">
<stop stop-color="#FF0000"/>
<stop offset="1" stop-color="#FF0F00"/>
</radialGradient>
<radialGradient id="paint23_angular_7303_112322" cx="0" cy="0" r="1" gradientUnits="userSpaceOnUse" gradientTransform="translate(29.1912 15.5558) rotate(90) scale(27.4083 41.9263)">
<stop offset="0.457896" stop-color="#FFF2A8"/>
<stop offset="1" stop-color="#FFF2A4" stop-opacity="0.16"/>
</radialGradient>
</defs>
</svg>
