<svg width="76" height="76" viewBox="0 0 76 76" fill="none" xmlns="http://www.w3.org/2000/svg">
<rect x="-0.5" y="0.5" width="75" height="75" rx="7.5" transform="matrix(-1 0 0 1 75 0)" fill="#F5F5F8"/>
<mask id="mask0_3598_63723" style="mask-type:alpha" maskUnits="userSpaceOnUse" x="11" y="11" width="54" height="54">
<rect x="11" y="11" width="54" height="54" fill="white"/>
</mask>
<g mask="url(#mask0_3598_63723)">
<g filter="url(#filter0_d_3598_63723)">
<path d="M58.6113 38C58.6113 49.383 49.3835 58.6108 38.0005 58.6108C26.6174 58.6108 17.3896 49.383 17.3896 38C17.3896 26.6169 26.6174 17.3892 38.0005 17.3892C49.3835 17.3892 58.6113 26.6169 58.6113 38Z" fill="url(#paint0_radial_3598_63723)"/>
<path d="M58.6113 38C58.6113 49.383 49.3835 58.6108 38.0005 58.6108C26.6174 58.6108 17.3896 49.383 17.3896 38C17.3896 26.6169 26.6174 17.3892 38.0005 17.3892C49.3835 17.3892 58.6113 26.6169 58.6113 38Z" fill="url(#paint1_radial_3598_63723)"/>
<ellipse cx="30.2245" cy="28.1206" rx="2.62688" ry="2.97165" fill="#7F2F17"/>
<ellipse cx="45.7763" cy="28.1206" rx="2.62688" ry="2.97165" fill="#7F2F17"/>
<path d="M48.1868 35.8896C48.739 35.8896 49.1914 36.3384 49.1396 36.8883C48.6456 42.1291 44.3126 47.0753 38.0011 47.0753C31.6291 47.0753 27.2737 43.0421 26.8495 36.8904C26.8115 36.3394 27.2631 35.8896 27.8154 35.8896H48.1868Z" fill="url(#paint2_linear_3598_63723)"/>
</g>
</g>
<rect x="-0.5" y="0.5" width="75" height="75" rx="7.5" transform="matrix(-1 0 0 1 75 0)" stroke="url(#paint3_diamond_3598_63723)"/>
<defs>
<filter id="filter0_d_3598_63723" x="13.3896" y="13.3892" width="49.2217" height="49.2217" filterUnits="userSpaceOnUse" color-interpolation-filters="sRGB">
<feFlood flood-opacity="0" result="BackgroundImageFix"/>
<feColorMatrix in="SourceAlpha" type="matrix" values="0 0 0 0 0 0 0 0 0 0 0 0 0 0 0 0 0 0 127 0" result="hardAlpha"/>
<feOffset/>
<feGaussianBlur stdDeviation="2"/>
<feColorMatrix type="matrix" values="0 0 0 0 1 0 0 0 0 0.780392 0 0 0 0 0 0 0 0 0.3 0"/>
<feBlend mode="normal" in2="BackgroundImageFix" result="effect1_dropShadow_3598_63723"/>
<feBlend mode="normal" in="SourceGraphic" in2="effect1_dropShadow_3598_63723" result="shape"/>
</filter>
<radialGradient id="paint0_radial_3598_63723" cx="0" cy="0" r="1" gradientUnits="userSpaceOnUse" gradientTransform="translate(46.9567 53.0443) rotate(-121.418) scale(37.8323 39.3707)">
<stop stop-color="#FF9D41"/>
<stop offset="1" stop-color="#FFD75C"/>
</radialGradient>
<radialGradient id="paint1_radial_3598_63723" cx="0" cy="0" r="1" gradientUnits="userSpaceOnUse" gradientTransform="translate(30.5754 27.4386) rotate(58.815) scale(28.2576 24.1137)">
<stop stop-color="#FFEFA5"/>
<stop offset="1" stop-color="#FFE25E" stop-opacity="0"/>
</radialGradient>
<linearGradient id="paint2_linear_3598_63723" x1="38.6935" y1="36.0105" x2="38.6935" y2="46.7912" gradientUnits="userSpaceOnUse">
<stop stop-color="#FF3E12"/>
<stop offset="1" stop-color="#FF7D16" stop-opacity="0.9"/>
</linearGradient>
<radialGradient id="paint3_diamond_3598_63723" cx="0" cy="0" r="1" gradientUnits="userSpaceOnUse" gradientTransform="translate(73.2292 -1.97915) rotate(142.903) scale(99.7508 778.896)">
<stop stop-color="#FFF1DB"/>
<stop offset="1" stop-color="#DE5E36"/>
</radialGradient>
</defs>
</svg>
