<svg width="77" height="76" viewBox="0 0 77 76" fill="none" xmlns="http://www.w3.org/2000/svg">
<rect x="-0.5" y="0.5" width="75" height="75" rx="7.5" transform="matrix(-1 0 0 1 75 0)" fill="#F5F5F8"/>
<g clip-path="url(#clip0_3598_64031)">
<g filter="url(#filter0_dd_3598_64031)">
<rect x="5.07617" y="26.0117" width="58" height="40" rx="4" transform="rotate(-15 5.07617 26.0117)" fill="url(#paint0_diamond_3598_64031)"/>
</g>
<path d="M21.1314 48.6866L20.7222 47.1595C21.2674 46.3915 21.7921 45.635 22.2964 44.8897C22.8116 44.1415 23.2517 43.4193 23.6166 42.7232C23.9925 42.0241 24.2633 41.3707 24.429 40.7631C24.6028 40.1417 24.6222 39.5791 24.4872 39.0756C24.3611 38.6048 24.1183 38.224 23.7587 37.9332C23.4101 37.6394 22.9403 37.5717 22.3491 37.7301C21.747 37.8914 21.3455 38.2102 21.1446 38.6864C20.9437 39.1627 20.918 39.6799 21.0676 40.2382L19.0315 40.7838C18.8275 39.935 18.8259 39.1845 19.0266 38.5324C19.2243 37.8693 19.5767 37.3231 20.0835 36.894C20.5875 36.4539 21.2007 36.137 21.9232 35.9435C23.0946 35.6296 24.0897 35.7091 24.9086 36.1819C25.7356 36.6408 26.2855 37.3793 26.5583 38.3974C26.7284 39.0324 26.7464 39.6905 26.6121 40.3718C26.4888 41.0501 26.2666 41.7315 25.9455 42.416C25.6243 43.1004 25.2561 43.7623 24.8407 44.4015C24.4224 45.0299 24.0118 45.621 23.6087 46.1748L28.5842 44.8417L29.0462 46.5658L21.1314 48.6866ZM35.4769 45.0539C34.415 45.3385 33.4404 45.3356 32.5531 45.0454C31.6628 44.7442 30.8908 44.206 30.2373 43.4307C29.5917 42.6416 29.1105 41.6559 28.7937 40.4736C28.4798 39.3023 28.4052 38.2135 28.5697 37.2073C28.7452 36.1981 29.1446 35.3461 29.7679 34.6511C30.3883 33.9451 31.2295 33.4498 32.2914 33.1653C33.3532 32.8808 34.3293 32.8891 35.2196 33.1903C36.107 33.4805 36.8734 34.0202 37.519 34.8093C38.1755 35.5955 38.6607 36.5743 38.9746 37.7456C39.2914 38.9279 39.362 40.0237 39.1866 41.0328C39.0191 42.028 38.6252 42.8786 38.0048 43.5846C37.3814 44.2796 36.5388 44.7694 35.4769 45.0539ZM34.9709 43.1655C35.8357 42.9338 36.445 42.3834 36.7988 41.5142C37.1526 40.645 37.1608 39.581 36.8234 38.322C36.4861 37.0631 35.947 36.1457 35.206 35.5699C34.4651 34.994 33.6622 34.822 32.7974 35.0537C31.9216 35.2884 31.3068 35.8403 30.9531 36.7095C30.6102 37.5757 30.6075 38.6383 30.9448 39.8972C31.2822 41.1561 31.8158 42.075 32.5458 42.6538C33.2868 43.2296 34.0951 43.4002 34.9709 43.1655Z" fill="white"/>
<g filter="url(#filter1_d_3598_64031)">
<circle cx="50.3254" cy="34.6525" r="9" transform="rotate(-15 50.3254 34.6525)" fill="url(#paint1_radial_3598_64031)"/>
</g>
<path d="M58.7997 32.3819C58.9192 32.3498 58.9905 32.2269 58.9555 32.1082C58.6427 31.0474 58.137 30.0528 57.463 29.1744C56.7435 28.2367 55.8464 27.45 54.8228 26.859C53.7993 26.2681 52.6693 25.8845 51.4975 25.7302C50.3258 25.576 49.1351 25.654 47.9934 25.9599C46.8518 26.2658 45.7816 26.7936 44.844 27.5131C43.9063 28.2326 43.1195 29.1297 42.5286 30.1532C41.9376 31.1768 41.5541 32.3067 41.3998 33.4785C41.2553 34.5762 41.3146 35.6905 41.5742 36.7655C41.6032 36.8858 41.7264 36.9566 41.8459 36.9246C42.4715 36.8358 42.8001 36.7131 43.3548 36.3656C43.4744 36.3336 43.5449 36.2108 43.5168 36.0903C43.3271 35.2781 43.3437 34.5769 43.4527 33.7488C43.5715 32.8466 43.8668 31.9766 44.3218 31.1885C44.7768 30.4005 45.3825 29.7097 46.1045 29.1558C46.8264 28.6018 47.6504 28.1955 48.5294 27.96C49.4083 27.7244 50.3251 27.6644 51.2273 27.7831C52.1295 27.9019 52.9994 28.1972 53.7875 28.6522C54.5756 29.1072 55.2663 29.713 55.8203 30.4349C56.3287 31.0975 56.7298 31.6869 56.9716 32.4851C57.0075 32.6035 57.13 32.6746 57.2495 32.6426C57.9316 32.6159 58.2741 32.5624 58.7997 32.3819Z" fill="#FFED82" fill-opacity="0.3"/>
<ellipse cx="50.307" cy="34.6963" rx="6.94606" ry="6.94606" transform="rotate(-15 50.307 34.6963)" fill="url(#paint2_linear_3598_64031)"/>
<ellipse cx="50.3379" cy="34.6881" rx="6.57262" ry="6.57262" transform="rotate(-15 50.3379 34.6881)" fill="#D68639"/>
<g filter="url(#filter2_i_3598_64031)">
<ellipse cx="50.3818" cy="34.6756" rx="6.34855" ry="6.34855" transform="rotate(-15 50.3818 34.6756)" fill="url(#paint3_radial_3598_64031)"/>
</g>
<g filter="url(#filter3_dddi_3598_64031)">
<path d="M48.8989 30.8939L48.6584 34.8894L48.5281 34.693L46.4495 31.5502C46.1241 31.8329 45.8449 32.1716 45.6222 32.5535L48.3755 36.7206C48.6299 36.7239 48.8823 36.6913 49.1261 36.6237C49.3709 36.56 49.6057 36.4621 49.8245 36.3323L50.1303 31.3651C49.7433 31.1383 49.3275 30.9792 48.8989 30.8939Z" fill="url(#paint4_radial_3598_64031)"/>
<path d="M52.5049 36.3371C52.2236 36.4143 51.9329 36.4528 51.6396 36.4518C51.5653 36.655 51.4528 36.838 51.3089 36.9898C51.1702 37.1531 51.003 37.2853 50.8159 37.3792L51.4154 38.5018C51.8606 38.313 52.239 37.9851 52.5037 37.5588C52.7678 37.1538 52.9354 36.6823 52.9925 36.1837C52.8339 36.2471 52.671 36.2983 52.5049 36.3371Z" fill="url(#paint5_radial_3598_64031)"/>
<path d="M49.278 37.2018C48.9967 37.279 48.706 37.3175 48.4127 37.3164C48.3383 37.5196 48.2258 37.7027 48.0819 37.8545C47.943 38.0174 47.7757 38.1495 47.5889 38.2439L48.1884 39.3664C48.633 39.1783 49.0106 38.8506 49.274 38.4242C49.5389 38.0191 49.7074 37.5474 49.7655 37.0484C49.6069 37.1116 49.444 37.1629 49.278 37.2018Z" fill="url(#paint6_radial_3598_64031)"/>
<path d="M52.1287 30.0284L51.8853 34.0247L51.755 33.8284L50.6285 32.1207L50.5036 34.1962L51.5996 35.8567C52.1101 35.8589 52.6077 35.7256 53.0487 35.4684L53.1543 33.8117L53.3545 30.5012C52.9692 30.2749 52.5553 30.1153 52.1287 30.0284Z" fill="url(#paint7_radial_3598_64031)"/>
</g>
<mask id="mask0_3598_64031" style="mask-type:alpha" maskUnits="userSpaceOnUse" x="45" y="30" width="9" height="10">
<path d="M48.8989 30.8939L48.6584 34.8894L48.5281 34.693L46.4495 31.5502C46.1241 31.8329 45.8449 32.1716 45.6222 32.5535L48.3755 36.7206C48.6299 36.7239 48.8823 36.6913 49.1261 36.6237C49.3709 36.56 49.6057 36.4621 49.8245 36.3323L50.1303 31.3651C49.7433 31.1383 49.3275 30.9792 48.8989 30.8939Z" fill="#E52924"/>
<path d="M52.5049 36.3371C52.2236 36.4143 51.9329 36.4528 51.6396 36.4518C51.5653 36.655 51.4528 36.838 51.3089 36.9898C51.1702 37.1531 51.003 37.2853 50.8159 37.3792L51.4154 38.5018C51.8606 38.313 52.239 37.9851 52.5037 37.5588C52.7678 37.1538 52.9354 36.6823 52.9925 36.1837C52.8339 36.2471 52.671 36.2983 52.5049 36.3371Z" fill="#E52924"/>
<path d="M49.278 37.2018C48.9967 37.279 48.706 37.3175 48.4127 37.3164C48.3383 37.5196 48.2258 37.7027 48.0819 37.8545C47.943 38.0174 47.7757 38.1495 47.5889 38.2439L48.1884 39.3664C48.633 39.1783 49.0106 38.8506 49.274 38.4242C49.5389 38.0191 49.7074 37.5474 49.7655 37.0484C49.6069 37.1116 49.444 37.1629 49.278 37.2018Z" fill="#E52924"/>
<path d="M52.1287 30.0284L51.8853 34.0247L51.755 33.8284L50.6285 32.1207L50.5036 34.1962L51.5996 35.8567C52.1101 35.8589 52.6077 35.7256 53.0487 35.4684L53.1543 33.8117L53.3545 30.5012C52.9692 30.2749 52.5553 30.1153 52.1287 30.0284Z" fill="#E52924"/>
</mask>
<g mask="url(#mask0_3598_64031)">
<ellipse cx="48.8075" cy="29.5834" rx="9.56571" ry="5.265" transform="rotate(-15 48.8075 29.5834)" fill="url(#paint8_angular_3598_64031)"/>
</g>
</g>
<rect x="-0.5" y="0.5" width="75" height="75" rx="7.5" transform="matrix(-1 0 0 1 75 0)" stroke="url(#paint9_diamond_3598_64031)"/>
<defs>
<filter id="filter0_dd_3598_64031" x="-2.02539" y="3.89844" width="80.5801" height="67.8525" filterUnits="userSpaceOnUse" color-interpolation-filters="sRGB">
<feFlood flood-opacity="0" result="BackgroundImageFix"/>
<feColorMatrix in="SourceAlpha" type="matrix" values="0 0 0 0 0 0 0 0 0 0 0 0 0 0 0 0 0 0 127 0" result="hardAlpha"/>
<feOffset/>
<feGaussianBlur stdDeviation="2"/>
<feColorMatrix type="matrix" values="0 0 0 0 1 0 0 0 0 0.780392 0 0 0 0 0 0 0 0 0.3 0"/>
<feBlend mode="normal" in2="BackgroundImageFix" result="effect1_dropShadow_3598_64031"/>
<feColorMatrix in="SourceAlpha" type="matrix" values="0 0 0 0 0 0 0 0 0 0 0 0 0 0 0 0 0 0 127 0" result="hardAlpha"/>
<feOffset/>
<feGaussianBlur stdDeviation="4"/>
<feColorMatrix type="matrix" values="0 0 0 0 1 0 0 0 0 0.780392 0 0 0 0 0 0 0 0 0.15 0"/>
<feBlend mode="normal" in2="effect1_dropShadow_3598_64031" result="effect2_dropShadow_3598_64031"/>
<feBlend mode="normal" in="SourceGraphic" in2="effect2_dropShadow_3598_64031" result="shape"/>
</filter>
<filter id="filter1_d_3598_64031" x="41.2218" y="25.6504" width="18.2077" height="18.5115" filterUnits="userSpaceOnUse" color-interpolation-filters="sRGB">
<feFlood flood-opacity="0" result="BackgroundImageFix"/>
<feColorMatrix in="SourceAlpha" type="matrix" values="0 0 0 0 0 0 0 0 0 0 0 0 0 0 0 0 0 0 127 0" result="hardAlpha"/>
<feOffset dy="0.405716"/>
<feGaussianBlur stdDeviation="0.0507146"/>
<feComposite in2="hardAlpha" operator="out"/>
<feColorMatrix type="matrix" values="0 0 0 0 0.679167 0 0 0 0 0.526354 0 0 0 0 0.526354 0 0 0 0.25 0"/>
<feBlend mode="normal" in2="BackgroundImageFix" result="effect1_dropShadow_3598_64031"/>
<feBlend mode="normal" in="SourceGraphic" in2="effect1_dropShadow_3598_64031" result="shape"/>
</filter>
<filter id="filter2_i_3598_64031" x="44.0312" y="28.3257" width="12.7002" height="12.7002" filterUnits="userSpaceOnUse" color-interpolation-filters="sRGB">
<feFlood flood-opacity="0" result="BackgroundImageFix"/>
<feBlend mode="normal" in="SourceGraphic" in2="BackgroundImageFix" result="shape"/>
<feColorMatrix in="SourceAlpha" type="matrix" values="0 0 0 0 0 0 0 0 0 0 0 0 0 0 0 0 0 0 127 0" result="hardAlpha"/>
<feOffset dy="-0.608575"/>
<feComposite in2="hardAlpha" operator="arithmetic" k2="-1" k3="1"/>
<feColorMatrix type="matrix" values="0 0 0 0 0.980392 0 0 0 0 0.760784 0 0 0 0 0.313726 0 0 0 0.5 0"/>
<feBlend mode="normal" in2="shape" result="effect1_innerShadow_3598_64031"/>
</filter>
<filter id="filter3_dddi_3598_64031" x="41.1382" y="29.8465" width="16.7003" height="18.4875" filterUnits="userSpaceOnUse" color-interpolation-filters="sRGB">
<feFlood flood-opacity="0" result="BackgroundImageFix"/>
<feColorMatrix in="SourceAlpha" type="matrix" values="0 0 0 0 0 0 0 0 0 0 0 0 0 0 0 0 0 0 127 0" result="hardAlpha"/>
<feOffset dy="0.18178"/>
<feGaussianBlur stdDeviation="0.0227226"/>
<feComposite in2="hardAlpha" operator="out"/>
<feColorMatrix type="matrix" values="0 0 0 0 0.5375 0 0 0 0 0.183125 0 0 0 0 0.174688 0 0 0 0.6 0"/>
<feBlend mode="normal" in2="BackgroundImageFix" result="effect1_dropShadow_3598_64031"/>
<feColorMatrix in="SourceAlpha" type="matrix" values="0 0 0 0 0 0 0 0 0 0 0 0 0 0 0 0 0 0 127 0" result="hardAlpha"/>
<feOffset dy="-0.0908902"/>
<feGaussianBlur stdDeviation="0.0454451"/>
<feComposite in2="hardAlpha" operator="out"/>
<feColorMatrix type="matrix" values="0 0 0 0 0.7875 0 0 0 0 0.018314 0 0 0 0 0 0 0 0 0.5 0"/>
<feBlend mode="normal" in2="effect1_dropShadow_3598_64031" result="effect2_dropShadow_3598_64031"/>
<feColorMatrix in="SourceAlpha" type="matrix" values="0 0 0 0 0 0 0 0 0 0 0 0 0 0 0 0 0 0 127 0" result="hardAlpha"/>
<feOffset dy="4.48392"/>
<feGaussianBlur stdDeviation="2.24196"/>
<feComposite in2="hardAlpha" operator="out"/>
<feColorMatrix type="matrix" values="0 0 0 0 0 0 0 0 0 0 0 0 0 0 0 0 0 0 0.25 0"/>
<feBlend mode="normal" in2="effect2_dropShadow_3598_64031" result="effect3_dropShadow_3598_64031"/>
<feBlend mode="normal" in="SourceGraphic" in2="effect3_dropShadow_3598_64031" result="shape"/>
<feColorMatrix in="SourceAlpha" type="matrix" values="0 0 0 0 0 0 0 0 0 0 0 0 0 0 0 0 0 0 127 0" result="hardAlpha"/>
<feOffset dy="0.13577"/>
<feGaussianBlur stdDeviation="0.0452565"/>
<feComposite in2="hardAlpha" operator="arithmetic" k2="-1" k3="1"/>
<feColorMatrix type="matrix" values="0 0 0 0 1 0 0 0 0 0.754667 0 0 0 0 0.616667 0 0 0 1 0"/>
<feBlend mode="normal" in2="shape" result="effect4_innerShadow_3598_64031"/>
</filter>
<radialGradient id="paint0_diamond_3598_64031" cx="0" cy="0" r="1" gradientUnits="userSpaceOnUse" gradientTransform="translate(35.7037 45.8875) rotate(-160.185) scale(37.745 351.321)">
<stop stop-color="#FAA362"/>
<stop offset="1" stop-color="#F98936"/>
</radialGradient>
<radialGradient id="paint1_radial_3598_64031" cx="0" cy="0" r="1" gradientUnits="userSpaceOnUse" gradientTransform="translate(50.6615 25.6525) rotate(89.8811) scale(18)">
<stop stop-color="#FFED82"/>
<stop offset="0.321442" stop-color="#F7C25B"/>
<stop offset="0.53125" stop-color="#F6C05B"/>
<stop offset="0.630208" stop-color="#F2B551"/>
<stop offset="0.708164" stop-color="#F0B14B"/>
<stop offset="1" stop-color="#D4823E"/>
</radialGradient>
<linearGradient id="paint2_linear_3598_64031" x1="50.307" y1="27.7502" x2="50.307" y2="41.6423" gradientUnits="userSpaceOnUse">
<stop stop-color="#DF9B45"/>
<stop offset="1" stop-color="#FBC450"/>
</linearGradient>
<radialGradient id="paint3_radial_3598_64031" cx="0" cy="0" r="1" gradientUnits="userSpaceOnUse" gradientTransform="translate(50.3818 28.3271) rotate(90) scale(12.6971)">
<stop stop-color="#FFDC8B"/>
<stop offset="0.487207" stop-color="#FFDA83"/>
<stop offset="1" stop-color="#E29A3A"/>
</radialGradient>
<radialGradient id="paint4_radial_3598_64031" cx="0" cy="0" r="1" gradientUnits="userSpaceOnUse" gradientTransform="translate(48.6938 28.3953) rotate(75) scale(11.8522 5.4013)">
<stop stop-color="#FF0000"/>
<stop offset="1" stop-color="#FF0F00"/>
</radialGradient>
<radialGradient id="paint5_radial_3598_64031" cx="0" cy="0" r="1" gradientUnits="userSpaceOnUse" gradientTransform="translate(48.6938 28.3953) rotate(75) scale(11.8522 5.4013)">
<stop stop-color="#FF0000"/>
<stop offset="1" stop-color="#FF0F00"/>
</radialGradient>
<radialGradient id="paint6_radial_3598_64031" cx="0" cy="0" r="1" gradientUnits="userSpaceOnUse" gradientTransform="translate(48.6938 28.3953) rotate(75) scale(11.8522 5.4013)">
<stop stop-color="#FF0000"/>
<stop offset="1" stop-color="#FF0F00"/>
</radialGradient>
<radialGradient id="paint7_radial_3598_64031" cx="0" cy="0" r="1" gradientUnits="userSpaceOnUse" gradientTransform="translate(48.6938 28.3953) rotate(75) scale(11.8522 5.4013)">
<stop stop-color="#FF0000"/>
<stop offset="1" stop-color="#FF0F00"/>
</radialGradient>
<radialGradient id="paint8_angular_3598_64031" cx="0" cy="0" r="1" gradientUnits="userSpaceOnUse" gradientTransform="translate(48.7334 26.1384) rotate(90) scale(8.97 13.7213)">
<stop offset="0.457896" stop-color="#FFF2A8"/>
<stop offset="1" stop-color="#FFF2A4" stop-opacity="0.16"/>
</radialGradient>
<radialGradient id="paint9_diamond_3598_64031" cx="0" cy="0" r="1" gradientUnits="userSpaceOnUse" gradientTransform="translate(73.2292 -1.97915) rotate(142.903) scale(99.7508 778.896)">
<stop stop-color="#FFF1DB"/>
<stop offset="1" stop-color="#DE5E36"/>
</radialGradient>
<clipPath id="clip0_3598_64031">
<rect width="66.3765" height="53.6485" fill="white" transform="translate(5.07617 11)"/>
</clipPath>
</defs>
</svg>
